{
    "asset" : {
        "generator" : "Khronos glTF Blender I/O v1.7.33",
        "version" : "2.0"
    },
    "scene" : 0,
    "scenes" : [
        {
            "name" : "Scene",
            "nodes" : [
                0,
                7
            ]
        }
    ],
    "nodes" : [
        {
            "name" : "dummyroot_acid_lab",
            "rotation" : [
                1,
                0,
                0,
                0
            ]
        },
        {
            "mesh" : 0,
            "name" : "collision_bldg_acid",
            "rotation" : [
                0,
                0,
                0,
                -1
            ],
            "translation" : [
                0,
                -1.2701365947723389,
                0
            ]
        },
        {
            "mesh" : 1,
            "name" : "hp_hanger2",
            "rotation" : [
                0,
                0,
                0,
                -1
            ],
            "translation" : [
                -13.933624267578125,
                -2.8614494800567627,
                -2.4684441089630127
            ]
        },
        {
            "mesh" : 2,
            "name" : "hp_hanger3",
            "rotation" : [
                0,
                0,
                0,
                -1
            ],
            "translation" : [
                14.549646377563477,
                -3.2844185829162598,
                0
            ]
        },
        {
            "mesh" : 3,
            "name" : "hp_hanger4",
            "rotation" : [
                0,
                0,
                0,
                -1
            ],
            "translation" : [
                31.78160858154297,
                -3.2844185829162598,
                0
            ]
        },
        {
            "mesh" : 4,
            "name" : "hp_lava",
            "rotation" : [
                0,
                0,
                0,
                -1
            ],
            "translation" : [
                23.06646728515625,
                -2.886000871658325,
                -4.104547023773193
            ]
        },
        {
            "children" : [
                2,
                3,
                4,
                5
            ],
            "mesh" : 5,
            "name" : "hp_hanger1",
            "rotation" : [
                0,
                0,
                0,
                -1
            ],
            "translation" : [
                22.789220809936523,
                -12.503558158874512,
                -24.391014099121094
            ]
        },
        {
            "children" : [
                1,
                6
            ],
            "mesh" : 6,
            "name" : "bldg_acid",
            "rotation" : [
                1,
                0,
                0,
                0
            ],
            "translation" : [
                -31.946897506713867,
                0,
                -34.2984733581543
            ]
        }
    ],
    "materials" : [
        {
            "emissiveFactor" : [
                1,
                1,
                1
            ],
            "emissiveTexture" : {
                "index" : 0
            },
            "name" : "acid.002",
            "pbrMetallicRoughness" : {
                "baseColorTexture" : {
                    "index" : 1
                },
                "metallicFactor" : 0
            }
        },
        {
            "name" : "Scene_Material0.002",
            "pbrMetallicRoughness" : {
                "baseColorTexture" : {
                    "index" : 2
                },
                "metallicFactor" : 0
            }
        }
    ],
    "meshes" : [
        {
            "name" : "collision_bldg_acid.002",
            "primitives" : [
                {
                    "attributes" : {
                        "POSITION" : 0,
                        "NORMAL" : 1,
                        "TEXCOORD_0" : 2
                    },
                    "indices" : 3,
                    "material" : 0
                }
            ]
        },
        {
            "name" : "hp_hanger2.002",
            "primitives" : [
                {
                    "attributes" : {
                        "POSITION" : 4,
                        "NORMAL" : 5,
                        "TEXCOORD_0" : 6
                    },
                    "indices" : 7,
                    "material" : 1
                }
            ]
        },
        {
            "name" : "hp_hanger3.002",
            "primitives" : [
                {
                    "attributes" : {
                        "POSITION" : 8,
                        "NORMAL" : 9,
                        "TEXCOORD_0" : 10
                    },
                    "indices" : 7,
                    "material" : 1
                }
            ]
        },
        {
            "name" : "hp_hanger4.002",
            "primitives" : [
                {
                    "attributes" : {
                        "POSITION" : 11,
                        "NORMAL" : 12,
                        "TEXCOORD_0" : 13
                    },
                    "indices" : 7,
                    "material" : 1
                }
            ]
        },
        {
            "name" : "hp_lava.002",
            "primitives" : [
                {
                    "attributes" : {
                        "POSITION" : 14,
                        "NORMAL" : 15,
                        "TEXCOORD_0" : 16
                    },
                    "indices" : 7,
                    "material" : 1
                }
            ]
        },
        {
            "name" : "hp_hanger1.002",
            "primitives" : [
                {
                    "attributes" : {
                        "POSITION" : 17,
                        "NORMAL" : 18,
                        "TEXCOORD_0" : 19
                    },
                    "indices" : 7,
                    "material" : 1
                }
            ]
        },
        {
            "name" : "bldg_acid.002",
            "primitives" : [
                {
                    "attributes" : {
                        "POSITION" : 20,
                        "NORMAL" : 21,
                        "TEXCOORD_0" : 22
                    },
                    "indices" : 3,
                    "material" : 0
                }
            ]
        }
    ],
    "textures" : [
        {
            "sampler" : 0,
            "source" : 0
        },
        {
            "sampler" : 0,
            "source" : 0
        },
        {
            "sampler" : 0,
            "source" : 1
        }
    ],
    "images" : [
        {
            "bufferView" : 4,
            "mimeType" : "image/png",
            "name" : "mus1_main_2.tga"
        },
        {
            "bufferView" : 9,
            "mimeType" : "image/png",
            "name" : "white.tga"
        }
    ],
    "accessors" : [
        {
            "bufferView" : 0,
            "componentType" : 5126,
            "count" : 8,
            "max" : [
                59.43600082397461,
                -11.081953048706055,
                -7.074687480926514
            ],
            "min" : [
                4.758173942565918,
                -12.362382888793945,
                -61.75251770019531
            ],
            "type" : "VEC3"
        },
        {
            "bufferView" : 1,
            "componentType" : 5126,
            "count" : 8,
            "type" : "VEC3"
        },
        {
            "bufferView" : 2,
            "componentType" : 5126,
            "count" : 8,
            "type" : "VEC2"
        },
        {
            "bufferView" : 3,
            "componentType" : 5123,
            "count" : 12,
            "type" : "SCALAR"
        },
        {
            "bufferView" : 5,
            "componentType" : 5126,
            "count" : 16,
            "max" : [
                0.8901734352111816,
                1.424277424812317,
                0.8901734352111816
            ],
            "min" : [
                -0.8901734352111816,
                -0.3560693562030792,
                -0.8901734352111816
            ],
            "type" : "VEC3"
        },
        {
            "bufferView" : 6,
            "componentType" : 5126,
            "count" : 16,
            "type" : "VEC3"
        },
        {
            "bufferView" : 7,
            "componentType" : 5126,
            "count" : 16,
            "type" : "VEC2"
        },
        {
            "bufferView" : 8,
            "componentType" : 5123,
            "count" : 18,
            "type" : "SCALAR"
        },
        {
            "bufferView" : 10,
            "componentType" : 5126,
            "count" : 16,
            "max" : [
                0.8901734352111816,
                1.8856981992721558,
                0.8901734352111816
            ],
            "min" : [
                -0.8901734352111816,
                0.10535138845443726,
                -0.8901734352111816
            ],
            "type" : "VEC3"
        },
        {
            "bufferView" : 11,
            "componentType" : 5126,
            "count" : 16,
            "type" : "VEC3"
        },
        {
            "bufferView" : 12,
            "componentType" : 5126,
            "count" : 16,
            "type" : "VEC2"
        },
        {
            "bufferView" : 13,
            "componentType" : 5126,
            "count" : 16,
            "max" : [
                0.8901734352111816,
                1.8856981992721558,
                0.8901734352111816
            ],
            "min" : [
                -0.8901734352111816,
                0.10535138845443726,
                -0.8901734352111816
            ],
            "type" : "VEC3"
        },
        {
            "bufferView" : 14,
            "componentType" : 5126,
            "count" : 16,
            "type" : "VEC3"
        },
        {
            "bufferView" : 15,
            "componentType" : 5126,
            "count" : 16,
            "type" : "VEC2"
        },
        {
            "bufferView" : 16,
            "componentType" : 5126,
            "count" : 16,
            "max" : [
                0.8901734352111816,
                1.424277424812317,
                0.8901734352111816
            ],
            "min" : [
                -0.8901734352111816,
                -0.3560693562030792,
                -0.8901734352111816
            ],
            "type" : "VEC3"
        },
        {
            "bufferView" : 17,
            "componentType" : 5126,
            "count" : 16,
            "type" : "VEC3"
        },
        {
            "bufferView" : 18,
            "componentType" : 5126,
            "count" : 16,
            "type" : "VEC2"
        },
        {
            "bufferView" : 19,
            "componentType" : 5126,
            "count" : 16,
            "max" : [
                0.8901734352111816,
                -1.3924773931503296,
                0.8901734352111816
            ],
            "min" : [
                -0.8901734352111816,
                -3.1728241443634033,
                -0.8901734352111816
            ],
            "type" : "VEC3"
        },
        {
            "bufferView" : 20,
            "componentType" : 5126,
            "count" : 16,
            "type" : "VEC3"
        },
        {
            "bufferView" : 21,
            "componentType" : 5126,
            "count" : 16,
            "type" : "VEC2"
        },
        {
            "bufferView" : 22,
            "componentType" : 5126,
            "count" : 8,
            "max" : [
                59.43600082397461,
                -11.081953048706055,
                -7.074687480926514
            ],
            "min" : [
                4.758173942565918,
                -12.362382888793945,
                -61.75251770019531
            ],
            "type" : "VEC3"
        },
        {
            "bufferView" : 23,
            "componentType" : 5126,
            "count" : 8,
            "type" : "VEC3"
        },
        {
            "bufferView" : 24,
            "componentType" : 5126,
            "count" : 8,
            "type" : "VEC2"
        }
    ],
    "bufferViews" : [
        {
            "buffer" : 0,
            "byteLength" : 96,
            "byteOffset" : 0
        },
        {
            "buffer" : 0,
            "byteLength" : 96,
            "byteOffset" : 96
        },
        {
            "buffer" : 0,
            "byteLength" : 64,
            "byteOffset" : 192
        },
        {
            "buffer" : 0,
            "byteLength" : 24,
            "byteOffset" : 256
        },
        {
            "buffer" : 0,
            "byteLength" : 351053,
            "byteOffset" : 280
        },
        {
            "buffer" : 0,
            "byteLength" : 192,
            "byteOffset" : 351336
        },
        {
            "buffer" : 0,
            "byteLength" : 192,
            "byteOffset" : 351528
        },
        {
            "buffer" : 0,
            "byteLength" : 128,
            "byteOffset" : 351720
        },
        {
            "buffer" : 0,
            "byteLength" : 36,
            "byteOffset" : 351848
        },
        {
            "buffer" : 0,
            "byteLength" : 336886,
            "byteOffset" : 351884
        },
        {
            "buffer" : 0,
            "byteLength" : 192,
            "byteOffset" : 688772
        },
        {
            "buffer" : 0,
            "byteLength" : 192,
            "byteOffset" : 688964
        },
        {
            "buffer" : 0,
            "byteLength" : 128,
            "byteOffset" : 689156
        },
        {
            "buffer" : 0,
            "byteLength" : 192,
            "byteOffset" : 689284
        },
        {
            "buffer" : 0,
            "byteLength" : 192,
            "byteOffset" : 689476
        },
        {
            "buffer" : 0,
            "byteLength" : 128,
            "byteOffset" : 689668
        },
        {
            "buffer" : 0,
            "byteLength" : 192,
            "byteOffset" : 689796
        },
        {
            "buffer" : 0,
            "byteLength" : 192,
            "byteOffset" : 689988
        },
        {
            "buffer" : 0,
            "byteLength" : 128,
            "byteOffset" : 690180
        },
        {
            "buffer" : 0,
            "byteLength" : 192,
            "byteOffset" : 690308
        },
        {
            "buffer" : 0,
            "byteLength" : 192,
            "byteOffset" : 690500
        },
        {
            "buffer" : 0,
            "byteLength" : 128,
            "byteOffset" : 690692
        },
        {
            "buffer" : 0,
            "byteLength" : 96,
            "byteOffset" : 690820
        },
        {
            "buffer" : 0,
            "byteLength" : 96,
            "byteOffset" : 690916
        },
        {
            "buffer" : 0,
            "byteLength" : 64,
            "byteOffset" : 691012
        }
    ],
    "samplers" : [
        {
            "magFilter" : 9729,
            "minFilter" : 9987
        }
    ],
    "buffers" : [
        {
            "byteLength" : 691076,
            "uri" : "data:application/octet-stream;base64,"
        }
    ]
}
