{
    "asset" : {
        "generator" : "Khronos glTF Blender I/O v1.7.33",
        "version" : "2.0"
    },
    "scene" : 0,
    "scenes" : [
        {
            "name" : "Scene",
            "nodes" : [
                3
            ]
        }
    ],
    "nodes" : [
        {
            "name" : "Texture_Support1092",
            "rotation" : [
                -0.7071068286895752,
                0,
                0,
                -0.7071068286895752
            ],
            "translation" : [
                0,
                4,
                0
            ]
        },
        {
            "children" : [
                0
            ],
            "mesh" : 0,
            "name" : "cube166",
            "rotation" : [
                0,
                0,
                0,
                -1
            ],
            "translation" : [
                -2.6290674209594727,
                -3.4943313598632812,
                -0.06075763702392578
            ]
        },
        {
            "mesh" : 1,
            "name" : "tube7",
            "rotation" : [
                0,
                0,
                0,
                -1
            ],
            "translation" : [
                -0.33911991119384766,
                5.464657783508301,
                0.4691486358642578
            ]
        },
        {
            "children" : [
                1,
                2
            ],
            "name" : "lab_tube_4_comp",
            "rotation" : [
                0,
                0,
                0,
                -1
            ]
        }
    ],
    "materials" : [
        {
            "name" : "Scene_Material342.001",
            "pbrMetallicRoughness" : {
                "baseColorTexture" : {
                    "index" : 0
                },
                "metallicFactor" : 0
            }
        },
        {
            "name" : "Material370.001",
            "pbrMetallicRoughness" : {
                "baseColorTexture" : {
                    "index" : 1
                },
                "metallicFactor" : 0
            }
        },
        {
            "alphaMode" : "BLEND",
            "name" : "polis_glass1.001",
            "pbrMetallicRoughness" : {
                "baseColorTexture" : {
                    "index" : 2
                },
                "metallicFactor" : 0
            }
        },
        {
            "name" : "lab_tuuube5",
            "pbrMetallicRoughness" : {
                "baseColorTexture" : {
                    "index" : 3
                },
                "metallicFactor" : 0
            }
        }
    ],
    "meshes" : [
        {
            "name" : "cube166",
            "primitives" : [
                {
                    "attributes" : {
                        "POSITION" : 0,
                        "NORMAL" : 1,
                        "TEXCOORD_0" : 2
                    },
                    "indices" : 3,
                    "material" : 0
                },
                {
                    "attributes" : {
                        "POSITION" : 4,
                        "NORMAL" : 5,
                        "TEXCOORD_0" : 6
                    },
                    "indices" : 7,
                    "material" : 1
                }
            ]
        },
        {
            "name" : "tube7",
            "primitives" : [
                {
                    "attributes" : {
                        "POSITION" : 8,
                        "NORMAL" : 9,
                        "TEXCOORD_0" : 10
                    },
                    "indices" : 11,
                    "material" : 2
                },
                {
                    "attributes" : {
                        "POSITION" : 12,
                        "NORMAL" : 13,
                        "TEXCOORD_0" : 14
                    },
                    "indices" : 15,
                    "material" : 3
                }
            ]
        }
    ],
    "textures" : [
        {
            "sampler" : 0,
            "source" : 0
        },
        {
            "sampler" : 0,
            "source" : 1
        },
        {
            "sampler" : 0,
            "source" : 2
        },
        {
            "sampler" : 0,
            "source" : 3
        }
    ],
    "images" : [
        {
            "bufferView" : 4,
            "mimeType" : "image/png",
            "name" : "white.tga"
        },
        {
            "bufferView" : 9,
            "mimeType" : "image/png",
            "name" : "spa1_prop_pipes1.tga"
        },
        {
            "bufferView" : 14,
            "mimeType" : "image/png",
            "name" : "Pol1_bldg_window.tga"
        },
        {
            "bufferView" : 19,
            "mimeType" : "image/png",
            "name" : "lab_tube_glass.tga"
        }
    ],
    "accessors" : [
        {
            "bufferView" : 0,
            "componentType" : 5126,
            "count" : 20,
            "max" : [
                4,
                4,
                5.800539970397949
            ],
            "min" : [
                -4,
                -4,
                -5.800539970397949
            ],
            "type" : "VEC3"
        },
        {
            "bufferView" : 1,
            "componentType" : 5126,
            "count" : 20,
            "type" : "VEC3"
        },
        {
            "bufferView" : 2,
            "componentType" : 5126,
            "count" : 20,
            "type" : "VEC2"
        },
        {
            "bufferView" : 3,
            "componentType" : 5123,
            "count" : 30,
            "type" : "SCALAR"
        },
        {
            "bufferView" : 5,
            "componentType" : 5126,
            "count" : 4,
            "max" : [
                4,
                4,
                5.800539970397949
            ],
            "min" : [
                -4,
                4,
                -5.800539970397949
            ],
            "type" : "VEC3"
        },
        {
            "bufferView" : 6,
            "componentType" : 5126,
            "count" : 4,
            "type" : "VEC3"
        },
        {
            "bufferView" : 7,
            "componentType" : 5126,
            "count" : 4,
            "type" : "VEC2"
        },
        {
            "bufferView" : 8,
            "componentType" : 5123,
            "count" : 6,
            "type" : "SCALAR"
        },
        {
            "bufferView" : 10,
            "componentType" : 5126,
            "count" : 93,
            "max" : [
                5.316661357879639,
                5.270587921142578,
                5.620262622833252
            ],
            "min" : [
                -6.322809219360352,
                -8.196563720703125,
                -6.479737758636475
            ],
            "type" : "VEC3"
        },
        {
            "bufferView" : 11,
            "componentType" : 5126,
            "count" : 93,
            "type" : "VEC3"
        },
        {
            "bufferView" : 12,
            "componentType" : 5126,
            "count" : 93,
            "type" : "VEC2"
        },
        {
            "bufferView" : 13,
            "componentType" : 5123,
            "count" : 156,
            "type" : "SCALAR"
        },
        {
            "bufferView" : 15,
            "componentType" : 5126,
            "count" : 214,
            "max" : [
                5.777190685272217,
                16.351655960083008,
                5.620262622833252
            ],
            "min" : [
                -6.322809219360352,
                -10.46129035949707,
                -6.479737758636475
            ],
            "type" : "VEC3"
        },
        {
            "bufferView" : 16,
            "componentType" : 5126,
            "count" : 214,
            "type" : "VEC3"
        },
        {
            "bufferView" : 17,
            "componentType" : 5126,
            "count" : 214,
            "type" : "VEC2"
        },
        {
            "bufferView" : 18,
            "componentType" : 5123,
            "count" : 330,
            "type" : "SCALAR"
        }
    ],
    "bufferViews" : [
        {
            "buffer" : 0,
            "byteLength" : 240,
            "byteOffset" : 0
        },
        {
            "buffer" : 0,
            "byteLength" : 240,
            "byteOffset" : 240
        },
        {
            "buffer" : 0,
            "byteLength" : 160,
            "byteOffset" : 480
        },
        {
            "buffer" : 0,
            "byteLength" : 60,
            "byteOffset" : 640
        },
        {
            "buffer" : 0,
            "byteLength" : 336886,
            "byteOffset" : 700
        },
        {
            "buffer" : 0,
            "byteLength" : 48,
            "byteOffset" : 337588
        },
        {
            "buffer" : 0,
            "byteLength" : 48,
            "byteOffset" : 337636
        },
        {
            "buffer" : 0,
            "byteLength" : 32,
            "byteOffset" : 337684
        },
        {
            "buffer" : 0,
            "byteLength" : 12,
            "byteOffset" : 337716
        },
        {
            "buffer" : 0,
            "byteLength" : 107374,
            "byteOffset" : 337728
        },
        {
            "buffer" : 0,
            "byteLength" : 1116,
            "byteOffset" : 445104
        },
        {
            "buffer" : 0,
            "byteLength" : 1116,
            "byteOffset" : 446220
        },
        {
            "buffer" : 0,
            "byteLength" : 744,
            "byteOffset" : 447336
        },
        {
            "buffer" : 0,
            "byteLength" : 312,
            "byteOffset" : 448080
        },
        {
            "buffer" : 0,
            "byteLength" : 540376,
            "byteOffset" : 448392
        },
        {
            "buffer" : 0,
            "byteLength" : 2568,
            "byteOffset" : 988768
        },
        {
            "buffer" : 0,
            "byteLength" : 2568,
            "byteOffset" : 991336
        },
        {
            "buffer" : 0,
            "byteLength" : 1712,
            "byteOffset" : 993904
        },
        {
            "buffer" : 0,
            "byteLength" : 660,
            "byteOffset" : 995616
        },
        {
            "buffer" : 0,
            "byteLength" : 415883,
            "byteOffset" : 996276
        }
    ],
    "samplers" : [
        {
            "magFilter" : 9729,
            "minFilter" : 9987
        }
    ],
    "buffers" : [
        {
            "byteLength" : 1412160,
            "uri" : "data:application/octet-stream;base64,"
        }
    ]
}
