{
    "asset" : {
        "generator" : "Khronos glTF Blender I/O v1.7.33",
        "version" : "2.0"
    },
    "scene" : 0,
    "scenes" : [
        {
            "name" : "Scene",
            "nodes" : [
                4
            ]
        }
    ],
    "nodes" : [
        {
            "mesh" : 0,
            "name" : "lab_wall1",
            "rotation" : [
                0,
                0,
                0,
                -1
            ],
            "translation" : [
                -101.50447082519531,
                7.633359909057617,
                1.842619776725769
            ]
        },
        {
            "mesh" : 1,
            "name" : "postern_doorway4",
            "rotation" : [
                0,
                0,
                0,
                -1
            ],
            "translation" : [
                2.2873034477233887,
                5.15633487701416,
                -3.829342842102051
            ]
        },
        {
            "name" : "Texture_Support1049",
            "rotation" : [
                0,
                0,
                0,
                -1
            ],
            "translation" : [
                -0.4582936763763428,
                -3.239901542663574,
                -0.15151318907737732
            ]
        },
        {
            "children" : [
                2
            ],
            "mesh" : 2,
            "name" : "postern_doorway5",
            "rotation" : [
                0,
                0,
                0,
                -1
            ],
            "translation" : [
                -8.415501594543457,
                10.72435474395752,
                -4.237939834594727
            ]
        },
        {
            "children" : [
                0,
                1,
                3
            ],
            "name" : "dummyroot_lab_wall1",
            "rotation" : [
                0,
                0,
                0,
                -1
            ]
        }
    ],
    "materials" : [
        {
            "name" : "Material2864",
            "pbrMetallicRoughness" : {
                "baseColorTexture" : {
                    "index" : 0
                },
                "metallicFactor" : 0
            }
        },
        {
            "name" : "newone",
            "pbrMetallicRoughness" : {
                "baseColorTexture" : {
                    "index" : 1
                },
                "metallicFactor" : 0
            }
        },
        {
            "name" : "newone1",
            "pbrMetallicRoughness" : {
                "baseColorTexture" : {
                    "index" : 2
                },
                "metallicFactor" : 0
            }
        }
    ],
    "meshes" : [
        {
            "name" : "lab_wall1",
            "primitives" : [
                {
                    "attributes" : {
                        "POSITION" : 0,
                        "NORMAL" : 1,
                        "TEXCOORD_0" : 2
                    },
                    "indices" : 3,
                    "material" : 0
                },
                {
                    "attributes" : {
                        "POSITION" : 4,
                        "NORMAL" : 5,
                        "TEXCOORD_0" : 6
                    },
                    "indices" : 7,
                    "material" : 1
                }
            ]
        },
        {
            "name" : "postern_doorway4",
            "primitives" : [
                {
                    "attributes" : {
                        "POSITION" : 8,
                        "NORMAL" : 9,
                        "TEXCOORD_0" : 10
                    },
                    "indices" : 11,
                    "material" : 2
                }
            ]
        },
        {
            "name" : "postern_doorway5",
            "primitives" : [
                {
                    "attributes" : {
                        "POSITION" : 12,
                        "NORMAL" : 13,
                        "TEXCOORD_0" : 14
                    },
                    "indices" : 15,
                    "material" : 2
                }
            ]
        }
    ],
    "textures" : [
        {
            "sampler" : 0,
            "source" : 0
        },
        {
            "sampler" : 0,
            "source" : 1
        },
        {
            "sampler" : 0,
            "source" : 1
        }
    ],
    "images" : [
        {
            "bufferView" : 4,
            "mimeType" : "image/png",
            "name" : "dea1_bldg_center_core_floor.tga"
        },
        {
            "bufferView" : 9,
            "mimeType" : "image/png",
            "name" : "deal1_bldg_reactor_room03.tga"
        }
    ],
    "accessors" : [
        {
            "bufferView" : 0,
            "componentType" : 5126,
            "count" : 12,
            "max" : [
                114.2399673461914,
                1.9570034742355347,
                -5.041440486907959
            ],
            "min" : [
                95.68354797363281,
                -5.632541656494141,
                -7.0829997062683105
            ],
            "type" : "VEC3"
        },
        {
            "bufferView" : 1,
            "componentType" : 5126,
            "count" : 12,
            "type" : "VEC3"
        },
        {
            "bufferView" : 2,
            "componentType" : 5126,
            "count" : 12,
            "type" : "VEC2"
        },
        {
            "bufferView" : 3,
            "componentType" : 5123,
            "count" : 18,
            "type" : "SCALAR"
        },
        {
            "bufferView" : 5,
            "componentType" : 5126,
            "count" : 262,
            "max" : [
                114.2399673461914,
                18.192920684814453,
                -5.041440486907959
            ],
            "min" : [
                95.68354797363281,
                -5.632541656494141,
                -7.0829997062683105
            ],
            "type" : "VEC3"
        },
        {
            "bufferView" : 6,
            "componentType" : 5126,
            "count" : 262,
            "type" : "VEC3"
        },
        {
            "bufferView" : 7,
            "componentType" : 5126,
            "count" : 262,
            "type" : "VEC2"
        },
        {
            "bufferView" : 8,
            "componentType" : 5123,
            "count" : 531,
            "type" : "SCALAR"
        },
        {
            "bufferView" : 10,
            "componentType" : 5126,
            "count" : 233,
            "max" : [
                3.341949462890625,
                21.291215896606445,
                0.3017600178718567
            ],
            "min" : [
                -3.120091199874878,
                -22.008655548095703,
                -0.6106976270675659
            ],
            "type" : "VEC3"
        },
        {
            "bufferView" : 11,
            "componentType" : 5126,
            "count" : 233,
            "type" : "VEC3"
        },
        {
            "bufferView" : 12,
            "componentType" : 5126,
            "count" : 233,
            "type" : "VEC2"
        },
        {
            "bufferView" : 13,
            "componentType" : 5123,
            "count" : 624,
            "type" : "SCALAR"
        },
        {
            "bufferView" : 14,
            "componentType" : 5126,
            "count" : 269,
            "max" : [
                2.5923542976379395,
                15.726669311523438,
                0.304715633392334
            ],
            "min" : [
                -3.508941650390625,
                -22.206472396850586,
                -0.6077420115470886
            ],
            "type" : "VEC3"
        },
        {
            "bufferView" : 15,
            "componentType" : 5126,
            "count" : 269,
            "type" : "VEC3"
        },
        {
            "bufferView" : 16,
            "componentType" : 5126,
            "count" : 269,
            "type" : "VEC2"
        },
        {
            "bufferView" : 17,
            "componentType" : 5123,
            "count" : 684,
            "type" : "SCALAR"
        }
    ],
    "bufferViews" : [
        {
            "buffer" : 0,
            "byteLength" : 144,
            "byteOffset" : 0
        },
        {
            "buffer" : 0,
            "byteLength" : 144,
            "byteOffset" : 144
        },
        {
            "buffer" : 0,
            "byteLength" : 96,
            "byteOffset" : 288
        },
        {
            "buffer" : 0,
            "byteLength" : 36,
            "byteOffset" : 384
        },
        {
            "buffer" : 0,
            "byteLength" : 82234,
            "byteOffset" : 420
        },
        {
            "buffer" : 0,
            "byteLength" : 3144,
            "byteOffset" : 82656
        },
        {
            "buffer" : 0,
            "byteLength" : 3144,
            "byteOffset" : 85800
        },
        {
            "buffer" : 0,
            "byteLength" : 2096,
            "byteOffset" : 88944
        },
        {
            "buffer" : 0,
            "byteLength" : 1062,
            "byteOffset" : 91040
        },
        {
            "buffer" : 0,
            "byteLength" : 257077,
            "byteOffset" : 92104
        },
        {
            "buffer" : 0,
            "byteLength" : 2796,
            "byteOffset" : 349184
        },
        {
            "buffer" : 0,
            "byteLength" : 2796,
            "byteOffset" : 351980
        },
        {
            "buffer" : 0,
            "byteLength" : 1864,
            "byteOffset" : 354776
        },
        {
            "buffer" : 0,
            "byteLength" : 1248,
            "byteOffset" : 356640
        },
        {
            "buffer" : 0,
            "byteLength" : 3228,
            "byteOffset" : 357888
        },
        {
            "buffer" : 0,
            "byteLength" : 3228,
            "byteOffset" : 361116
        },
        {
            "buffer" : 0,
            "byteLength" : 2152,
            "byteOffset" : 364344
        },
        {
            "buffer" : 0,
            "byteLength" : 1368,
            "byteOffset" : 366496
        }
    ],
    "samplers" : [
        {
            "magFilter" : 9729,
            "minFilter" : 9987
        }
    ],
    "buffers" : [
        {
            "byteLength" : 367864,
            "uri" : "data:application/octet-stream;base64,"
        }
    ]
}
