{
    "asset" : {
        "generator" : "Khronos glTF Blender I/O v1.7.33",
        "version" : "2.0"
    },
    "scene" : 0,
    "scenes" : [
        {
            "name" : "Scene",
            "nodes" : [
                3
            ]
        }
    ],
    "nodes" : [
        {
            "mesh" : 0,
            "name" : "cube167",
            "rotation" : [
                0,
                0,
                0,
                -1
            ],
            "translation" : [
                -1.5951156616210938,
                10.43954849243164,
                -0.9382076263427734
            ]
        },
        {
            "mesh" : 1,
            "name" : "polymsh75",
            "rotation" : [
                0,
                0,
                0,
                -1
            ],
            "translation" : [
                -4.758094787597656,
                3.293642997741699,
                -7.4265594482421875
            ]
        },
        {
            "mesh" : 2,
            "name" : "polymsh76",
            "rotation" : [
                0,
                0,
                0,
                -1
            ],
            "translation" : [
                -4.760231018066406,
                3.293642997741699,
                5.307409286499023
            ]
        },
        {
            "children" : [
                0,
                1,
                2
            ],
            "name" : "dummyroot-lab_hut",
            "rotation" : [
                0,
                0,
                0,
                -1
            ]
        }
    ],
    "materials" : [
        {
            "name" : "Material3120",
            "pbrMetallicRoughness" : {
                "baseColorTexture" : {
                    "index" : 0
                },
                "metallicFactor" : 0
            }
        },
        {
            "name" : "wii_dant_woodplankstwo_col40",
            "pbrMetallicRoughness" : {
                "baseColorTexture" : {
                    "index" : 1
                },
                "metallicFactor" : 0
            }
        },
        {
            "name" : "nicelightswall4",
            "pbrMetallicRoughness" : {
                "baseColorTexture" : {
                    "index" : 2
                },
                "metallicFactor" : 0
            }
        },
        {
            "name" : "greenlightswall2.001",
            "pbrMetallicRoughness" : {
                "baseColorTexture" : {
                    "index" : 3
                },
                "metallicFactor" : 0
            }
        }
    ],
    "meshes" : [
        {
            "name" : "cube167",
            "primitives" : [
                {
                    "attributes" : {
                        "POSITION" : 0,
                        "NORMAL" : 1,
                        "TEXCOORD_0" : 2
                    },
                    "indices" : 3,
                    "material" : 0
                },
                {
                    "attributes" : {
                        "POSITION" : 4,
                        "NORMAL" : 5,
                        "TEXCOORD_0" : 6
                    },
                    "indices" : 7,
                    "material" : 1
                }
            ]
        },
        {
            "name" : "polymsh75.001",
            "primitives" : [
                {
                    "attributes" : {
                        "POSITION" : 8,
                        "NORMAL" : 9,
                        "TEXCOORD_0" : 10
                    },
                    "indices" : 11,
                    "material" : 2
                },
                {
                    "attributes" : {
                        "POSITION" : 12,
                        "NORMAL" : 13,
                        "TEXCOORD_0" : 14
                    },
                    "indices" : 15,
                    "material" : 3
                }
            ]
        },
        {
            "name" : "polymsh76.001",
            "primitives" : [
                {
                    "attributes" : {
                        "POSITION" : 16,
                        "NORMAL" : 17,
                        "TEXCOORD_0" : 18
                    },
                    "indices" : 11,
                    "material" : 2
                },
                {
                    "attributes" : {
                        "POSITION" : 19,
                        "NORMAL" : 20,
                        "TEXCOORD_0" : 21
                    },
                    "indices" : 15,
                    "material" : 3
                }
            ]
        }
    ],
    "textures" : [
        {
            "sampler" : 0,
            "source" : 0
        },
        {
            "sampler" : 0,
            "source" : 1
        },
        {
            "sampler" : 0,
            "source" : 2
        },
        {
            "sampler" : 0,
            "source" : 3
        }
    ],
    "images" : [
        {
            "bufferView" : 4,
            "mimeType" : "image/png",
            "name" : "dea1_bldg_hanger_wallB.tga"
        },
        {
            "bufferView" : 9,
            "mimeType" : "image/png",
            "name" : "spa1_stardestroyer_floor2.tga"
        },
        {
            "bufferView" : 14,
            "mimeType" : "image/png",
            "name" : "dea1_bldg_main_wall_01.tga"
        },
        {
            "bufferView" : 19,
            "mimeType" : "image/png",
            "name" : "deal1_bldg_reactor_room02.tga"
        }
    ],
    "accessors" : [
        {
            "bufferView" : 0,
            "componentType" : 5126,
            "count" : 20,
            "max" : [
                11.132403373718262,
                21.23093032836914,
                7.079002380371094
            ],
            "min" : [
                -4,
                -4,
                -7.079002380371094
            ],
            "type" : "VEC3"
        },
        {
            "bufferView" : 1,
            "componentType" : 5126,
            "count" : 20,
            "type" : "VEC3"
        },
        {
            "bufferView" : 2,
            "componentType" : 5126,
            "count" : 20,
            "type" : "VEC2"
        },
        {
            "bufferView" : 3,
            "componentType" : 5123,
            "count" : 30,
            "type" : "SCALAR"
        },
        {
            "bufferView" : 5,
            "componentType" : 5126,
            "count" : 50,
            "max" : [
                4.159108638763428,
                -1.0233405828475952,
                7.079002380371094
            ],
            "min" : [
                -4,
                -4.970860958099365,
                -7.079002380371094
            ],
            "type" : "VEC3"
        },
        {
            "bufferView" : 6,
            "componentType" : 5126,
            "count" : 50,
            "type" : "VEC3"
        },
        {
            "bufferView" : 7,
            "componentType" : 5126,
            "count" : 50,
            "type" : "VEC2"
        },
        {
            "bufferView" : 8,
            "componentType" : 5123,
            "count" : 102,
            "type" : "SCALAR"
        },
        {
            "bufferView" : 10,
            "componentType" : 5126,
            "count" : 76,
            "max" : [
                0.5955756902694702,
                3.7175066471099854,
                0.6697085499763489
            ],
            "min" : [
                -0.5955756902694702,
                -7.846161842346191,
                -0.6697085499763489
            ],
            "type" : "VEC3"
        },
        {
            "bufferView" : 11,
            "componentType" : 5126,
            "count" : 76,
            "type" : "VEC3"
        },
        {
            "bufferView" : 12,
            "componentType" : 5126,
            "count" : 76,
            "type" : "VEC2"
        },
        {
            "bufferView" : 13,
            "componentType" : 5123,
            "count" : 132,
            "type" : "SCALAR"
        },
        {
            "bufferView" : 15,
            "componentType" : 5126,
            "count" : 16,
            "max" : [
                0.536019504070282,
                1.8600938320159912,
                0.6027374267578125
            ],
            "min" : [
                -0.536019504070282,
                -1.3027548789978027,
                -0.6027374267578125
            ],
            "type" : "VEC3"
        },
        {
            "bufferView" : 16,
            "componentType" : 5126,
            "count" : 16,
            "type" : "VEC3"
        },
        {
            "bufferView" : 17,
            "componentType" : 5126,
            "count" : 16,
            "type" : "VEC2"
        },
        {
            "bufferView" : 18,
            "componentType" : 5123,
            "count" : 24,
            "type" : "SCALAR"
        },
        {
            "bufferView" : 20,
            "componentType" : 5126,
            "count" : 76,
            "max" : [
                0.5955756902694702,
                3.7175066471099854,
                0.6697085499763489
            ],
            "min" : [
                -0.5955756902694702,
                -7.846161842346191,
                -0.6697085499763489
            ],
            "type" : "VEC3"
        },
        {
            "bufferView" : 21,
            "componentType" : 5126,
            "count" : 76,
            "type" : "VEC3"
        },
        {
            "bufferView" : 22,
            "componentType" : 5126,
            "count" : 76,
            "type" : "VEC2"
        },
        {
            "bufferView" : 23,
            "componentType" : 5126,
            "count" : 16,
            "max" : [
                0.536019504070282,
                1.8600938320159912,
                0.6027374267578125
            ],
            "min" : [
                -0.536019504070282,
                -1.3027548789978027,
                -0.6027374267578125
            ],
            "type" : "VEC3"
        },
        {
            "bufferView" : 24,
            "componentType" : 5126,
            "count" : 16,
            "type" : "VEC3"
        },
        {
            "bufferView" : 25,
            "componentType" : 5126,
            "count" : 16,
            "type" : "VEC2"
        }
    ],
    "bufferViews" : [
        {
            "buffer" : 0,
            "byteLength" : 240,
            "byteOffset" : 0
        },
        {
            "buffer" : 0,
            "byteLength" : 240,
            "byteOffset" : 240
        },
        {
            "buffer" : 0,
            "byteLength" : 160,
            "byteOffset" : 480
        },
        {
            "buffer" : 0,
            "byteLength" : 60,
            "byteOffset" : 640
        },
        {
            "buffer" : 0,
            "byteLength" : 365578,
            "byteOffset" : 700
        },
        {
            "buffer" : 0,
            "byteLength" : 600,
            "byteOffset" : 366280
        },
        {
            "buffer" : 0,
            "byteLength" : 600,
            "byteOffset" : 366880
        },
        {
            "buffer" : 0,
            "byteLength" : 400,
            "byteOffset" : 367480
        },
        {
            "buffer" : 0,
            "byteLength" : 204,
            "byteOffset" : 367880
        },
        {
            "buffer" : 0,
            "byteLength" : 75115,
            "byteOffset" : 368084
        },
        {
            "buffer" : 0,
            "byteLength" : 912,
            "byteOffset" : 443200
        },
        {
            "buffer" : 0,
            "byteLength" : 912,
            "byteOffset" : 444112
        },
        {
            "buffer" : 0,
            "byteLength" : 608,
            "byteOffset" : 445024
        },
        {
            "buffer" : 0,
            "byteLength" : 264,
            "byteOffset" : 445632
        },
        {
            "buffer" : 0,
            "byteLength" : 279504,
            "byteOffset" : 445896
        },
        {
            "buffer" : 0,
            "byteLength" : 192,
            "byteOffset" : 725400
        },
        {
            "buffer" : 0,
            "byteLength" : 192,
            "byteOffset" : 725592
        },
        {
            "buffer" : 0,
            "byteLength" : 128,
            "byteOffset" : 725784
        },
        {
            "buffer" : 0,
            "byteLength" : 48,
            "byteOffset" : 725912
        },
        {
            "buffer" : 0,
            "byteLength" : 206093,
            "byteOffset" : 725960
        },
        {
            "buffer" : 0,
            "byteLength" : 912,
            "byteOffset" : 932056
        },
        {
            "buffer" : 0,
            "byteLength" : 912,
            "byteOffset" : 932968
        },
        {
            "buffer" : 0,
            "byteLength" : 608,
            "byteOffset" : 933880
        },
        {
            "buffer" : 0,
            "byteLength" : 192,
            "byteOffset" : 934488
        },
        {
            "buffer" : 0,
            "byteLength" : 192,
            "byteOffset" : 934680
        },
        {
            "buffer" : 0,
            "byteLength" : 128,
            "byteOffset" : 934872
        }
    ],
    "samplers" : [
        {
            "magFilter" : 9729,
            "minFilter" : 9987
        }
    ],
    "buffers" : [
        {
            "byteLength" : 935000,
            "uri" : "data:application/octet-stream;base64,"
        }
    ]
}
