{
    "asset" : {
        "generator" : "Khronos glTF Blender I/O v1.7.33",
        "version" : "2.0"
    },
    "scene" : 0,
    "scenes" : [
        {
            "name" : "Scene",
            "nodes" : [
                6
            ]
        }
    ],
    "nodes" : [
        {
            "mesh" : 0,
            "name" : "polymsh1",
            "rotation" : [
                0,
                0,
                0,
                -1
            ],
            "translation" : [
                47.23149108886719,
                6.711965084075928,
                32.644290924072266
            ]
        },
        {
            "mesh" : 1,
            "name" : "polymsh75",
            "rotation" : [
                0,
                0,
                0,
                -1
            ],
            "translation" : [
                47.23149108886719,
                6.711965084075928,
                32.644290924072266
            ]
        },
        {
            "mesh" : 2,
            "name" : "polymsh76",
            "rotation" : [
                0,
                0,
                0,
                -1
            ],
            "translation" : [
                47.23149108886719,
                6.711965084075928,
                32.644290924072266
            ]
        },
        {
            "mesh" : 3,
            "name" : "polymsh77",
            "rotation" : [
                0,
                0,
                0,
                -1
            ],
            "translation" : [
                47.23149108886719,
                6.711965084075928,
                32.644290924072266
            ]
        },
        {
            "mesh" : 4,
            "name" : "polymsh78",
            "rotation" : [
                0,
                0,
                0,
                -1
            ],
            "translation" : [
                47.23149108886719,
                6.711965084075928,
                32.644290924072266
            ]
        },
        {
            "mesh" : 5,
            "name" : "polymsh79",
            "rotation" : [
                0,
                0,
                0,
                -1
            ],
            "translation" : [
                47.23149108886719,
                6.711965084075928,
                32.644290924072266
            ]
        },
        {
            "children" : [
                0,
                1,
                2,
                3,
                4,
                5
            ],
            "name" : "dummyroot_hangar_columns",
            "rotation" : [
                0,
                0,
                0,
                -1
            ]
        }
    ],
    "materials" : [
        {
            "alphaCutoff" : 0.5,
            "alphaMode" : "MASK",
            "doubleSided" : true,
            "name" : "rafter5.001",
            "pbrMetallicRoughness" : {
                "baseColorTexture" : {
                    "index" : 0
                },
                "metallicFactor" : 0
            }
        },
        {
            "name" : "nicelightswall2.001",
            "pbrMetallicRoughness" : {
                "baseColorTexture" : {
                    "index" : 1
                },
                "metallicFactor" : 0
            }
        }
    ],
    "meshes" : [
        {
            "name" : "polymsh1",
            "primitives" : [
                {
                    "attributes" : {
                        "POSITION" : 0,
                        "NORMAL" : 1,
                        "TEXCOORD_0" : 2
                    },
                    "indices" : 3,
                    "material" : 0
                },
                {
                    "attributes" : {
                        "POSITION" : 4,
                        "NORMAL" : 5,
                        "TEXCOORD_0" : 6
                    },
                    "indices" : 7,
                    "material" : 1
                }
            ]
        },
        {
            "name" : "polymsh75",
            "primitives" : [
                {
                    "attributes" : {
                        "POSITION" : 8,
                        "NORMAL" : 9,
                        "TEXCOORD_0" : 10
                    },
                    "indices" : 3,
                    "material" : 0
                },
                {
                    "attributes" : {
                        "POSITION" : 11,
                        "NORMAL" : 12,
                        "TEXCOORD_0" : 13
                    },
                    "indices" : 7,
                    "material" : 1
                }
            ]
        },
        {
            "name" : "polymsh76",
            "primitives" : [
                {
                    "attributes" : {
                        "POSITION" : 14,
                        "NORMAL" : 15,
                        "TEXCOORD_0" : 16
                    },
                    "indices" : 3,
                    "material" : 0
                },
                {
                    "attributes" : {
                        "POSITION" : 17,
                        "NORMAL" : 18,
                        "TEXCOORD_0" : 19
                    },
                    "indices" : 7,
                    "material" : 1
                }
            ]
        },
        {
            "name" : "polymsh77",
            "primitives" : [
                {
                    "attributes" : {
                        "POSITION" : 20,
                        "NORMAL" : 21,
                        "TEXCOORD_0" : 22
                    },
                    "indices" : 3,
                    "material" : 0
                },
                {
                    "attributes" : {
                        "POSITION" : 23,
                        "NORMAL" : 24,
                        "TEXCOORD_0" : 25
                    },
                    "indices" : 7,
                    "material" : 1
                }
            ]
        },
        {
            "name" : "polymsh78",
            "primitives" : [
                {
                    "attributes" : {
                        "POSITION" : 26,
                        "NORMAL" : 27,
                        "TEXCOORD_0" : 28
                    },
                    "indices" : 3,
                    "material" : 0
                },
                {
                    "attributes" : {
                        "POSITION" : 29,
                        "NORMAL" : 30,
                        "TEXCOORD_0" : 31
                    },
                    "indices" : 7,
                    "material" : 1
                }
            ]
        },
        {
            "name" : "polymsh79",
            "primitives" : [
                {
                    "attributes" : {
                        "POSITION" : 32,
                        "NORMAL" : 33,
                        "TEXCOORD_0" : 34
                    },
                    "indices" : 3,
                    "material" : 0
                },
                {
                    "attributes" : {
                        "POSITION" : 35,
                        "NORMAL" : 36,
                        "TEXCOORD_0" : 37
                    },
                    "indices" : 7,
                    "material" : 1
                }
            ]
        }
    ],
    "textures" : [
        {
            "sampler" : 0,
            "source" : 0
        },
        {
            "sampler" : 0,
            "source" : 1
        }
    ],
    "images" : [
        {
            "bufferView" : 4,
            "mimeType" : "image/png",
            "name" : "spa1_stardestroyer_rafter.tga"
        },
        {
            "bufferView" : 9,
            "mimeType" : "image/png",
            "name" : "dea1_bldg_main_wall_01.tga"
        }
    ],
    "accessors" : [
        {
            "bufferView" : 0,
            "componentType" : 5126,
            "count" : 16,
            "max" : [
                -38.4104118347168,
                5.131351470947266,
                -18.22028160095215
            ],
            "min" : [
                -39.74982833862305,
                -1.1943457126617432,
                -19.411436080932617
            ],
            "type" : "VEC3"
        },
        {
            "bufferView" : 1,
            "componentType" : 5126,
            "count" : 16,
            "type" : "VEC3"
        },
        {
            "bufferView" : 2,
            "componentType" : 5126,
            "count" : 16,
            "type" : "VEC2"
        },
        {
            "bufferView" : 3,
            "componentType" : 5123,
            "count" : 24,
            "type" : "SCALAR"
        },
        {
            "bufferView" : 5,
            "componentType" : 5126,
            "count" : 80,
            "max" : [
                -38.33599853515625,
                8.846177101135254,
                -18.15410804748535
            ],
            "min" : [
                -39.824241638183594,
                -14.281159400939941,
                -19.477609634399414
            ],
            "type" : "VEC3"
        },
        {
            "bufferView" : 6,
            "componentType" : 5126,
            "count" : 80,
            "type" : "VEC3"
        },
        {
            "bufferView" : 7,
            "componentType" : 5126,
            "count" : 80,
            "type" : "VEC2"
        },
        {
            "bufferView" : 8,
            "componentType" : 5123,
            "count" : 132,
            "type" : "SCALAR"
        },
        {
            "bufferView" : 10,
            "componentType" : 5126,
            "count" : 16,
            "max" : [
                -45.96470260620117,
                5.131351470947266,
                -18.22028160095215
            ],
            "min" : [
                -47.30411911010742,
                -1.1943457126617432,
                -19.411436080932617
            ],
            "type" : "VEC3"
        },
        {
            "bufferView" : 11,
            "componentType" : 5126,
            "count" : 16,
            "type" : "VEC3"
        },
        {
            "bufferView" : 12,
            "componentType" : 5126,
            "count" : 16,
            "type" : "VEC2"
        },
        {
            "bufferView" : 13,
            "componentType" : 5126,
            "count" : 80,
            "max" : [
                -45.890289306640625,
                8.846177101135254,
                -18.15410804748535
            ],
            "min" : [
                -47.3785285949707,
                -14.281159400939941,
                -19.477609634399414
            ],
            "type" : "VEC3"
        },
        {
            "bufferView" : 14,
            "componentType" : 5126,
            "count" : 80,
            "type" : "VEC3"
        },
        {
            "bufferView" : 15,
            "componentType" : 5126,
            "count" : 80,
            "type" : "VEC2"
        },
        {
            "bufferView" : 16,
            "componentType" : 5126,
            "count" : 16,
            "max" : [
                -54.047821044921875,
                5.131351470947266,
                -18.22028160095215
            ],
            "min" : [
                -55.387237548828125,
                -1.1943457126617432,
                -19.411436080932617
            ],
            "type" : "VEC3"
        },
        {
            "bufferView" : 17,
            "componentType" : 5126,
            "count" : 16,
            "type" : "VEC3"
        },
        {
            "bufferView" : 18,
            "componentType" : 5126,
            "count" : 16,
            "type" : "VEC2"
        },
        {
            "bufferView" : 19,
            "componentType" : 5126,
            "count" : 80,
            "max" : [
                -53.97340774536133,
                8.846177101135254,
                -18.15410804748535
            ],
            "min" : [
                -55.46165084838867,
                -14.281159400939941,
                -19.477609634399414
            ],
            "type" : "VEC3"
        },
        {
            "bufferView" : 20,
            "componentType" : 5126,
            "count" : 80,
            "type" : "VEC3"
        },
        {
            "bufferView" : 21,
            "componentType" : 5126,
            "count" : 80,
            "type" : "VEC2"
        },
        {
            "bufferView" : 22,
            "componentType" : 5126,
            "count" : 16,
            "max" : [
                -38.4104118347168,
                5.131351470947266,
                -46.619693756103516
            ],
            "min" : [
                -39.74982833862305,
                -1.1943457126617432,
                -47.810848236083984
            ],
            "type" : "VEC3"
        },
        {
            "bufferView" : 23,
            "componentType" : 5126,
            "count" : 16,
            "type" : "VEC3"
        },
        {
            "bufferView" : 24,
            "componentType" : 5126,
            "count" : 16,
            "type" : "VEC2"
        },
        {
            "bufferView" : 25,
            "componentType" : 5126,
            "count" : 80,
            "max" : [
                -38.33599853515625,
                8.846177101135254,
                -46.55352020263672
            ],
            "min" : [
                -39.824241638183594,
                -14.281159400939941,
                -47.87702178955078
            ],
            "type" : "VEC3"
        },
        {
            "bufferView" : 26,
            "componentType" : 5126,
            "count" : 80,
            "type" : "VEC3"
        },
        {
            "bufferView" : 27,
            "componentType" : 5126,
            "count" : 80,
            "type" : "VEC2"
        },
        {
            "bufferView" : 28,
            "componentType" : 5126,
            "count" : 16,
            "max" : [
                -45.96470260620117,
                5.131351470947266,
                -46.619693756103516
            ],
            "min" : [
                -47.30411911010742,
                -1.1943457126617432,
                -47.810848236083984
            ],
            "type" : "VEC3"
        },
        {
            "bufferView" : 29,
            "componentType" : 5126,
            "count" : 16,
            "type" : "VEC3"
        },
        {
            "bufferView" : 30,
            "componentType" : 5126,
            "count" : 16,
            "type" : "VEC2"
        },
        {
            "bufferView" : 31,
            "componentType" : 5126,
            "count" : 80,
            "max" : [
                -45.890289306640625,
                8.846177101135254,
                -46.55352020263672
            ],
            "min" : [
                -47.3785285949707,
                -14.281159400939941,
                -47.87702178955078
            ],
            "type" : "VEC3"
        },
        {
            "bufferView" : 32,
            "componentType" : 5126,
            "count" : 80,
            "type" : "VEC3"
        },
        {
            "bufferView" : 33,
            "componentType" : 5126,
            "count" : 80,
            "type" : "VEC2"
        },
        {
            "bufferView" : 34,
            "componentType" : 5126,
            "count" : 16,
            "max" : [
                -54.047821044921875,
                5.131351470947266,
                -46.619693756103516
            ],
            "min" : [
                -55.387237548828125,
                -1.1943457126617432,
                -47.810848236083984
            ],
            "type" : "VEC3"
        },
        {
            "bufferView" : 35,
            "componentType" : 5126,
            "count" : 16,
            "type" : "VEC3"
        },
        {
            "bufferView" : 36,
            "componentType" : 5126,
            "count" : 16,
            "type" : "VEC2"
        },
        {
            "bufferView" : 37,
            "componentType" : 5126,
            "count" : 80,
            "max" : [
                -53.97340774536133,
                8.846177101135254,
                -46.55352020263672
            ],
            "min" : [
                -55.46165084838867,
                -14.281159400939941,
                -47.87702178955078
            ],
            "type" : "VEC3"
        },
        {
            "bufferView" : 38,
            "componentType" : 5126,
            "count" : 80,
            "type" : "VEC3"
        },
        {
            "bufferView" : 39,
            "componentType" : 5126,
            "count" : 80,
            "type" : "VEC2"
        }
    ],
    "bufferViews" : [
        {
            "buffer" : 0,
            "byteLength" : 192,
            "byteOffset" : 0
        },
        {
            "buffer" : 0,
            "byteLength" : 192,
            "byteOffset" : 192
        },
        {
            "buffer" : 0,
            "byteLength" : 128,
            "byteOffset" : 384
        },
        {
            "buffer" : 0,
            "byteLength" : 48,
            "byteOffset" : 512
        },
        {
            "buffer" : 0,
            "byteLength" : 117401,
            "byteOffset" : 560
        },
        {
            "buffer" : 0,
            "byteLength" : 960,
            "byteOffset" : 117964
        },
        {
            "buffer" : 0,
            "byteLength" : 960,
            "byteOffset" : 118924
        },
        {
            "buffer" : 0,
            "byteLength" : 640,
            "byteOffset" : 119884
        },
        {
            "buffer" : 0,
            "byteLength" : 264,
            "byteOffset" : 120524
        },
        {
            "buffer" : 0,
            "byteLength" : 279504,
            "byteOffset" : 120788
        },
        {
            "buffer" : 0,
            "byteLength" : 192,
            "byteOffset" : 400292
        },
        {
            "buffer" : 0,
            "byteLength" : 192,
            "byteOffset" : 400484
        },
        {
            "buffer" : 0,
            "byteLength" : 128,
            "byteOffset" : 400676
        },
        {
            "buffer" : 0,
            "byteLength" : 960,
            "byteOffset" : 400804
        },
        {
            "buffer" : 0,
            "byteLength" : 960,
            "byteOffset" : 401764
        },
        {
            "buffer" : 0,
            "byteLength" : 640,
            "byteOffset" : 402724
        },
        {
            "buffer" : 0,
            "byteLength" : 192,
            "byteOffset" : 403364
        },
        {
            "buffer" : 0,
            "byteLength" : 192,
            "byteOffset" : 403556
        },
        {
            "buffer" : 0,
            "byteLength" : 128,
            "byteOffset" : 403748
        },
        {
            "buffer" : 0,
            "byteLength" : 960,
            "byteOffset" : 403876
        },
        {
            "buffer" : 0,
            "byteLength" : 960,
            "byteOffset" : 404836
        },
        {
            "buffer" : 0,
            "byteLength" : 640,
            "byteOffset" : 405796
        },
        {
            "buffer" : 0,
            "byteLength" : 192,
            "byteOffset" : 406436
        },
        {
            "buffer" : 0,
            "byteLength" : 192,
            "byteOffset" : 406628
        },
        {
            "buffer" : 0,
            "byteLength" : 128,
            "byteOffset" : 406820
        },
        {
            "buffer" : 0,
            "byteLength" : 960,
            "byteOffset" : 406948
        },
        {
            "buffer" : 0,
            "byteLength" : 960,
            "byteOffset" : 407908
        },
        {
            "buffer" : 0,
            "byteLength" : 640,
            "byteOffset" : 408868
        },
        {
            "buffer" : 0,
            "byteLength" : 192,
            "byteOffset" : 409508
        },
        {
            "buffer" : 0,
            "byteLength" : 192,
            "byteOffset" : 409700
        },
        {
            "buffer" : 0,
            "byteLength" : 128,
            "byteOffset" : 409892
        },
        {
            "buffer" : 0,
            "byteLength" : 960,
            "byteOffset" : 410020
        },
        {
            "buffer" : 0,
            "byteLength" : 960,
            "byteOffset" : 410980
        },
        {
            "buffer" : 0,
            "byteLength" : 640,
            "byteOffset" : 411940
        },
        {
            "buffer" : 0,
            "byteLength" : 192,
            "byteOffset" : 412580
        },
        {
            "buffer" : 0,
            "byteLength" : 192,
            "byteOffset" : 412772
        },
        {
            "buffer" : 0,
            "byteLength" : 128,
            "byteOffset" : 412964
        },
        {
            "buffer" : 0,
            "byteLength" : 960,
            "byteOffset" : 413092
        },
        {
            "buffer" : 0,
            "byteLength" : 960,
            "byteOffset" : 414052
        },
        {
            "buffer" : 0,
            "byteLength" : 640,
            "byteOffset" : 415012
        }
    ],
    "samplers" : [
        {
            "magFilter" : 9729,
            "minFilter" : 9987
        }
    ],
    "buffers" : [
        {
            "byteLength" : 415652,
            "uri" : "data:application/octet-stream;base64,"
        }
    ]
}
