{
    "asset" : {
        "generator" : "Khronos glTF Blender I/O v1.7.33",
        "version" : "2.0"
    },
    "scene" : 0,
    "scenes" : [
        {
            "name" : "Scene",
            "nodes" : [
                6
            ]
        }
    ],
    "nodes" : [
        {
            "mesh" : 0,
            "name" : "cylinder",
            "rotation" : [
                0.7071068286895752,
                0,
                0,
                -0.7071068286895752
            ],
            "translation" : [
                16.000900268554688,
                6.939775466918945,
                13.586119651794434
            ]
        },
        {
            "mesh" : 1,
            "name" : "cylinder2",
            "rotation" : [
                0.5,
                -0.5,
                -0.5,
                -0.5
            ],
            "translation" : [
                13.805827140808105,
                6.939775466918945,
                -0.012232604436576366
            ]
        },
        {
            "mesh" : 2,
            "name" : "cylinder3",
            "rotation" : [
                0.7071068286895752,
                0,
                0,
                -0.7071068286895752
            ],
            "translation" : [
                16.000900268554688,
                6.939775466918945,
                13.586119651794434
            ]
        },
        {
            "mesh" : 3,
            "name" : "cylinder4",
            "rotation" : [
                0.5,
                -0.5,
                -0.5,
                -0.5
            ],
            "translation" : [
                13.805827140808105,
                6.939775466918945,
                -0.012232604436576366
            ]
        },
        {
            "mesh" : 4,
            "name" : "cylinder5",
            "rotation" : [
                0.7071068286895752,
                0,
                0,
                -0.7071068286895752
            ],
            "translation" : [
                -16.177305221557617,
                6.939775466918945,
                -2.222578763961792
            ]
        },
        {
            "mesh" : 5,
            "name" : "cylinder6",
            "rotation" : [
                0.7071068286895752,
                0,
                0,
                -0.7071068286895752
            ],
            "translation" : [
                -16.177305221557617,
                6.939775466918945,
                -2.222578763961792
            ]
        },
        {
            "children" : [
                0,
                1,
                2,
                3,
                4,
                5
            ],
            "name" : "dummyr_roof",
            "rotation" : [
                0,
                0,
                0,
                -1
            ]
        }
    ],
    "materials" : [
        {
            "name" : "Material3177",
            "pbrMetallicRoughness" : {
                "baseColorTexture" : {
                    "index" : 0
                },
                "metallicFactor" : 0
            }
        },
        {
            "doubleSided" : true,
            "name" : "Scene_Material372",
            "pbrMetallicRoughness" : {
                "baseColorFactor" : [
                    0.800000011920929,
                    0.800000011920929,
                    0.800000011920929,
                    1
                ],
                "metallicFactor" : 0,
                "roughnessFactor" : 0.4000000059604645
            }
        }
    ],
    "meshes" : [
        {
            "name" : "cylinder.001",
            "primitives" : [
                {
                    "attributes" : {
                        "POSITION" : 0,
                        "NORMAL" : 1,
                        "TEXCOORD_0" : 2
                    },
                    "indices" : 3,
                    "material" : 0
                }
            ]
        },
        {
            "name" : "cylinder2",
            "primitives" : [
                {
                    "attributes" : {
                        "POSITION" : 4,
                        "NORMAL" : 5,
                        "TEXCOORD_0" : 6
                    },
                    "indices" : 7,
                    "material" : 0
                }
            ]
        },
        {
            "name" : "cylinder3.001",
            "primitives" : [
                {
                    "attributes" : {
                        "POSITION" : 8,
                        "NORMAL" : 9,
                        "TEXCOORD_0" : 10
                    },
                    "indices" : 11,
                    "material" : 0
                }
            ]
        },
        {
            "name" : "cylinder4.001",
            "primitives" : [
                {
                    "attributes" : {
                        "POSITION" : 12,
                        "NORMAL" : 13,
                        "TEXCOORD_0" : 14
                    },
                    "indices" : 15,
                    "material" : 0
                }
            ]
        },
        {
            "name" : "cylinder5.001",
            "primitives" : [
                {
                    "attributes" : {
                        "POSITION" : 16,
                        "NORMAL" : 17,
                        "TEXCOORD_0" : 18
                    },
                    "indices" : 19,
                    "material" : 0
                },
                {
                    "attributes" : {
                        "POSITION" : 20,
                        "NORMAL" : 21,
                        "TEXCOORD_0" : 22
                    },
                    "indices" : 23,
                    "material" : 1
                }
            ]
        },
        {
            "name" : "cylinder6.001",
            "primitives" : [
                {
                    "attributes" : {
                        "POSITION" : 24,
                        "NORMAL" : 25,
                        "TEXCOORD_0" : 26
                    },
                    "indices" : 27,
                    "material" : 0
                },
                {
                    "attributes" : {
                        "POSITION" : 28,
                        "NORMAL" : 29,
                        "TEXCOORD_0" : 30
                    },
                    "indices" : 23,
                    "material" : 1
                }
            ]
        }
    ],
    "textures" : [
        {
            "sampler" : 0,
            "source" : 0
        }
    ],
    "images" : [
        {
            "bufferView" : 4,
            "mimeType" : "image/png",
            "name" : "Pol1_bldg_window.tga"
        }
    ],
    "accessors" : [
        {
            "bufferView" : 0,
            "componentType" : 5126,
            "count" : 55,
            "max" : [
                7.391036033630371,
                21.525787353515625,
                8
            ],
            "min" : [
                -7.391036033630371,
                -21.525787353515625,
                0
            ],
            "type" : "VEC3"
        },
        {
            "bufferView" : 1,
            "componentType" : 5126,
            "count" : 55,
            "type" : "VEC3"
        },
        {
            "bufferView" : 2,
            "componentType" : 5126,
            "count" : 55,
            "type" : "VEC2"
        },
        {
            "bufferView" : 3,
            "componentType" : 5123,
            "count" : 156,
            "type" : "SCALAR"
        },
        {
            "bufferView" : 5,
            "componentType" : 5126,
            "count" : 31,
            "max" : [
                7.391036033630371,
                29.845233917236328,
                8
            ],
            "min" : [
                -7.391036033630371,
                -2.215020179748535,
                -9.236441127181364e-16
            ],
            "type" : "VEC3"
        },
        {
            "bufferView" : 6,
            "componentType" : 5126,
            "count" : 31,
            "type" : "VEC3"
        },
        {
            "bufferView" : 7,
            "componentType" : 5126,
            "count" : 31,
            "type" : "VEC2"
        },
        {
            "bufferView" : 8,
            "componentType" : 5123,
            "count" : 84,
            "type" : "SCALAR"
        },
        {
            "bufferView" : 9,
            "componentType" : 5126,
            "count" : 55,
            "max" : [
                7.391036033630371,
                21.525787353515625,
                8
            ],
            "min" : [
                -7.391036033630371,
                -21.525787353515625,
                0
            ],
            "type" : "VEC3"
        },
        {
            "bufferView" : 10,
            "componentType" : 5126,
            "count" : 55,
            "type" : "VEC3"
        },
        {
            "bufferView" : 11,
            "componentType" : 5126,
            "count" : 55,
            "type" : "VEC2"
        },
        {
            "bufferView" : 12,
            "componentType" : 5123,
            "count" : 156,
            "type" : "SCALAR"
        },
        {
            "bufferView" : 13,
            "componentType" : 5126,
            "count" : 31,
            "max" : [
                7.391036033630371,
                29.845233917236328,
                8
            ],
            "min" : [
                -7.391036033630371,
                -2.215020179748535,
                -9.236441127181364e-16
            ],
            "type" : "VEC3"
        },
        {
            "bufferView" : 14,
            "componentType" : 5126,
            "count" : 31,
            "type" : "VEC3"
        },
        {
            "bufferView" : 15,
            "componentType" : 5126,
            "count" : 31,
            "type" : "VEC2"
        },
        {
            "bufferView" : 16,
            "componentType" : 5123,
            "count" : 84,
            "type" : "SCALAR"
        },
        {
            "bufferView" : 17,
            "componentType" : 5126,
            "count" : 54,
            "max" : [
                7.391036033630371,
                11.061477661132812,
                8
            ],
            "min" : [
                -7.391036033630371,
                -11.061477661132812,
                0
            ],
            "type" : "VEC3"
        },
        {
            "bufferView" : 18,
            "componentType" : 5126,
            "count" : 54,
            "type" : "VEC3"
        },
        {
            "bufferView" : 19,
            "componentType" : 5126,
            "count" : 54,
            "type" : "VEC2"
        },
        {
            "bufferView" : 20,
            "componentType" : 5123,
            "count" : 180,
            "type" : "SCALAR"
        },
        {
            "bufferView" : 21,
            "componentType" : 5126,
            "count" : 32,
            "max" : [
                7.391036033630371,
                11.061477661132812,
                3.061467409133911
            ],
            "min" : [
                -7.391036033630371,
                -11.061477661132812,
                -3.7286455631256104
            ],
            "type" : "VEC3"
        },
        {
            "bufferView" : 22,
            "componentType" : 5126,
            "count" : 32,
            "type" : "VEC3"
        },
        {
            "bufferView" : 23,
            "componentType" : 5126,
            "count" : 32,
            "type" : "VEC2"
        },
        {
            "bufferView" : 24,
            "componentType" : 5123,
            "count" : 72,
            "type" : "SCALAR"
        },
        {
            "bufferView" : 25,
            "componentType" : 5126,
            "count" : 54,
            "max" : [
                7.391036033630371,
                11.061477661132812,
                8
            ],
            "min" : [
                -7.391036033630371,
                -11.061477661132812,
                0
            ],
            "type" : "VEC3"
        },
        {
            "bufferView" : 26,
            "componentType" : 5126,
            "count" : 54,
            "type" : "VEC3"
        },
        {
            "bufferView" : 27,
            "componentType" : 5126,
            "count" : 54,
            "type" : "VEC2"
        },
        {
            "bufferView" : 28,
            "componentType" : 5123,
            "count" : 180,
            "type" : "SCALAR"
        },
        {
            "bufferView" : 29,
            "componentType" : 5126,
            "count" : 32,
            "max" : [
                7.391036033630371,
                11.061477661132812,
                3.061467409133911
            ],
            "min" : [
                -7.391036033630371,
                -11.061477661132812,
                -3.7286455631256104
            ],
            "type" : "VEC3"
        },
        {
            "bufferView" : 30,
            "componentType" : 5126,
            "count" : 32,
            "type" : "VEC3"
        },
        {
            "bufferView" : 31,
            "componentType" : 5126,
            "count" : 32,
            "type" : "VEC2"
        }
    ],
    "bufferViews" : [
        {
            "buffer" : 0,
            "byteLength" : 660,
            "byteOffset" : 0
        },
        {
            "buffer" : 0,
            "byteLength" : 660,
            "byteOffset" : 660
        },
        {
            "buffer" : 0,
            "byteLength" : 440,
            "byteOffset" : 1320
        },
        {
            "buffer" : 0,
            "byteLength" : 312,
            "byteOffset" : 1760
        },
        {
            "buffer" : 0,
            "byteLength" : 540376,
            "byteOffset" : 2072
        },
        {
            "buffer" : 0,
            "byteLength" : 372,
            "byteOffset" : 542448
        },
        {
            "buffer" : 0,
            "byteLength" : 372,
            "byteOffset" : 542820
        },
        {
            "buffer" : 0,
            "byteLength" : 248,
            "byteOffset" : 543192
        },
        {
            "buffer" : 0,
            "byteLength" : 168,
            "byteOffset" : 543440
        },
        {
            "buffer" : 0,
            "byteLength" : 660,
            "byteOffset" : 543608
        },
        {
            "buffer" : 0,
            "byteLength" : 660,
            "byteOffset" : 544268
        },
        {
            "buffer" : 0,
            "byteLength" : 440,
            "byteOffset" : 544928
        },
        {
            "buffer" : 0,
            "byteLength" : 312,
            "byteOffset" : 545368
        },
        {
            "buffer" : 0,
            "byteLength" : 372,
            "byteOffset" : 545680
        },
        {
            "buffer" : 0,
            "byteLength" : 372,
            "byteOffset" : 546052
        },
        {
            "buffer" : 0,
            "byteLength" : 248,
            "byteOffset" : 546424
        },
        {
            "buffer" : 0,
            "byteLength" : 168,
            "byteOffset" : 546672
        },
        {
            "buffer" : 0,
            "byteLength" : 648,
            "byteOffset" : 546840
        },
        {
            "buffer" : 0,
            "byteLength" : 648,
            "byteOffset" : 547488
        },
        {
            "buffer" : 0,
            "byteLength" : 432,
            "byteOffset" : 548136
        },
        {
            "buffer" : 0,
            "byteLength" : 360,
            "byteOffset" : 548568
        },
        {
            "buffer" : 0,
            "byteLength" : 384,
            "byteOffset" : 548928
        },
        {
            "buffer" : 0,
            "byteLength" : 384,
            "byteOffset" : 549312
        },
        {
            "buffer" : 0,
            "byteLength" : 256,
            "byteOffset" : 549696
        },
        {
            "buffer" : 0,
            "byteLength" : 144,
            "byteOffset" : 549952
        },
        {
            "buffer" : 0,
            "byteLength" : 648,
            "byteOffset" : 550096
        },
        {
            "buffer" : 0,
            "byteLength" : 648,
            "byteOffset" : 550744
        },
        {
            "buffer" : 0,
            "byteLength" : 432,
            "byteOffset" : 551392
        },
        {
            "buffer" : 0,
            "byteLength" : 360,
            "byteOffset" : 551824
        },
        {
            "buffer" : 0,
            "byteLength" : 384,
            "byteOffset" : 552184
        },
        {
            "buffer" : 0,
            "byteLength" : 384,
            "byteOffset" : 552568
        },
        {
            "buffer" : 0,
            "byteLength" : 256,
            "byteOffset" : 552952
        }
    ],
    "samplers" : [
        {
            "magFilter" : 9729,
            "minFilter" : 9987
        }
    ],
    "buffers" : [
        {
            "byteLength" : 553208,
            "uri" : "data:application/octet-stream;base64,"
        }
    ]
}
