{
    "asset" : {
        "generator" : "Khronos glTF Blender I/O v1.7.33",
        "version" : "2.0"
    },
    "scene" : 0,
    "scenes" : [
        {
            "name" : "Scene",
            "nodes" : [
                2
            ]
        }
    ],
    "nodes" : [
        {
            "mesh" : 0,
            "name" : "polymsh_detached",
            "rotation" : [
                0,
                0,
                0,
                -1
            ],
            "translation" : [
                12.070086479187012,
                0,
                -18.301607131958008
            ]
        },
        {
            "mesh" : 1,
            "name" : "polymsh_detached46",
            "rotation" : [
                0,
                0,
                0,
                -1
            ],
            "translation" : [
                12.070086479187012,
                0,
                -18.301607131958008
            ]
        },
        {
            "children" : [
                0,
                1
            ],
            "name" : "dummyr_floor5",
            "rotation" : [
                0,
                0,
                0,
                -1
            ]
        }
    ],
    "materials" : [
        {
            "name" : "Material3157",
            "pbrMetallicRoughness" : {
                "baseColorTexture" : {
                    "index" : 0
                },
                "metallicFactor" : 0
            }
        },
        {
            "name" : "Material3156",
            "pbrMetallicRoughness" : {
                "baseColorTexture" : {
                    "index" : 1
                },
                "metallicFactor" : 0
            }
        },
        {
            "name" : "Material3158",
            "pbrMetallicRoughness" : {
                "baseColorTexture" : {
                    "index" : 2
                },
                "metallicFactor" : 0
            }
        }
    ],
    "meshes" : [
        {
            "name" : "polymsh_detached",
            "primitives" : [
                {
                    "attributes" : {
                        "POSITION" : 0,
                        "NORMAL" : 1,
                        "TEXCOORD_0" : 2
                    },
                    "indices" : 3,
                    "material" : 0
                },
                {
                    "attributes" : {
                        "POSITION" : 4,
                        "NORMAL" : 5,
                        "TEXCOORD_0" : 6
                    },
                    "indices" : 7,
                    "material" : 0
                }
            ]
        },
        {
            "name" : "polymsh_detached46",
            "primitives" : [
                {
                    "attributes" : {
                        "POSITION" : 8,
                        "NORMAL" : 9,
                        "TEXCOORD_0" : 10
                    },
                    "indices" : 11,
                    "material" : 0
                },
                {
                    "attributes" : {
                        "POSITION" : 12,
                        "NORMAL" : 13,
                        "TEXCOORD_0" : 14
                    },
                    "indices" : 15,
                    "material" : 1
                },
                {
                    "attributes" : {
                        "POSITION" : 16,
                        "NORMAL" : 17,
                        "TEXCOORD_0" : 18
                    },
                    "indices" : 19,
                    "material" : 1
                },
                {
                    "attributes" : {
                        "POSITION" : 20,
                        "NORMAL" : 21,
                        "TEXCOORD_0" : 22
                    },
                    "indices" : 23,
                    "material" : 1
                },
                {
                    "attributes" : {
                        "POSITION" : 24,
                        "NORMAL" : 25,
                        "TEXCOORD_0" : 26
                    },
                    "indices" : 27,
                    "material" : 2
                }
            ]
        }
    ],
    "textures" : [
        {
            "sampler" : 0,
            "source" : 0
        },
        {
            "sampler" : 0,
            "source" : 1
        },
        {
            "sampler" : 0,
            "source" : 2
        }
    ],
    "images" : [
        {
            "bufferView" : 4,
            "mimeType" : "image/png",
            "name" : "spa1_weap_moncal_blistercannon.tga"
        },
        {
            "bufferView" : 17,
            "mimeType" : "image/png",
            "name" : "spa1_bldg_moncal_floor1.tga"
        },
        {
            "bufferView" : 30,
            "mimeType" : "image/png",
            "name" : "spa_prop_damage1"
        }
    ],
    "accessors" : [
        {
            "bufferView" : 0,
            "componentType" : 5126,
            "count" : 16,
            "max" : [
                -16.01622772216797,
                2,
                32.95445251464844
            ],
            "min" : [
                -20.01622772216797,
                -2.3796138763427734,
                30.293996810913086
            ],
            "type" : "VEC3"
        },
        {
            "bufferView" : 1,
            "componentType" : 5126,
            "count" : 16,
            "type" : "VEC3"
        },
        {
            "bufferView" : 2,
            "componentType" : 5126,
            "count" : 16,
            "type" : "VEC2"
        },
        {
            "bufferView" : 3,
            "componentType" : 5123,
            "count" : 30,
            "type" : "SCALAR"
        },
        {
            "bufferView" : 5,
            "componentType" : 5126,
            "count" : 4,
            "max" : [
                -19.406387329101562,
                2,
                32.95445251464844
            ],
            "min" : [
                -20.01622772216797,
                1.6203861236572266,
                30.293996810913086
            ],
            "type" : "VEC3"
        },
        {
            "bufferView" : 6,
            "componentType" : 5126,
            "count" : 4,
            "type" : "VEC3"
        },
        {
            "bufferView" : 7,
            "componentType" : 5126,
            "count" : 4,
            "type" : "VEC2"
        },
        {
            "bufferView" : 8,
            "componentType" : 5123,
            "count" : 6,
            "type" : "SCALAR"
        },
        {
            "bufferView" : 9,
            "componentType" : 5126,
            "count" : 580,
            "max" : [
                7.986439228057861,
                2.0467617511749268,
                32.95445251464844
            ],
            "min" : [
                -32.562496185302734,
                -2.3796138763427734,
                9.07907772064209
            ],
            "type" : "VEC3"
        },
        {
            "bufferView" : 10,
            "componentType" : 5126,
            "count" : 580,
            "type" : "VEC3"
        },
        {
            "bufferView" : 11,
            "componentType" : 5126,
            "count" : 580,
            "type" : "VEC2"
        },
        {
            "bufferView" : 12,
            "componentType" : 5123,
            "count" : 1227,
            "type" : "SCALAR"
        },
        {
            "bufferView" : 13,
            "componentType" : 5126,
            "count" : 12,
            "max" : [
                -8.017215728759766,
                2.0467617511749268,
                25.083898544311523
            ],
            "min" : [
                -24.01622772216797,
                2,
                21.083898544311523
            ],
            "type" : "VEC3"
        },
        {
            "bufferView" : 14,
            "componentType" : 5126,
            "count" : 12,
            "type" : "VEC3"
        },
        {
            "bufferView" : 15,
            "componentType" : 5126,
            "count" : 12,
            "type" : "VEC2"
        },
        {
            "bufferView" : 16,
            "componentType" : 5123,
            "count" : 24,
            "type" : "SCALAR"
        },
        {
            "bufferView" : 18,
            "componentType" : 5126,
            "count" : 28,
            "max" : [
                7.983956336975098,
                2,
                25.083898544311523
            ],
            "min" : [
                -8.015056610107422,
                2,
                9.07907772064209
            ],
            "type" : "VEC3"
        },
        {
            "bufferView" : 19,
            "componentType" : 5126,
            "count" : 28,
            "type" : "VEC3"
        },
        {
            "bufferView" : 20,
            "componentType" : 5126,
            "count" : 28,
            "type" : "VEC2"
        },
        {
            "bufferView" : 21,
            "componentType" : 5123,
            "count" : 54,
            "type" : "SCALAR"
        },
        {
            "bufferView" : 22,
            "componentType" : 5126,
            "count" : 4,
            "max" : [
                -8.032185554504395,
                1.9993035793304443,
                28.05787467956543
            ],
            "min" : [
                -16.521867752075195,
                1.6620609760284424,
                27.897600173950195
            ],
            "type" : "VEC3"
        },
        {
            "bufferView" : 23,
            "componentType" : 5126,
            "count" : 4,
            "type" : "VEC3"
        },
        {
            "bufferView" : 24,
            "componentType" : 5126,
            "count" : 4,
            "type" : "VEC2"
        },
        {
            "bufferView" : 25,
            "componentType" : 5123,
            "count" : 6,
            "type" : "SCALAR"
        },
        {
            "bufferView" : 26,
            "componentType" : 5126,
            "count" : 5,
            "max" : [
                -11.838184356689453,
                2,
                27.99433708190918
            ],
            "min" : [
                -20.01622772216797,
                2,
                25.083898544311523
            ],
            "type" : "VEC3"
        },
        {
            "bufferView" : 27,
            "componentType" : 5126,
            "count" : 5,
            "type" : "VEC3"
        },
        {
            "bufferView" : 28,
            "componentType" : 5126,
            "count" : 5,
            "type" : "VEC2"
        },
        {
            "bufferView" : 29,
            "componentType" : 5123,
            "count" : 9,
            "type" : "SCALAR"
        }
    ],
    "bufferViews" : [
        {
            "buffer" : 0,
            "byteLength" : 192,
            "byteOffset" : 0
        },
        {
            "buffer" : 0,
            "byteLength" : 192,
            "byteOffset" : 192
        },
        {
            "buffer" : 0,
            "byteLength" : 128,
            "byteOffset" : 384
        },
        {
            "buffer" : 0,
            "byteLength" : 60,
            "byteOffset" : 512
        },
        {
            "buffer" : 0,
            "byteLength" : 98144,
            "byteOffset" : 572
        },
        {
            "buffer" : 0,
            "byteLength" : 48,
            "byteOffset" : 98716
        },
        {
            "buffer" : 0,
            "byteLength" : 48,
            "byteOffset" : 98764
        },
        {
            "buffer" : 0,
            "byteLength" : 32,
            "byteOffset" : 98812
        },
        {
            "buffer" : 0,
            "byteLength" : 12,
            "byteOffset" : 98844
        },
        {
            "buffer" : 0,
            "byteLength" : 6960,
            "byteOffset" : 98856
        },
        {
            "buffer" : 0,
            "byteLength" : 6960,
            "byteOffset" : 105816
        },
        {
            "buffer" : 0,
            "byteLength" : 4640,
            "byteOffset" : 112776
        },
        {
            "buffer" : 0,
            "byteLength" : 2454,
            "byteOffset" : 117416
        },
        {
            "buffer" : 0,
            "byteLength" : 144,
            "byteOffset" : 119872
        },
        {
            "buffer" : 0,
            "byteLength" : 144,
            "byteOffset" : 120016
        },
        {
            "buffer" : 0,
            "byteLength" : 96,
            "byteOffset" : 120160
        },
        {
            "buffer" : 0,
            "byteLength" : 48,
            "byteOffset" : 120256
        },
        {
            "buffer" : 0,
            "byteLength" : 113327,
            "byteOffset" : 120304
        },
        {
            "buffer" : 0,
            "byteLength" : 336,
            "byteOffset" : 233632
        },
        {
            "buffer" : 0,
            "byteLength" : 336,
            "byteOffset" : 233968
        },
        {
            "buffer" : 0,
            "byteLength" : 224,
            "byteOffset" : 234304
        },
        {
            "buffer" : 0,
            "byteLength" : 108,
            "byteOffset" : 234528
        },
        {
            "buffer" : 0,
            "byteLength" : 48,
            "byteOffset" : 234636
        },
        {
            "buffer" : 0,
            "byteLength" : 48,
            "byteOffset" : 234684
        },
        {
            "buffer" : 0,
            "byteLength" : 32,
            "byteOffset" : 234732
        },
        {
            "buffer" : 0,
            "byteLength" : 12,
            "byteOffset" : 234764
        },
        {
            "buffer" : 0,
            "byteLength" : 60,
            "byteOffset" : 234776
        },
        {
            "buffer" : 0,
            "byteLength" : 60,
            "byteOffset" : 234836
        },
        {
            "buffer" : 0,
            "byteLength" : 40,
            "byteOffset" : 234896
        },
        {
            "buffer" : 0,
            "byteLength" : 18,
            "byteOffset" : 234936
        },
        {
            "buffer" : 0,
            "byteLength" : 103521,
            "byteOffset" : 234956
        }
    ],
    "samplers" : [
        {
            "magFilter" : 9729,
            "minFilter" : 9987
        }
    ],
    "buffers" : [
        {
            "byteLength" : 338480,
            "uri" : "data:application/octet-stream;base64,"
        }
    ]
}
