{
    "asset" : {
        "generator" : "Khronos glTF Blender I/O v1.7.33",
        "version" : "2.0"
    },
    "scene" : 0,
    "scenes" : [
        {
            "name" : "Scene",
            "nodes" : [
                1
            ]
        }
    ],
    "nodes" : [
        {
            "mesh" : 0,
            "name" : "polymsh_detached67",
            "rotation" : [
                0,
                0,
                0,
                -1
            ],
            "translation" : [
                -28.338916778564453,
                0,
                -18.043079376220703
            ]
        },
        {
            "children" : [
                0
            ],
            "name" : "dummyr_pill_boxes",
            "rotation" : [
                0,
                0,
                0,
                -1
            ]
        }
    ],
    "materials" : [
        {
            "name" : "Material3154",
            "pbrMetallicRoughness" : {
                "baseColorTexture" : {
                    "index" : 0
                },
                "metallicFactor" : 0
            }
        },
        {
            "name" : "Material3153",
            "pbrMetallicRoughness" : {
                "baseColorTexture" : {
                    "index" : 1
                },
                "metallicFactor" : 0
            }
        },
        {
            "emissiveFactor" : [
                1,
                1,
                1
            ],
            "emissiveTexture" : {
                "index" : 2
            },
            "name" : "glower3",
            "pbrMetallicRoughness" : {
                "baseColorTexture" : {
                    "index" : 3
                },
                "metallicFactor" : 0
            }
        }
    ],
    "meshes" : [
        {
            "name" : "polymsh_detached67",
            "primitives" : [
                {
                    "attributes" : {
                        "POSITION" : 0,
                        "NORMAL" : 1,
                        "TEXCOORD_0" : 2
                    },
                    "indices" : 3,
                    "material" : 0
                },
                {
                    "attributes" : {
                        "POSITION" : 4,
                        "NORMAL" : 5,
                        "TEXCOORD_0" : 6
                    },
                    "indices" : 7,
                    "material" : 1
                },
                {
                    "attributes" : {
                        "POSITION" : 8,
                        "NORMAL" : 9,
                        "TEXCOORD_0" : 10
                    },
                    "indices" : 11,
                    "material" : 2
                },
                {
                    "attributes" : {
                        "POSITION" : 12,
                        "NORMAL" : 13,
                        "TEXCOORD_0" : 14
                    },
                    "indices" : 15,
                    "material" : 2
                },
                {
                    "attributes" : {
                        "POSITION" : 16,
                        "NORMAL" : 17,
                        "TEXCOORD_0" : 18
                    },
                    "indices" : 19,
                    "material" : 2
                },
                {
                    "attributes" : {
                        "POSITION" : 20,
                        "NORMAL" : 21,
                        "TEXCOORD_0" : 22
                    },
                    "indices" : 23,
                    "material" : 2
                },
                {
                    "attributes" : {
                        "POSITION" : 24,
                        "NORMAL" : 25,
                        "TEXCOORD_0" : 26
                    },
                    "indices" : 27,
                    "material" : 2
                },
                {
                    "attributes" : {
                        "POSITION" : 28,
                        "NORMAL" : 29,
                        "TEXCOORD_0" : 30
                    },
                    "indices" : 31,
                    "material" : 2
                }
            ]
        }
    ],
    "textures" : [
        {
            "sampler" : 0,
            "source" : 0
        },
        {
            "sampler" : 0,
            "source" : 1
        },
        {
            "sampler" : 0,
            "source" : 2
        },
        {
            "sampler" : 0,
            "source" : 2
        }
    ],
    "images" : [
        {
            "bufferView" : 4,
            "mimeType" : "image/png",
            "name" : "spa1_weap_moncal_blistercannon.tga"
        },
        {
            "bufferView" : 9,
            "mimeType" : "image/png",
            "name" : "spa1_bldg_moncal_floor1.tga"
        },
        {
            "bufferView" : 14,
            "mimeType" : "image/png",
            "name" : "pol1_prop_commscreen"
        }
    ],
    "accessors" : [
        {
            "bufferView" : 0,
            "componentType" : 5126,
            "count" : 278,
            "max" : [
                34.20755386352539,
                7.694339275360107,
                24.121496200561523
            ],
            "min" : [
                23.9718074798584,
                -3.1389000415802,
                11.915922164916992
            ],
            "type" : "VEC3"
        },
        {
            "bufferView" : 1,
            "componentType" : 5126,
            "count" : 278,
            "type" : "VEC3"
        },
        {
            "bufferView" : 2,
            "componentType" : 5126,
            "count" : 278,
            "type" : "VEC2"
        },
        {
            "bufferView" : 3,
            "componentType" : 5123,
            "count" : 768,
            "type" : "SCALAR"
        },
        {
            "bufferView" : 5,
            "componentType" : 5126,
            "count" : 40,
            "max" : [
                34.20755386352539,
                0.8611000180244446,
                24.02305793762207
            ],
            "min" : [
                23.9718074798584,
                -3.1389000415802,
                12.001554489135742
            ],
            "type" : "VEC3"
        },
        {
            "bufferView" : 6,
            "componentType" : 5126,
            "count" : 40,
            "type" : "VEC3"
        },
        {
            "bufferView" : 7,
            "componentType" : 5126,
            "count" : 40,
            "type" : "VEC2"
        },
        {
            "bufferView" : 8,
            "componentType" : 5123,
            "count" : 72,
            "type" : "SCALAR"
        },
        {
            "bufferView" : 10,
            "componentType" : 5126,
            "count" : 12,
            "max" : [
                33.312767028808594,
                6.487615585327148,
                12.503008842468262
            ],
            "min" : [
                28.664648056030273,
                3.6249465942382812,
                12.001554489135742
            ],
            "type" : "VEC3"
        },
        {
            "bufferView" : 11,
            "componentType" : 5126,
            "count" : 12,
            "type" : "VEC3"
        },
        {
            "bufferView" : 12,
            "componentType" : 5126,
            "count" : 12,
            "type" : "VEC2"
        },
        {
            "bufferView" : 13,
            "componentType" : 5123,
            "count" : 24,
            "type" : "SCALAR"
        },
        {
            "bufferView" : 15,
            "componentType" : 5126,
            "count" : 8,
            "max" : [
                32.812767028808594,
                5.99256706237793,
                16.001554489135742
            ],
            "min" : [
                29.164648056030273,
                3.6441354751586914,
                15.501554489135742
            ],
            "type" : "VEC3"
        },
        {
            "bufferView" : 16,
            "componentType" : 5126,
            "count" : 8,
            "type" : "VEC3"
        },
        {
            "bufferView" : 17,
            "componentType" : 5126,
            "count" : 8,
            "type" : "VEC2"
        },
        {
            "bufferView" : 18,
            "componentType" : 5123,
            "count" : 24,
            "type" : "SCALAR"
        },
        {
            "bufferView" : 19,
            "componentType" : 5126,
            "count" : 8,
            "max" : [
                32.773162841796875,
                5.987632751464844,
                20.52305793762207
            ],
            "min" : [
                29.125045776367188,
                3.6466267108917236,
                20.02305793762207
            ],
            "type" : "VEC3"
        },
        {
            "bufferView" : 20,
            "componentType" : 5126,
            "count" : 8,
            "type" : "VEC3"
        },
        {
            "bufferView" : 21,
            "componentType" : 5126,
            "count" : 8,
            "type" : "VEC2"
        },
        {
            "bufferView" : 22,
            "componentType" : 5123,
            "count" : 24,
            "type" : "SCALAR"
        },
        {
            "bufferView" : 23,
            "componentType" : 5126,
            "count" : 24,
            "max" : [
                33.273162841796875,
                5.987630367279053,
                24.02305793762207
            ],
            "min" : [
                28.625045776367188,
                4.139927864074707,
                20.52305793762207
            ],
            "type" : "VEC3"
        },
        {
            "bufferView" : 24,
            "componentType" : 5126,
            "count" : 24,
            "type" : "VEC3"
        },
        {
            "bufferView" : 25,
            "componentType" : 5126,
            "count" : 24,
            "type" : "VEC2"
        },
        {
            "bufferView" : 26,
            "componentType" : 5123,
            "count" : 60,
            "type" : "SCALAR"
        },
        {
            "bufferView" : 27,
            "componentType" : 5126,
            "count" : 8,
            "max" : [
                33.273162841796875,
                5.987630367279053,
                24.02305793762207
            ],
            "min" : [
                29.125045776367188,
                5.987613201141357,
                20.52305793762207
            ],
            "type" : "VEC3"
        },
        {
            "bufferView" : 28,
            "componentType" : 5126,
            "count" : 8,
            "type" : "VEC3"
        },
        {
            "bufferView" : 29,
            "componentType" : 5126,
            "count" : 8,
            "type" : "VEC2"
        },
        {
            "bufferView" : 30,
            "componentType" : 5123,
            "count" : 12,
            "type" : "SCALAR"
        },
        {
            "bufferView" : 31,
            "componentType" : 5126,
            "count" : 16,
            "max" : [
                33.312767028808594,
                5.991947174072266,
                15.501554489135742
            ],
            "min" : [
                28.664648056030273,
                4.139930725097656,
                12.501554489135742
            ],
            "type" : "VEC3"
        },
        {
            "bufferView" : 32,
            "componentType" : 5126,
            "count" : 16,
            "type" : "VEC3"
        },
        {
            "bufferView" : 33,
            "componentType" : 5126,
            "count" : 16,
            "type" : "VEC2"
        },
        {
            "bufferView" : 34,
            "componentType" : 5123,
            "count" : 48,
            "type" : "SCALAR"
        }
    ],
    "bufferViews" : [
        {
            "buffer" : 0,
            "byteLength" : 3336,
            "byteOffset" : 0
        },
        {
            "buffer" : 0,
            "byteLength" : 3336,
            "byteOffset" : 3336
        },
        {
            "buffer" : 0,
            "byteLength" : 2224,
            "byteOffset" : 6672
        },
        {
            "buffer" : 0,
            "byteLength" : 1536,
            "byteOffset" : 8896
        },
        {
            "buffer" : 0,
            "byteLength" : 98144,
            "byteOffset" : 10432
        },
        {
            "buffer" : 0,
            "byteLength" : 480,
            "byteOffset" : 108576
        },
        {
            "buffer" : 0,
            "byteLength" : 480,
            "byteOffset" : 109056
        },
        {
            "buffer" : 0,
            "byteLength" : 320,
            "byteOffset" : 109536
        },
        {
            "buffer" : 0,
            "byteLength" : 144,
            "byteOffset" : 109856
        },
        {
            "buffer" : 0,
            "byteLength" : 113327,
            "byteOffset" : 110000
        },
        {
            "buffer" : 0,
            "byteLength" : 144,
            "byteOffset" : 223328
        },
        {
            "buffer" : 0,
            "byteLength" : 144,
            "byteOffset" : 223472
        },
        {
            "buffer" : 0,
            "byteLength" : 96,
            "byteOffset" : 223616
        },
        {
            "buffer" : 0,
            "byteLength" : 48,
            "byteOffset" : 223712
        },
        {
            "buffer" : 0,
            "byteLength" : 68390,
            "byteOffset" : 223760
        },
        {
            "buffer" : 0,
            "byteLength" : 96,
            "byteOffset" : 292152
        },
        {
            "buffer" : 0,
            "byteLength" : 96,
            "byteOffset" : 292248
        },
        {
            "buffer" : 0,
            "byteLength" : 64,
            "byteOffset" : 292344
        },
        {
            "buffer" : 0,
            "byteLength" : 48,
            "byteOffset" : 292408
        },
        {
            "buffer" : 0,
            "byteLength" : 96,
            "byteOffset" : 292456
        },
        {
            "buffer" : 0,
            "byteLength" : 96,
            "byteOffset" : 292552
        },
        {
            "buffer" : 0,
            "byteLength" : 64,
            "byteOffset" : 292648
        },
        {
            "buffer" : 0,
            "byteLength" : 48,
            "byteOffset" : 292712
        },
        {
            "buffer" : 0,
            "byteLength" : 288,
            "byteOffset" : 292760
        },
        {
            "buffer" : 0,
            "byteLength" : 288,
            "byteOffset" : 293048
        },
        {
            "buffer" : 0,
            "byteLength" : 192,
            "byteOffset" : 293336
        },
        {
            "buffer" : 0,
            "byteLength" : 120,
            "byteOffset" : 293528
        },
        {
            "buffer" : 0,
            "byteLength" : 96,
            "byteOffset" : 293648
        },
        {
            "buffer" : 0,
            "byteLength" : 96,
            "byteOffset" : 293744
        },
        {
            "buffer" : 0,
            "byteLength" : 64,
            "byteOffset" : 293840
        },
        {
            "buffer" : 0,
            "byteLength" : 24,
            "byteOffset" : 293904
        },
        {
            "buffer" : 0,
            "byteLength" : 192,
            "byteOffset" : 293928
        },
        {
            "buffer" : 0,
            "byteLength" : 192,
            "byteOffset" : 294120
        },
        {
            "buffer" : 0,
            "byteLength" : 128,
            "byteOffset" : 294312
        },
        {
            "buffer" : 0,
            "byteLength" : 96,
            "byteOffset" : 294440
        }
    ],
    "samplers" : [
        {
            "magFilter" : 9729,
            "minFilter" : 9987
        }
    ],
    "buffers" : [
        {
            "byteLength" : 294536,
            "uri" : "data:application/octet-stream;base64,"
        }
    ]
}
