{
    "asset" : {
        "generator" : "Khronos glTF Blender I/O v1.7.33",
        "version" : "2.0"
    },
    "scene" : 0,
    "scenes" : [
        {
            "name" : "Scene",
            "nodes" : [
                1
            ]
        }
    ],
    "nodes" : [
        {
            "mesh" : 0,
            "name" : "polymsh14",
            "rotation" : [
                0,
                0,
                0,
                -1
            ],
            "translation" : [
                -24.65294075012207,
                0,
                0
            ]
        },
        {
            "children" : [
                0
            ],
            "name" : "dummyr7",
            "rotation" : [
                0,
                0,
                0,
                -1
            ]
        }
    ],
    "materials" : [
        {
            "name" : "Material2283",
            "pbrMetallicRoughness" : {
                "baseColorTexture" : {
                    "index" : 0
                },
                "metallicFactor" : 0
            }
        },
        {
            "name" : "Material2282.001",
            "pbrMetallicRoughness" : {
                "baseColorTexture" : {
                    "index" : 1
                },
                "metallicFactor" : 0
            }
        },
        {
            "name" : "Material3155",
            "pbrMetallicRoughness" : {
                "baseColorTexture" : {
                    "index" : 2
                },
                "metallicFactor" : 0
            }
        }
    ],
    "meshes" : [
        {
            "name" : "polymsh14",
            "primitives" : [
                {
                    "attributes" : {
                        "POSITION" : 0,
                        "NORMAL" : 1,
                        "TEXCOORD_0" : 2
                    },
                    "indices" : 3,
                    "material" : 0
                },
                {
                    "attributes" : {
                        "POSITION" : 4,
                        "NORMAL" : 5,
                        "TEXCOORD_0" : 6
                    },
                    "indices" : 7,
                    "material" : 1
                },
                {
                    "attributes" : {
                        "POSITION" : 8,
                        "NORMAL" : 9,
                        "TEXCOORD_0" : 10
                    },
                    "indices" : 11,
                    "material" : 0
                },
                {
                    "attributes" : {
                        "POSITION" : 12,
                        "NORMAL" : 13,
                        "TEXCOORD_0" : 14
                    },
                    "indices" : 15,
                    "material" : 2
                },
                {
                    "attributes" : {
                        "POSITION" : 16,
                        "NORMAL" : 17,
                        "TEXCOORD_0" : 18
                    },
                    "indices" : 19,
                    "material" : 0
                },
                {
                    "attributes" : {
                        "POSITION" : 20,
                        "NORMAL" : 21,
                        "TEXCOORD_0" : 22
                    },
                    "indices" : 23,
                    "material" : 0
                }
            ]
        }
    ],
    "textures" : [
        {
            "sampler" : 0,
            "source" : 0
        },
        {
            "sampler" : 0,
            "source" : 1
        },
        {
            "sampler" : 0,
            "source" : 0
        }
    ],
    "images" : [
        {
            "bufferView" : 4,
            "mimeType" : "image/png",
            "name" : "spa1_weap_moncal_blistercannon.tga"
        },
        {
            "bufferView" : 9,
            "mimeType" : "image/png",
            "name" : "spa1_bldg_moncal_floor1.tga"
        }
    ],
    "accessors" : [
        {
            "bufferView" : 0,
            "componentType" : 5126,
            "count" : 1409,
            "max" : [
                56.03133010864258,
                5.988850116729736,
                16.001554489135742
            ],
            "min" : [
                -8.249653816223145,
                -4.0085673332214355,
                -25.032052993774414
            ],
            "type" : "VEC3"
        },
        {
            "bufferView" : 1,
            "componentType" : 5126,
            "count" : 1409,
            "type" : "VEC3"
        },
        {
            "bufferView" : 2,
            "componentType" : 5126,
            "count" : 1409,
            "type" : "VEC2"
        },
        {
            "bufferView" : 3,
            "componentType" : 5123,
            "count" : 2784,
            "type" : "SCALAR"
        },
        {
            "bufferView" : 5,
            "componentType" : 5126,
            "count" : 441,
            "max" : [
                56.03133010864258,
                5.988850116729736,
                16.001554489135742
            ],
            "min" : [
                -6.196727275848389,
                -3.138786792755127,
                -24.003488540649414
            ],
            "type" : "VEC3"
        },
        {
            "bufferView" : 6,
            "componentType" : 5126,
            "count" : 441,
            "type" : "VEC3"
        },
        {
            "bufferView" : 7,
            "componentType" : 5126,
            "count" : 441,
            "type" : "VEC2"
        },
        {
            "bufferView" : 8,
            "componentType" : 5123,
            "count" : 906,
            "type" : "SCALAR"
        },
        {
            "bufferView" : 10,
            "componentType" : 5126,
            "count" : 15,
            "max" : [
                44.0325927734375,
                1.9726076126098633,
                16.001554489135742
            ],
            "min" : [
                36.01014709472656,
                -2.0273923873901367,
                8.001554489135742
            ],
            "type" : "VEC3"
        },
        {
            "bufferView" : 11,
            "componentType" : 5126,
            "count" : 15,
            "type" : "VEC3"
        },
        {
            "bufferView" : 12,
            "componentType" : 5126,
            "count" : 15,
            "type" : "VEC2"
        },
        {
            "bufferView" : 13,
            "componentType" : 5123,
            "count" : 27,
            "type" : "SCALAR"
        },
        {
            "bufferView" : 14,
            "componentType" : 5126,
            "count" : 4,
            "max" : [
                13.807489395141602,
                4.558243274688721,
                -11.99084758758545
            ],
            "min" : [
                13.807489395141602,
                3.687318801879883,
                -15.968204498291016
            ],
            "type" : "VEC3"
        },
        {
            "bufferView" : 15,
            "componentType" : 5126,
            "count" : 4,
            "type" : "VEC3"
        },
        {
            "bufferView" : 16,
            "componentType" : 5126,
            "count" : 4,
            "type" : "VEC2"
        },
        {
            "bufferView" : 17,
            "componentType" : 5123,
            "count" : 6,
            "type" : "SCALAR"
        },
        {
            "bufferView" : 18,
            "componentType" : 5126,
            "count" : 8,
            "max" : [
                32.011409759521484,
                1.9726076126098633,
                16.033784866333008
            ],
            "min" : [
                24.011409759521484,
                1.926164150238037,
                12.001554489135742
            ],
            "type" : "VEC3"
        },
        {
            "bufferView" : 19,
            "componentType" : 5126,
            "count" : 8,
            "type" : "VEC3"
        },
        {
            "bufferView" : 20,
            "componentType" : 5126,
            "count" : 8,
            "type" : "VEC2"
        },
        {
            "bufferView" : 21,
            "componentType" : 5123,
            "count" : 18,
            "type" : "SCALAR"
        },
        {
            "bufferView" : 22,
            "componentType" : 5126,
            "count" : 6,
            "max" : [
                -6.196727275848389,
                0.861213207244873,
                -16.00633430480957
            ],
            "min" : [
                -7.585508346557617,
                -0.037764064967632294,
                -20.003488540649414
            ],
            "type" : "VEC3"
        },
        {
            "bufferView" : 23,
            "componentType" : 5126,
            "count" : 6,
            "type" : "VEC3"
        },
        {
            "bufferView" : 24,
            "componentType" : 5126,
            "count" : 6,
            "type" : "VEC2"
        },
        {
            "bufferView" : 25,
            "componentType" : 5123,
            "count" : 12,
            "type" : "SCALAR"
        }
    ],
    "bufferViews" : [
        {
            "buffer" : 0,
            "byteLength" : 16908,
            "byteOffset" : 0
        },
        {
            "buffer" : 0,
            "byteLength" : 16908,
            "byteOffset" : 16908
        },
        {
            "buffer" : 0,
            "byteLength" : 11272,
            "byteOffset" : 33816
        },
        {
            "buffer" : 0,
            "byteLength" : 5568,
            "byteOffset" : 45088
        },
        {
            "buffer" : 0,
            "byteLength" : 98144,
            "byteOffset" : 50656
        },
        {
            "buffer" : 0,
            "byteLength" : 5292,
            "byteOffset" : 148800
        },
        {
            "buffer" : 0,
            "byteLength" : 5292,
            "byteOffset" : 154092
        },
        {
            "buffer" : 0,
            "byteLength" : 3528,
            "byteOffset" : 159384
        },
        {
            "buffer" : 0,
            "byteLength" : 1812,
            "byteOffset" : 162912
        },
        {
            "buffer" : 0,
            "byteLength" : 113327,
            "byteOffset" : 164724
        },
        {
            "buffer" : 0,
            "byteLength" : 180,
            "byteOffset" : 278052
        },
        {
            "buffer" : 0,
            "byteLength" : 180,
            "byteOffset" : 278232
        },
        {
            "buffer" : 0,
            "byteLength" : 120,
            "byteOffset" : 278412
        },
        {
            "buffer" : 0,
            "byteLength" : 54,
            "byteOffset" : 278532
        },
        {
            "buffer" : 0,
            "byteLength" : 48,
            "byteOffset" : 278588
        },
        {
            "buffer" : 0,
            "byteLength" : 48,
            "byteOffset" : 278636
        },
        {
            "buffer" : 0,
            "byteLength" : 32,
            "byteOffset" : 278684
        },
        {
            "buffer" : 0,
            "byteLength" : 12,
            "byteOffset" : 278716
        },
        {
            "buffer" : 0,
            "byteLength" : 96,
            "byteOffset" : 278728
        },
        {
            "buffer" : 0,
            "byteLength" : 96,
            "byteOffset" : 278824
        },
        {
            "buffer" : 0,
            "byteLength" : 64,
            "byteOffset" : 278920
        },
        {
            "buffer" : 0,
            "byteLength" : 36,
            "byteOffset" : 278984
        },
        {
            "buffer" : 0,
            "byteLength" : 72,
            "byteOffset" : 279020
        },
        {
            "buffer" : 0,
            "byteLength" : 72,
            "byteOffset" : 279092
        },
        {
            "buffer" : 0,
            "byteLength" : 48,
            "byteOffset" : 279164
        },
        {
            "buffer" : 0,
            "byteLength" : 24,
            "byteOffset" : 279212
        }
    ],
    "samplers" : [
        {
            "magFilter" : 9729,
            "minFilter" : 9987
        }
    ],
    "buffers" : [
        {
            "byteLength" : 279236,
            "uri" : "data:application/octet-stream;base64,"
        }
    ]
}
