{
    "asset" : {
        "generator" : "Khronos glTF Blender I/O v1.7.33",
        "version" : "2.0"
    },
    "scene" : 0,
    "scenes" : [
        {
            "name" : "Scene",
            "nodes" : [
                3
            ]
        }
    ],
    "nodes" : [
        {
            "mesh" : 0,
            "name" : "polymsh13",
            "rotation" : [
                0,
                0,
                0,
                -1
            ],
            "translation" : [
                14.074825286865234,
                0,
                -17.09531593322754
            ]
        },
        {
            "mesh" : 1,
            "name" : "polymsh_detached106",
            "rotation" : [
                0,
                0,
                0,
                -1
            ],
            "translation" : [
                10.689553260803223,
                0,
                -19.19582748413086
            ]
        },
        {
            "mesh" : 2,
            "name" : "polymsh_detached9",
            "rotation" : [
                0,
                -1,
                0,
                -6.123234262925839e-17
            ],
            "translation" : [
                0.7547512054443359,
                0.9686818718910217,
                -7.774860382080078
            ]
        },
        {
            "children" : [
                0,
                1,
                2
            ],
            "name" : "dummyr5",
            "rotation" : [
                0,
                0,
                0,
                -1
            ]
        }
    ],
    "materials" : [
        {
            "name" : "Material3151",
            "pbrMetallicRoughness" : {
                "baseColorTexture" : {
                    "index" : 0
                },
                "metallicFactor" : 0
            }
        },
        {
            "emissiveFactor" : [
                1,
                1,
                1
            ],
            "emissiveTexture" : {
                "index" : 1
            },
            "name" : "glower101",
            "pbrMetallicRoughness" : {
                "baseColorTexture" : {
                    "index" : 2
                },
                "metallicFactor" : 0
            }
        },
        {
            "name" : "Material3152",
            "pbrMetallicRoughness" : {
                "baseColorTexture" : {
                    "index" : 3
                },
                "metallicFactor" : 0
            }
        },
        {
            "name" : "Material9211",
            "pbrMetallicRoughness" : {
                "baseColorTexture" : {
                    "index" : 4
                },
                "metallicFactor" : 0
            }
        }
    ],
    "meshes" : [
        {
            "name" : "polymsh13",
            "primitives" : [
                {
                    "attributes" : {
                        "POSITION" : 0,
                        "NORMAL" : 1,
                        "TEXCOORD_0" : 2
                    },
                    "indices" : 3,
                    "material" : 0
                },
                {
                    "attributes" : {
                        "POSITION" : 4,
                        "NORMAL" : 5,
                        "TEXCOORD_0" : 6
                    },
                    "indices" : 7,
                    "material" : 1
                },
                {
                    "attributes" : {
                        "POSITION" : 8,
                        "NORMAL" : 9,
                        "TEXCOORD_0" : 10
                    },
                    "indices" : 11,
                    "material" : 2
                },
                {
                    "attributes" : {
                        "POSITION" : 12,
                        "NORMAL" : 13,
                        "TEXCOORD_0" : 14
                    },
                    "indices" : 15,
                    "material" : 3
                },
                {
                    "attributes" : {
                        "POSITION" : 16,
                        "NORMAL" : 17,
                        "TEXCOORD_0" : 18
                    },
                    "indices" : 15,
                    "material" : 3
                },
                {
                    "attributes" : {
                        "POSITION" : 19,
                        "NORMAL" : 20,
                        "TEXCOORD_0" : 21
                    },
                    "indices" : 22,
                    "material" : 3
                },
                {
                    "attributes" : {
                        "POSITION" : 23,
                        "NORMAL" : 24,
                        "TEXCOORD_0" : 25
                    },
                    "indices" : 26,
                    "material" : 0
                }
            ]
        },
        {
            "name" : "polymsh_detached106",
            "primitives" : [
                {
                    "attributes" : {
                        "POSITION" : 27,
                        "NORMAL" : 28,
                        "TEXCOORD_0" : 29
                    },
                    "indices" : 30,
                    "material" : 0
                },
                {
                    "attributes" : {
                        "POSITION" : 31,
                        "NORMAL" : 32,
                        "TEXCOORD_0" : 33
                    },
                    "indices" : 34,
                    "material" : 1
                }
            ]
        },
        {
            "name" : "polymsh_detached9",
            "primitives" : [
                {
                    "attributes" : {
                        "POSITION" : 35,
                        "NORMAL" : 36,
                        "TEXCOORD_0" : 37
                    },
                    "indices" : 38,
                    "material" : 0
                },
                {
                    "attributes" : {
                        "POSITION" : 39,
                        "NORMAL" : 40,
                        "TEXCOORD_0" : 41
                    },
                    "indices" : 42,
                    "material" : 2
                }
            ]
        }
    ],
    "textures" : [
        {
            "sampler" : 0,
            "source" : 0
        },
        {
            "sampler" : 0,
            "source" : 1
        },
        {
            "sampler" : 0,
            "source" : 1
        },
        {
            "sampler" : 0,
            "source" : 2
        },
        {
            "sampler" : 0,
            "source" : 3
        }
    ],
    "images" : [
        {
            "bufferView" : 4,
            "mimeType" : "image/png",
            "name" : "spa1_weap_moncal_blistercannon.tga"
        },
        {
            "bufferView" : 9,
            "mimeType" : "image/png",
            "name" : "all_prop_console.tga"
        },
        {
            "bufferView" : 14,
            "mimeType" : "image/png",
            "name" : "spa1_bldg_moncal_floor1.tga"
        },
        {
            "bufferView" : 19,
            "mimeType" : "image/png",
            "name" : "spa_prop_damage1.tga"
        }
    ],
    "accessors" : [
        {
            "bufferView" : 0,
            "componentType" : 5126,
            "count" : 189,
            "max" : [
                -11.849801063537598,
                7.862829208374023,
                26.123151779174805
            ],
            "min" : [
                -21.958614349365234,
                1.6620609760284424,
                8.885765075683594
            ],
            "type" : "VEC3"
        },
        {
            "bufferView" : 1,
            "componentType" : 5126,
            "count" : 189,
            "type" : "VEC3"
        },
        {
            "bufferView" : 2,
            "componentType" : 5126,
            "count" : 189,
            "type" : "VEC2"
        },
        {
            "bufferView" : 3,
            "componentType" : 5123,
            "count" : 417,
            "type" : "SCALAR"
        },
        {
            "bufferView" : 5,
            "componentType" : 5126,
            "count" : 18,
            "max" : [
                -19.900564193725586,
                7.862829208374023,
                24.03484535217285
            ],
            "min" : [
                -21.958614349365234,
                5.793586730957031,
                13.541142463684082
            ],
            "type" : "VEC3"
        },
        {
            "bufferView" : 6,
            "componentType" : 5126,
            "count" : 18,
            "type" : "VEC3"
        },
        {
            "bufferView" : 7,
            "componentType" : 5126,
            "count" : 18,
            "type" : "VEC2"
        },
        {
            "bufferView" : 8,
            "componentType" : 5123,
            "count" : 51,
            "type" : "SCALAR"
        },
        {
            "bufferView" : 10,
            "componentType" : 5126,
            "count" : 4,
            "max" : [
                -11.849801063537598,
                6.130829334259033,
                25.922510147094727
            ],
            "min" : [
                -19.980037689208984,
                1.9993035793304443,
                23.91959571838379
            ],
            "type" : "VEC3"
        },
        {
            "bufferView" : 11,
            "componentType" : 5126,
            "count" : 4,
            "type" : "VEC3"
        },
        {
            "bufferView" : 12,
            "componentType" : 5126,
            "count" : 4,
            "type" : "VEC2"
        },
        {
            "bufferView" : 13,
            "componentType" : 5123,
            "count" : 6,
            "type" : "SCALAR"
        },
        {
            "bufferView" : 15,
            "componentType" : 5126,
            "count" : 3,
            "max" : [
                -16.521867752075195,
                6.130829334259033,
                26.03603744506836
            ],
            "min" : [
                -20.076078414916992,
                1.6620609760284424,
                23.91959571838379
            ],
            "type" : "VEC3"
        },
        {
            "bufferView" : 16,
            "componentType" : 5126,
            "count" : 3,
            "type" : "VEC3"
        },
        {
            "bufferView" : 17,
            "componentType" : 5126,
            "count" : 3,
            "type" : "VEC2"
        },
        {
            "bufferView" : 18,
            "componentType" : 5123,
            "count" : 3,
            "type" : "SCALAR"
        },
        {
            "bufferView" : 20,
            "componentType" : 5126,
            "count" : 3,
            "max" : [
                -11.849801063537598,
                6.130829334259033,
                26.002626419067383
            ],
            "min" : [
                -19.980037689208984,
                1.6620609760284424,
                23.91959571838379
            ],
            "type" : "VEC3"
        },
        {
            "bufferView" : 21,
            "componentType" : 5126,
            "count" : 3,
            "type" : "VEC3"
        },
        {
            "bufferView" : 22,
            "componentType" : 5126,
            "count" : 3,
            "type" : "VEC2"
        },
        {
            "bufferView" : 23,
            "componentType" : 5126,
            "count" : 6,
            "max" : [
                -19.980037689208984,
                6.130829334259033,
                26.03603744506836
            ],
            "min" : [
                -21.841758728027344,
                1.7797638177871704,
                23.91959571838379
            ],
            "type" : "VEC3"
        },
        {
            "bufferView" : 24,
            "componentType" : 5126,
            "count" : 6,
            "type" : "VEC3"
        },
        {
            "bufferView" : 25,
            "componentType" : 5126,
            "count" : 6,
            "type" : "VEC2"
        },
        {
            "bufferView" : 26,
            "componentType" : 5123,
            "count" : 6,
            "type" : "SCALAR"
        },
        {
            "bufferView" : 27,
            "componentType" : 5126,
            "count" : 12,
            "max" : [
                -21.762285232543945,
                7.862829208374023,
                24.03484535217285
            ],
            "min" : [
                -21.958614349365234,
                6.130829334259033,
                13.63718318939209
            ],
            "type" : "VEC3"
        },
        {
            "bufferView" : 28,
            "componentType" : 5126,
            "count" : 12,
            "type" : "VEC3"
        },
        {
            "bufferView" : 29,
            "componentType" : 5126,
            "count" : 12,
            "type" : "VEC2"
        },
        {
            "bufferView" : 30,
            "componentType" : 5123,
            "count" : 18,
            "type" : "SCALAR"
        },
        {
            "bufferView" : 31,
            "componentType" : 5126,
            "count" : 44,
            "max" : [
                -0.015056141652166843,
                8.714570045471191,
                20.823850631713867
            ],
            "min" : [
                -4.015056133270264,
                -2,
                18.823850631713867
            ],
            "type" : "VEC3"
        },
        {
            "bufferView" : 32,
            "componentType" : 5126,
            "count" : 44,
            "type" : "VEC3"
        },
        {
            "bufferView" : 33,
            "componentType" : 5126,
            "count" : 44,
            "type" : "VEC2"
        },
        {
            "bufferView" : 34,
            "componentType" : 5123,
            "count" : 96,
            "type" : "SCALAR"
        },
        {
            "bufferView" : 35,
            "componentType" : 5126,
            "count" : 16,
            "max" : [
                -1.5150561332702637,
                7.964570045471191,
                20.323850631713867
            ],
            "min" : [
                -2.5150561332702637,
                4.6190900802612305,
                19.323850631713867
            ],
            "type" : "VEC3"
        },
        {
            "bufferView" : 36,
            "componentType" : 5126,
            "count" : 16,
            "type" : "VEC3"
        },
        {
            "bufferView" : 37,
            "componentType" : 5126,
            "count" : 16,
            "type" : "VEC2"
        },
        {
            "bufferView" : 38,
            "componentType" : 5123,
            "count" : 24,
            "type" : "SCALAR"
        },
        {
            "bufferView" : 39,
            "componentType" : 5126,
            "count" : 55,
            "max" : [
                5.339671611785889,
                5.157299041748047,
                0.982340395450592
            ],
            "min" : [
                -5.310007095336914,
                -2.70546555519104,
                -1.281426191329956
            ],
            "type" : "VEC3"
        },
        {
            "bufferView" : 40,
            "componentType" : 5126,
            "count" : 55,
            "type" : "VEC3"
        },
        {
            "bufferView" : 41,
            "componentType" : 5126,
            "count" : 55,
            "type" : "VEC2"
        },
        {
            "bufferView" : 42,
            "componentType" : 5123,
            "count" : 114,
            "type" : "SCALAR"
        },
        {
            "bufferView" : 43,
            "componentType" : 5126,
            "count" : 4,
            "max" : [
                4.978585243225098,
                5.157299041748047,
                0.48234042525291443
            ],
            "min" : [
                -3.3896806240081787,
                1.0212002992630005,
                -1.281426191329956
            ],
            "type" : "VEC3"
        },
        {
            "bufferView" : 44,
            "componentType" : 5126,
            "count" : 4,
            "type" : "VEC3"
        },
        {
            "bufferView" : 45,
            "componentType" : 5126,
            "count" : 4,
            "type" : "VEC2"
        },
        {
            "bufferView" : 46,
            "componentType" : 5123,
            "count" : 6,
            "type" : "SCALAR"
        }
    ],
    "bufferViews" : [
        {
            "buffer" : 0,
            "byteLength" : 2268,
            "byteOffset" : 0
        },
        {
            "buffer" : 0,
            "byteLength" : 2268,
            "byteOffset" : 2268
        },
        {
            "buffer" : 0,
            "byteLength" : 1512,
            "byteOffset" : 4536
        },
        {
            "buffer" : 0,
            "byteLength" : 834,
            "byteOffset" : 6048
        },
        {
            "buffer" : 0,
            "byteLength" : 98144,
            "byteOffset" : 6884
        },
        {
            "buffer" : 0,
            "byteLength" : 216,
            "byteOffset" : 105028
        },
        {
            "buffer" : 0,
            "byteLength" : 216,
            "byteOffset" : 105244
        },
        {
            "buffer" : 0,
            "byteLength" : 144,
            "byteOffset" : 105460
        },
        {
            "buffer" : 0,
            "byteLength" : 102,
            "byteOffset" : 105604
        },
        {
            "buffer" : 0,
            "byteLength" : 73348,
            "byteOffset" : 105708
        },
        {
            "buffer" : 0,
            "byteLength" : 48,
            "byteOffset" : 179056
        },
        {
            "buffer" : 0,
            "byteLength" : 48,
            "byteOffset" : 179104
        },
        {
            "buffer" : 0,
            "byteLength" : 32,
            "byteOffset" : 179152
        },
        {
            "buffer" : 0,
            "byteLength" : 12,
            "byteOffset" : 179184
        },
        {
            "buffer" : 0,
            "byteLength" : 113327,
            "byteOffset" : 179196
        },
        {
            "buffer" : 0,
            "byteLength" : 36,
            "byteOffset" : 292524
        },
        {
            "buffer" : 0,
            "byteLength" : 36,
            "byteOffset" : 292560
        },
        {
            "buffer" : 0,
            "byteLength" : 24,
            "byteOffset" : 292596
        },
        {
            "buffer" : 0,
            "byteLength" : 6,
            "byteOffset" : 292620
        },
        {
            "buffer" : 0,
            "byteLength" : 103521,
            "byteOffset" : 292628
        },
        {
            "buffer" : 0,
            "byteLength" : 36,
            "byteOffset" : 396152
        },
        {
            "buffer" : 0,
            "byteLength" : 36,
            "byteOffset" : 396188
        },
        {
            "buffer" : 0,
            "byteLength" : 24,
            "byteOffset" : 396224
        },
        {
            "buffer" : 0,
            "byteLength" : 72,
            "byteOffset" : 396248
        },
        {
            "buffer" : 0,
            "byteLength" : 72,
            "byteOffset" : 396320
        },
        {
            "buffer" : 0,
            "byteLength" : 48,
            "byteOffset" : 396392
        },
        {
            "buffer" : 0,
            "byteLength" : 12,
            "byteOffset" : 396440
        },
        {
            "buffer" : 0,
            "byteLength" : 144,
            "byteOffset" : 396452
        },
        {
            "buffer" : 0,
            "byteLength" : 144,
            "byteOffset" : 396596
        },
        {
            "buffer" : 0,
            "byteLength" : 96,
            "byteOffset" : 396740
        },
        {
            "buffer" : 0,
            "byteLength" : 36,
            "byteOffset" : 396836
        },
        {
            "buffer" : 0,
            "byteLength" : 528,
            "byteOffset" : 396872
        },
        {
            "buffer" : 0,
            "byteLength" : 528,
            "byteOffset" : 397400
        },
        {
            "buffer" : 0,
            "byteLength" : 352,
            "byteOffset" : 397928
        },
        {
            "buffer" : 0,
            "byteLength" : 192,
            "byteOffset" : 398280
        },
        {
            "buffer" : 0,
            "byteLength" : 192,
            "byteOffset" : 398472
        },
        {
            "buffer" : 0,
            "byteLength" : 192,
            "byteOffset" : 398664
        },
        {
            "buffer" : 0,
            "byteLength" : 128,
            "byteOffset" : 398856
        },
        {
            "buffer" : 0,
            "byteLength" : 48,
            "byteOffset" : 398984
        },
        {
            "buffer" : 0,
            "byteLength" : 660,
            "byteOffset" : 399032
        },
        {
            "buffer" : 0,
            "byteLength" : 660,
            "byteOffset" : 399692
        },
        {
            "buffer" : 0,
            "byteLength" : 440,
            "byteOffset" : 400352
        },
        {
            "buffer" : 0,
            "byteLength" : 228,
            "byteOffset" : 400792
        },
        {
            "buffer" : 0,
            "byteLength" : 48,
            "byteOffset" : 401020
        },
        {
            "buffer" : 0,
            "byteLength" : 48,
            "byteOffset" : 401068
        },
        {
            "buffer" : 0,
            "byteLength" : 32,
            "byteOffset" : 401116
        },
        {
            "buffer" : 0,
            "byteLength" : 12,
            "byteOffset" : 401148
        }
    ],
    "samplers" : [
        {
            "magFilter" : 9729,
            "minFilter" : 9987
        }
    ],
    "buffers" : [
        {
            "byteLength" : 401160,
            "uri" : "data:application/octet-stream;base64,"
        }
    ]
}
