{
    "asset" : {
        "generator" : "Khronos glTF Blender I/O v1.7.33",
        "version" : "2.0"
    },
    "scene" : 0,
    "scenes" : [
        {
            "name" : "Scene",
            "nodes" : [
                2
            ]
        }
    ],
    "nodes" : [
        {
            "mesh" : 0,
            "name" : "polymsh22",
            "rotation" : [
                0,
                0,
                0,
                -1
            ],
            "translation" : [
                25.778362274169922,
                0,
                -29.454662322998047
            ]
        },
        {
            "mesh" : 1,
            "name" : "polymsh_detached47",
            "rotation" : [
                0,
                0,
                0,
                -1
            ],
            "translation" : [
                25.778362274169922,
                0,
                -29.454662322998047
            ]
        },
        {
            "children" : [
                0,
                1
            ],
            "name" : "dummyr_watch",
            "rotation" : [
                0,
                0,
                0,
                -1
            ]
        }
    ],
    "materials" : [
        {
            "name" : "Material3155.001",
            "pbrMetallicRoughness" : {
                "baseColorTexture" : {
                    "index" : 0
                },
                "metallicFactor" : 0
            }
        },
        {
            "emissiveFactor" : [
                1,
                1,
                1
            ],
            "emissiveTexture" : {
                "index" : 1
            },
            "name" : "glower10",
            "pbrMetallicRoughness" : {
                "baseColorTexture" : {
                    "index" : 2
                },
                "metallicFactor" : 0
            }
        },
        {
            "name" : "Material2590",
            "pbrMetallicRoughness" : {
                "baseColorTexture" : {
                    "index" : 3
                },
                "metallicFactor" : 0
            }
        },
        {
            "name" : "Material2281.004",
            "pbrMetallicRoughness" : {
                "baseColorTexture" : {
                    "index" : 4
                },
                "metallicFactor" : 0
            }
        }
    ],
    "meshes" : [
        {
            "name" : "polymsh22.001",
            "primitives" : [
                {
                    "attributes" : {
                        "POSITION" : 0,
                        "NORMAL" : 1,
                        "TEXCOORD_0" : 2
                    },
                    "indices" : 3,
                    "material" : 0
                },
                {
                    "attributes" : {
                        "POSITION" : 4,
                        "NORMAL" : 5,
                        "TEXCOORD_0" : 6
                    },
                    "indices" : 7,
                    "material" : 1
                },
                {
                    "attributes" : {
                        "POSITION" : 8,
                        "NORMAL" : 9,
                        "TEXCOORD_0" : 10
                    },
                    "indices" : 11,
                    "material" : 2
                },
                {
                    "attributes" : {
                        "POSITION" : 12,
                        "NORMAL" : 13,
                        "TEXCOORD_0" : 14
                    },
                    "indices" : 15,
                    "material" : 3
                }
            ]
        },
        {
            "name" : "polymsh_detached47",
            "primitives" : [
                {
                    "attributes" : {
                        "POSITION" : 16,
                        "NORMAL" : 17,
                        "TEXCOORD_0" : 18
                    },
                    "indices" : 19,
                    "material" : 0
                },
                {
                    "attributes" : {
                        "POSITION" : 20,
                        "NORMAL" : 21,
                        "TEXCOORD_0" : 22
                    },
                    "indices" : 7,
                    "material" : 1
                },
                {
                    "attributes" : {
                        "POSITION" : 23,
                        "NORMAL" : 24,
                        "TEXCOORD_0" : 25
                    },
                    "indices" : 26,
                    "material" : 2
                },
                {
                    "attributes" : {
                        "POSITION" : 27,
                        "NORMAL" : 28,
                        "TEXCOORD_0" : 29
                    },
                    "indices" : 30,
                    "material" : 3
                }
            ]
        }
    ],
    "textures" : [
        {
            "sampler" : 0,
            "source" : 0
        },
        {
            "sampler" : 0,
            "source" : 1
        },
        {
            "sampler" : 0,
            "source" : 1
        },
        {
            "sampler" : 0,
            "source" : 2
        },
        {
            "sampler" : 0,
            "source" : 3
        }
    ],
    "images" : [
        {
            "bufferView" : 4,
            "mimeType" : "image/png",
            "name" : "spa1_weap_moncal_blistercannon.tga"
        },
        {
            "bufferView" : 9,
            "mimeType" : "image/png",
            "name" : "pol1_prop_commscreen.tga"
        },
        {
            "bufferView" : 14,
            "mimeType" : "image/png",
            "name" : "bes1_bldg_main_01DOUBLED.tga"
        },
        {
            "bufferView" : 19,
            "mimeType" : "image/png",
            "name" : "bes1_bldg_platform_01QUADED.tga"
        }
    ],
    "accessors" : [
        {
            "bufferView" : 0,
            "componentType" : 5126,
            "count" : 40,
            "max" : [
                -21.78622817993164,
                8.856400489807129,
                33.04222106933594
            ],
            "min" : [
                -29.78622817993164,
                -1.9503207206726074,
                27.05292510986328
            ],
            "type" : "VEC3"
        },
        {
            "bufferView" : 1,
            "componentType" : 5126,
            "count" : 40,
            "type" : "VEC3"
        },
        {
            "bufferView" : 2,
            "componentType" : 5126,
            "count" : 40,
            "type" : "VEC2"
        },
        {
            "bufferView" : 3,
            "componentType" : 5123,
            "count" : 78,
            "type" : "SCALAR"
        },
        {
            "bufferView" : 5,
            "componentType" : 5126,
            "count" : 16,
            "max" : [
                -21.78622817993164,
                4.823951244354248,
                29.50531005859375
            ],
            "min" : [
                -21.986228942871094,
                1.9345176219940186,
                27.48265838623047
            ],
            "type" : "VEC3"
        },
        {
            "bufferView" : 6,
            "componentType" : 5126,
            "count" : 16,
            "type" : "VEC3"
        },
        {
            "bufferView" : 7,
            "componentType" : 5126,
            "count" : 16,
            "type" : "VEC2"
        },
        {
            "bufferView" : 8,
            "componentType" : 5123,
            "count" : 24,
            "type" : "SCALAR"
        },
        {
            "bufferView" : 10,
            "componentType" : 5126,
            "count" : 36,
            "max" : [
                -21.78622817993164,
                8.856400489807129,
                33.04222106933594
            ],
            "min" : [
                -29.78622817993164,
                -1.9503207206726074,
                27.05292510986328
            ],
            "type" : "VEC3"
        },
        {
            "bufferView" : 11,
            "componentType" : 5126,
            "count" : 36,
            "type" : "VEC3"
        },
        {
            "bufferView" : 12,
            "componentType" : 5126,
            "count" : 36,
            "type" : "VEC2"
        },
        {
            "bufferView" : 13,
            "componentType" : 5123,
            "count" : 60,
            "type" : "SCALAR"
        },
        {
            "bufferView" : 15,
            "componentType" : 5126,
            "count" : 18,
            "max" : [
                -21.986228942871094,
                7.678962230682373,
                32.88689422607422
            ],
            "min" : [
                -29.586227416992188,
                -1.637422800064087,
                27.197063446044922
            ],
            "type" : "VEC3"
        },
        {
            "bufferView" : 16,
            "componentType" : 5126,
            "count" : 18,
            "type" : "VEC3"
        },
        {
            "bufferView" : 17,
            "componentType" : 5126,
            "count" : 18,
            "type" : "VEC2"
        },
        {
            "bufferView" : 18,
            "componentType" : 5123,
            "count" : 30,
            "type" : "SCALAR"
        },
        {
            "bufferView" : 20,
            "componentType" : 5126,
            "count" : 20,
            "max" : [
                -28.636228561401367,
                8.856400489807129,
                33.04222106933594
            ],
            "min" : [
                -29.78622817993164,
                -1.9503207206726074,
                27.05292510986328
            ],
            "type" : "VEC3"
        },
        {
            "bufferView" : 21,
            "componentType" : 5126,
            "count" : 20,
            "type" : "VEC3"
        },
        {
            "bufferView" : 22,
            "componentType" : 5126,
            "count" : 20,
            "type" : "VEC2"
        },
        {
            "bufferView" : 23,
            "componentType" : 5123,
            "count" : 48,
            "type" : "SCALAR"
        },
        {
            "bufferView" : 24,
            "componentType" : 5126,
            "count" : 16,
            "max" : [
                -29.586227416992188,
                4.841198921203613,
                32.05292510986328
            ],
            "min" : [
                -29.78622817993164,
                1.9517654180526733,
                30.047061920166016
            ],
            "type" : "VEC3"
        },
        {
            "bufferView" : 25,
            "componentType" : 5126,
            "count" : 16,
            "type" : "VEC3"
        },
        {
            "bufferView" : 26,
            "componentType" : 5126,
            "count" : 16,
            "type" : "VEC2"
        },
        {
            "bufferView" : 27,
            "componentType" : 5126,
            "count" : 12,
            "max" : [
                -28.78622817993164,
                8.856400489807129,
                33.04222106933594
            ],
            "min" : [
                -29.78622817993164,
                -1.9503207206726074,
                27.05292510986328
            ],
            "type" : "VEC3"
        },
        {
            "bufferView" : 28,
            "componentType" : 5126,
            "count" : 12,
            "type" : "VEC3"
        },
        {
            "bufferView" : 29,
            "componentType" : 5126,
            "count" : 12,
            "type" : "VEC2"
        },
        {
            "bufferView" : 30,
            "componentType" : 5123,
            "count" : 24,
            "type" : "SCALAR"
        },
        {
            "bufferView" : 31,
            "componentType" : 5126,
            "count" : 12,
            "max" : [
                -29.586227416992188,
                7.678962230682373,
                33.04222106933594
            ],
            "min" : [
                -29.78622817993164,
                -1.9503207206726074,
                27.05292510986328
            ],
            "type" : "VEC3"
        },
        {
            "bufferView" : 32,
            "componentType" : 5126,
            "count" : 12,
            "type" : "VEC3"
        },
        {
            "bufferView" : 33,
            "componentType" : 5126,
            "count" : 12,
            "type" : "VEC2"
        },
        {
            "bufferView" : 34,
            "componentType" : 5123,
            "count" : 24,
            "type" : "SCALAR"
        }
    ],
    "bufferViews" : [
        {
            "buffer" : 0,
            "byteLength" : 480,
            "byteOffset" : 0
        },
        {
            "buffer" : 0,
            "byteLength" : 480,
            "byteOffset" : 480
        },
        {
            "buffer" : 0,
            "byteLength" : 320,
            "byteOffset" : 960
        },
        {
            "buffer" : 0,
            "byteLength" : 156,
            "byteOffset" : 1280
        },
        {
            "buffer" : 0,
            "byteLength" : 98144,
            "byteOffset" : 1436
        },
        {
            "buffer" : 0,
            "byteLength" : 192,
            "byteOffset" : 99580
        },
        {
            "buffer" : 0,
            "byteLength" : 192,
            "byteOffset" : 99772
        },
        {
            "buffer" : 0,
            "byteLength" : 128,
            "byteOffset" : 99964
        },
        {
            "buffer" : 0,
            "byteLength" : 48,
            "byteOffset" : 100092
        },
        {
            "buffer" : 0,
            "byteLength" : 68390,
            "byteOffset" : 100140
        },
        {
            "buffer" : 0,
            "byteLength" : 432,
            "byteOffset" : 168532
        },
        {
            "buffer" : 0,
            "byteLength" : 432,
            "byteOffset" : 168964
        },
        {
            "buffer" : 0,
            "byteLength" : 288,
            "byteOffset" : 169396
        },
        {
            "buffer" : 0,
            "byteLength" : 120,
            "byteOffset" : 169684
        },
        {
            "buffer" : 0,
            "byteLength" : 179350,
            "byteOffset" : 169804
        },
        {
            "buffer" : 0,
            "byteLength" : 216,
            "byteOffset" : 349156
        },
        {
            "buffer" : 0,
            "byteLength" : 216,
            "byteOffset" : 349372
        },
        {
            "buffer" : 0,
            "byteLength" : 144,
            "byteOffset" : 349588
        },
        {
            "buffer" : 0,
            "byteLength" : 60,
            "byteOffset" : 349732
        },
        {
            "buffer" : 0,
            "byteLength" : 384523,
            "byteOffset" : 349792
        },
        {
            "buffer" : 0,
            "byteLength" : 240,
            "byteOffset" : 734316
        },
        {
            "buffer" : 0,
            "byteLength" : 240,
            "byteOffset" : 734556
        },
        {
            "buffer" : 0,
            "byteLength" : 160,
            "byteOffset" : 734796
        },
        {
            "buffer" : 0,
            "byteLength" : 96,
            "byteOffset" : 734956
        },
        {
            "buffer" : 0,
            "byteLength" : 192,
            "byteOffset" : 735052
        },
        {
            "buffer" : 0,
            "byteLength" : 192,
            "byteOffset" : 735244
        },
        {
            "buffer" : 0,
            "byteLength" : 128,
            "byteOffset" : 735436
        },
        {
            "buffer" : 0,
            "byteLength" : 144,
            "byteOffset" : 735564
        },
        {
            "buffer" : 0,
            "byteLength" : 144,
            "byteOffset" : 735708
        },
        {
            "buffer" : 0,
            "byteLength" : 96,
            "byteOffset" : 735852
        },
        {
            "buffer" : 0,
            "byteLength" : 48,
            "byteOffset" : 735948
        },
        {
            "buffer" : 0,
            "byteLength" : 144,
            "byteOffset" : 735996
        },
        {
            "buffer" : 0,
            "byteLength" : 144,
            "byteOffset" : 736140
        },
        {
            "buffer" : 0,
            "byteLength" : 96,
            "byteOffset" : 736284
        },
        {
            "buffer" : 0,
            "byteLength" : 48,
            "byteOffset" : 736380
        }
    ],
    "samplers" : [
        {
            "magFilter" : 9729,
            "minFilter" : 9987
        }
    ],
    "buffers" : [
        {
            "byteLength" : 736428,
            "uri" : "data:application/octet-stream;base64,"
        }
    ]
}
