{
    "asset" : {
        "generator" : "Khronos glTF Blender I/O v1.7.33",
        "version" : "2.0"
    },
    "scene" : 0,
    "scenes" : [
        {
            "name" : "Scene",
            "nodes" : [
                4
            ]
        }
    ],
    "nodes" : [
        {
            "name" : "Texture_Support773",
            "rotation" : [
                -0.40947777032852173,
                -0.5591363906860352,
                0.370084285736084,
                -0.618653416633606
            ],
            "translation" : [
                115.5894546508789,
                -4.561163902282715,
                1.2695647478103638
            ]
        },
        {
            "children" : [
                0
            ],
            "mesh" : 0,
            "name" : "lab_rear_wall2",
            "rotation" : [
                0,
                0,
                0,
                -1
            ],
            "translation" : [
                -119.437255859375,
                8.319880485534668,
                25.550495147705078
            ]
        },
        {
            "mesh" : 1,
            "name" : "lab_rear_wall4",
            "rotation" : [
                0,
                0,
                0,
                -1
            ],
            "translation" : [
                2.2299118041992188,
                7.9328532218933105,
                -10.928604125976562
            ]
        },
        {
            "mesh" : 2,
            "name" : "polymsh",
            "rotation" : [
                0,
                0,
                0,
                -1
            ],
            "translation" : [
                -127.65868377685547,
                8.319880485534668,
                25.550495147705078
            ]
        },
        {
            "children" : [
                1,
                2,
                3
            ],
            "name" : "dummyroot_lab_back_wall",
            "rotation" : [
                0,
                0,
                0,
                -1
            ]
        }
    ],
    "materials" : [
        {
            "name" : "Material1576.001",
            "pbrMetallicRoughness" : {
                "baseColorTexture" : {
                    "index" : 0
                },
                "metallicFactor" : 0
            }
        },
        {
            "name" : "a_lab_floor3",
            "pbrMetallicRoughness" : {
                "baseColorTexture" : {
                    "index" : 1
                },
                "metallicFactor" : 0
            }
        }
    ],
    "meshes" : [
        {
            "name" : "lab_rear_wall2",
            "primitives" : [
                {
                    "attributes" : {
                        "POSITION" : 0,
                        "NORMAL" : 1,
                        "TEXCOORD_0" : 2
                    },
                    "indices" : 3,
                    "material" : 0
                },
                {
                    "attributes" : {
                        "POSITION" : 4,
                        "NORMAL" : 5,
                        "TEXCOORD_0" : 6
                    },
                    "indices" : 7,
                    "material" : 1
                }
            ]
        },
        {
            "name" : "lab_rear_wall4",
            "primitives" : [
                {
                    "attributes" : {
                        "POSITION" : 8,
                        "NORMAL" : 9,
                        "TEXCOORD_0" : 10
                    },
                    "indices" : 11,
                    "material" : 0
                }
            ]
        },
        {
            "name" : "polymsh",
            "primitives" : [
                {
                    "attributes" : {
                        "POSITION" : 12,
                        "NORMAL" : 13,
                        "TEXCOORD_0" : 14
                    },
                    "indices" : 15,
                    "material" : 0
                }
            ]
        }
    ],
    "textures" : [
        {
            "sampler" : 0,
            "source" : 0
        },
        {
            "sampler" : 0,
            "source" : 1
        }
    ],
    "images" : [
        {
            "bufferView" : 4,
            "mimeType" : "image/png",
            "name" : "dea1_bldg_hanger_wallB.tga"
        },
        {
            "bufferView" : 9,
            "mimeType" : "image/png",
            "name" : "dea1_bldg_platform_grate01.tga"
        }
    ],
    "accessors" : [
        {
            "bufferView" : 0,
            "componentType" : 5126,
            "count" : 76,
            "max" : [
                122.19215393066406,
                12.20720100402832,
                5.150093078613281
            ],
            "min" : [
                117.67237854003906,
                -15.378816604614258,
                -74.84990692138672
            ],
            "type" : "VEC3"
        },
        {
            "bufferView" : 1,
            "componentType" : 5126,
            "count" : 76,
            "type" : "VEC3"
        },
        {
            "bufferView" : 2,
            "componentType" : 5126,
            "count" : 76,
            "type" : "VEC2"
        },
        {
            "bufferView" : 3,
            "componentType" : 5123,
            "count" : 300,
            "type" : "SCALAR"
        },
        {
            "bufferView" : 5,
            "componentType" : 5126,
            "count" : 16,
            "max" : [
                118.66105651855469,
                -3.246962070465088,
                2.4710309505462646
            ],
            "min" : [
                112.7261734008789,
                -5.875365734100342,
                0.08920618891716003
            ],
            "type" : "VEC3"
        },
        {
            "bufferView" : 6,
            "componentType" : 5126,
            "count" : 16,
            "type" : "VEC3"
        },
        {
            "bufferView" : 7,
            "componentType" : 5126,
            "count" : 16,
            "type" : "VEC2"
        },
        {
            "bufferView" : 8,
            "componentType" : 5123,
            "count" : 24,
            "type" : "SCALAR"
        },
        {
            "bufferView" : 10,
            "componentType" : 5126,
            "count" : 78,
            "max" : [
                1.2516300678253174,
                12.59422779083252,
                41.62919235229492
            ],
            "min" : [
                -3.2681453227996826,
                -14.991789817810059,
                -38.37080764770508
            ],
            "type" : "VEC3"
        },
        {
            "bufferView" : 11,
            "componentType" : 5126,
            "count" : 78,
            "type" : "VEC3"
        },
        {
            "bufferView" : 12,
            "componentType" : 5126,
            "count" : 78,
            "type" : "VEC2"
        },
        {
            "bufferView" : 13,
            "componentType" : 5123,
            "count" : 264,
            "type" : "SCALAR"
        },
        {
            "bufferView" : 14,
            "componentType" : 5126,
            "count" : 70,
            "max" : [
                126.62045288085938,
                4.404585361480713,
                -59.73236846923828
            ],
            "min" : [
                125.89380645751953,
                -15.378816604614258,
                -74.84990692138672
            ],
            "type" : "VEC3"
        },
        {
            "bufferView" : 15,
            "componentType" : 5126,
            "count" : 70,
            "type" : "VEC3"
        },
        {
            "bufferView" : 16,
            "componentType" : 5126,
            "count" : 70,
            "type" : "VEC2"
        },
        {
            "bufferView" : 17,
            "componentType" : 5123,
            "count" : 255,
            "type" : "SCALAR"
        }
    ],
    "bufferViews" : [
        {
            "buffer" : 0,
            "byteLength" : 912,
            "byteOffset" : 0
        },
        {
            "buffer" : 0,
            "byteLength" : 912,
            "byteOffset" : 912
        },
        {
            "buffer" : 0,
            "byteLength" : 608,
            "byteOffset" : 1824
        },
        {
            "buffer" : 0,
            "byteLength" : 600,
            "byteOffset" : 2432
        },
        {
            "buffer" : 0,
            "byteLength" : 365578,
            "byteOffset" : 3032
        },
        {
            "buffer" : 0,
            "byteLength" : 192,
            "byteOffset" : 368612
        },
        {
            "buffer" : 0,
            "byteLength" : 192,
            "byteOffset" : 368804
        },
        {
            "buffer" : 0,
            "byteLength" : 128,
            "byteOffset" : 368996
        },
        {
            "buffer" : 0,
            "byteLength" : 48,
            "byteOffset" : 369124
        },
        {
            "buffer" : 0,
            "byteLength" : 80653,
            "byteOffset" : 369172
        },
        {
            "buffer" : 0,
            "byteLength" : 936,
            "byteOffset" : 449828
        },
        {
            "buffer" : 0,
            "byteLength" : 936,
            "byteOffset" : 450764
        },
        {
            "buffer" : 0,
            "byteLength" : 624,
            "byteOffset" : 451700
        },
        {
            "buffer" : 0,
            "byteLength" : 528,
            "byteOffset" : 452324
        },
        {
            "buffer" : 0,
            "byteLength" : 840,
            "byteOffset" : 452852
        },
        {
            "buffer" : 0,
            "byteLength" : 840,
            "byteOffset" : 453692
        },
        {
            "buffer" : 0,
            "byteLength" : 560,
            "byteOffset" : 454532
        },
        {
            "buffer" : 0,
            "byteLength" : 510,
            "byteOffset" : 455092
        }
    ],
    "samplers" : [
        {
            "magFilter" : 9729,
            "minFilter" : 9987
        }
    ],
    "buffers" : [
        {
            "byteLength" : 455604,
            "uri" : "data:application/octet-stream;base64,"
        }
    ]
}
