{
    "asset" : {
        "generator" : "Khronos glTF Blender I/O v1.7.33",
        "version" : "2.0"
    },
    "scene" : 0,
    "scenes" : [
        {
            "name" : "Scene",
            "nodes" : [
                4
            ]
        }
    ],
    "nodes" : [
        {
            "mesh" : 0,
            "name" : "cube14",
            "rotation" : [
                0,
                0,
                0,
                -1
            ],
            "translation" : [
                134.7677459716797,
                -7.244937419891357,
                -30.824081420898438
            ]
        },
        {
            "mesh" : 1,
            "name" : "lab_back_Wall_door_office_p1",
            "rotation" : [
                0,
                0,
                0,
                -1
            ],
            "translation" : [
                0,
                5.819368362426758,
                -2.923560619354248
            ]
        },
        {
            "mesh" : 2,
            "name" : "lab_back_Wall_door_office_p2",
            "rotation" : [
                0,
                0,
                0,
                -1
            ],
            "translation" : [
                0,
                5.819368362426758,
                -2.923560619354248
            ]
        },
        {
            "mesh" : 3,
            "name" : "postern_doorway2",
            "rotation" : [
                0,
                -0.7071068286895752,
                0,
                -0.7071068286895752
            ],
            "translation" : [
                130.86566162109375,
                1.704534649848938,
                -31.019258499145508
            ]
        },
        {
            "children" : [
                0,
                1,
                2,
                3
            ],
            "name" : "dummyroot-lab-back-office",
            "rotation" : [
                0,
                0,
                0,
                -1
            ],
            "translation" : [
                -134.2897186279297,
                5.819368362426758,
                24.43202781677246
            ]
        }
    ],
    "materials" : [
        {
            "name" : "wii_doorset2_col15",
            "pbrMetallicRoughness" : {
                "baseColorTexture" : {
                    "index" : 0
                },
                "metallicFactor" : 0
            }
        },
        {
            "name" : "Material3095.002",
            "pbrMetallicRoughness" : {
                "baseColorTexture" : {
                    "index" : 1
                },
                "metallicFactor" : 0
            }
        },
        {
            "name" : "Material1576",
            "pbrMetallicRoughness" : {
                "baseColorTexture" : {
                    "index" : 2
                },
                "metallicFactor" : 0
            }
        },
        {
            "name" : "Material120",
            "pbrMetallicRoughness" : {
                "baseColorTexture" : {
                    "index" : 3
                },
                "metallicFactor" : 0
            }
        }
    ],
    "meshes" : [
        {
            "name" : "cube14",
            "primitives" : [
                {
                    "attributes" : {
                        "POSITION" : 0,
                        "NORMAL" : 1,
                        "TEXCOORD_0" : 2
                    },
                    "indices" : 3,
                    "material" : 0
                },
                {
                    "attributes" : {
                        "POSITION" : 4,
                        "NORMAL" : 5,
                        "TEXCOORD_0" : 6
                    },
                    "indices" : 7,
                    "material" : 1
                }
            ]
        },
        {
            "name" : "lab_back_Wall_door_office_p1",
            "primitives" : [
                {
                    "attributes" : {
                        "POSITION" : 8,
                        "NORMAL" : 9,
                        "TEXCOORD_0" : 10
                    },
                    "indices" : 11,
                    "material" : 2
                }
            ]
        },
        {
            "name" : "lab_back_Wall_door_office_p2",
            "primitives" : [
                {
                    "attributes" : {
                        "POSITION" : 12,
                        "NORMAL" : 13,
                        "TEXCOORD_0" : 14
                    },
                    "indices" : 15,
                    "material" : 2
                }
            ]
        },
        {
            "name" : "postern_doorway2",
            "primitives" : [
                {
                    "attributes" : {
                        "POSITION" : 16,
                        "NORMAL" : 17,
                        "TEXCOORD_0" : 18
                    },
                    "indices" : 19,
                    "material" : 3
                },
                {
                    "attributes" : {
                        "POSITION" : 20,
                        "NORMAL" : 21,
                        "TEXCOORD_0" : 22
                    },
                    "indices" : 23,
                    "material" : 1
                }
            ]
        }
    ],
    "textures" : [
        {
            "sampler" : 0,
            "source" : 0
        },
        {
            "sampler" : 0,
            "source" : 1
        },
        {
            "sampler" : 0,
            "source" : 1
        },
        {
            "sampler" : 0,
            "source" : 2
        }
    ],
    "images" : [
        {
            "bufferView" : 4,
            "mimeType" : "image/png",
            "name" : "spa1_stardestroyer_floor2.tga"
        },
        {
            "bufferView" : 9,
            "mimeType" : "image/png",
            "name" : "dea1_bldg_hanger_wallB.tga"
        },
        {
            "bufferView" : 22,
            "mimeType" : "image/png",
            "name" : "dea1_bldg_main_wall_01.tga"
        }
    ],
    "accessors" : [
        {
            "bufferView" : 0,
            "componentType" : 5126,
            "count" : 40,
            "max" : [
                18.139326095581055,
                4,
                35.96407699584961
            ],
            "min" : [
                -8.878032684326172,
                -4,
                -26.089082717895508
            ],
            "type" : "VEC3"
        },
        {
            "bufferView" : 1,
            "componentType" : 5126,
            "count" : 40,
            "type" : "VEC3"
        },
        {
            "bufferView" : 2,
            "componentType" : 5126,
            "count" : 40,
            "type" : "VEC2"
        },
        {
            "bufferView" : 3,
            "componentType" : 5123,
            "count" : 78,
            "type" : "SCALAR"
        },
        {
            "bufferView" : 5,
            "componentType" : 5126,
            "count" : 4,
            "max" : [
                -4.331999778747559,
                4,
                14.180000305175781
            ],
            "min" : [
                -4.331999778747559,
                -4,
                -14.180000305175781
            ],
            "type" : "VEC3"
        },
        {
            "bufferView" : 6,
            "componentType" : 5126,
            "count" : 4,
            "type" : "VEC3"
        },
        {
            "bufferView" : 7,
            "componentType" : 5126,
            "count" : 4,
            "type" : "VEC2"
        },
        {
            "bufferView" : 8,
            "componentType" : 5123,
            "count" : 6,
            "type" : "SCALAR"
        },
        {
            "bufferView" : 10,
            "componentType" : 5126,
            "count" : 16,
            "max" : [
                131.1402130126953,
                -3.9866676330566406,
                -29.55812644958496
            ],
            "min" : [
                130.41358947753906,
                -15.378816604614258,
                -32.39218521118164
            ],
            "type" : "VEC3"
        },
        {
            "bufferView" : 11,
            "componentType" : 5126,
            "count" : 16,
            "type" : "VEC3"
        },
        {
            "bufferView" : 12,
            "componentType" : 5126,
            "count" : 16,
            "type" : "VEC2"
        },
        {
            "bufferView" : 13,
            "componentType" : 5123,
            "count" : 30,
            "type" : "SCALAR"
        },
        {
            "bufferView" : 14,
            "componentType" : 5126,
            "count" : 38,
            "max" : [
                131.1402130126953,
                12.20720100402832,
                -29.55812644958496
            ],
            "min" : [
                130.41358947753906,
                1.3360894918441772,
                -32.39218521118164
            ],
            "type" : "VEC3"
        },
        {
            "bufferView" : 15,
            "componentType" : 5126,
            "count" : 38,
            "type" : "VEC3"
        },
        {
            "bufferView" : 16,
            "componentType" : 5126,
            "count" : 38,
            "type" : "VEC2"
        },
        {
            "bufferView" : 17,
            "componentType" : 5123,
            "count" : 102,
            "type" : "SCALAR"
        },
        {
            "bufferView" : 18,
            "componentType" : 5126,
            "count" : 225,
            "max" : [
                13.944950103759766,
                10.04928207397461,
                0.4439418315887451
            ],
            "min" : [
                -14.214086532592773,
                -11.220605850219727,
                -0.687113881111145
            ],
            "type" : "VEC3"
        },
        {
            "bufferView" : 19,
            "componentType" : 5126,
            "count" : 225,
            "type" : "VEC3"
        },
        {
            "bufferView" : 20,
            "componentType" : 5126,
            "count" : 225,
            "type" : "VEC2"
        },
        {
            "bufferView" : 21,
            "componentType" : 5123,
            "count" : 594,
            "type" : "SCALAR"
        },
        {
            "bufferView" : 23,
            "componentType" : 5126,
            "count" : 16,
            "max" : [
                13.944950103759766,
                9.444580078125,
                -0.39311257004737854
            ],
            "min" : [
                -14.214086532592773,
                -5.158143520355225,
                -0.6037482023239136
            ],
            "type" : "VEC3"
        },
        {
            "bufferView" : 24,
            "componentType" : 5126,
            "count" : 16,
            "type" : "VEC3"
        },
        {
            "bufferView" : 25,
            "componentType" : 5126,
            "count" : 16,
            "type" : "VEC2"
        },
        {
            "bufferView" : 26,
            "componentType" : 5123,
            "count" : 36,
            "type" : "SCALAR"
        }
    ],
    "bufferViews" : [
        {
            "buffer" : 0,
            "byteLength" : 480,
            "byteOffset" : 0
        },
        {
            "buffer" : 0,
            "byteLength" : 480,
            "byteOffset" : 480
        },
        {
            "buffer" : 0,
            "byteLength" : 320,
            "byteOffset" : 960
        },
        {
            "buffer" : 0,
            "byteLength" : 156,
            "byteOffset" : 1280
        },
        {
            "buffer" : 0,
            "byteLength" : 75115,
            "byteOffset" : 1436
        },
        {
            "buffer" : 0,
            "byteLength" : 48,
            "byteOffset" : 76552
        },
        {
            "buffer" : 0,
            "byteLength" : 48,
            "byteOffset" : 76600
        },
        {
            "buffer" : 0,
            "byteLength" : 32,
            "byteOffset" : 76648
        },
        {
            "buffer" : 0,
            "byteLength" : 12,
            "byteOffset" : 76680
        },
        {
            "buffer" : 0,
            "byteLength" : 365578,
            "byteOffset" : 76692
        },
        {
            "buffer" : 0,
            "byteLength" : 192,
            "byteOffset" : 442272
        },
        {
            "buffer" : 0,
            "byteLength" : 192,
            "byteOffset" : 442464
        },
        {
            "buffer" : 0,
            "byteLength" : 128,
            "byteOffset" : 442656
        },
        {
            "buffer" : 0,
            "byteLength" : 60,
            "byteOffset" : 442784
        },
        {
            "buffer" : 0,
            "byteLength" : 456,
            "byteOffset" : 442844
        },
        {
            "buffer" : 0,
            "byteLength" : 456,
            "byteOffset" : 443300
        },
        {
            "buffer" : 0,
            "byteLength" : 304,
            "byteOffset" : 443756
        },
        {
            "buffer" : 0,
            "byteLength" : 204,
            "byteOffset" : 444060
        },
        {
            "buffer" : 0,
            "byteLength" : 2700,
            "byteOffset" : 444264
        },
        {
            "buffer" : 0,
            "byteLength" : 2700,
            "byteOffset" : 446964
        },
        {
            "buffer" : 0,
            "byteLength" : 1800,
            "byteOffset" : 449664
        },
        {
            "buffer" : 0,
            "byteLength" : 1188,
            "byteOffset" : 451464
        },
        {
            "buffer" : 0,
            "byteLength" : 279504,
            "byteOffset" : 452652
        },
        {
            "buffer" : 0,
            "byteLength" : 192,
            "byteOffset" : 732156
        },
        {
            "buffer" : 0,
            "byteLength" : 192,
            "byteOffset" : 732348
        },
        {
            "buffer" : 0,
            "byteLength" : 128,
            "byteOffset" : 732540
        },
        {
            "buffer" : 0,
            "byteLength" : 72,
            "byteOffset" : 732668
        }
    ],
    "samplers" : [
        {
            "magFilter" : 9729,
            "minFilter" : 9987
        }
    ],
    "buffers" : [
        {
            "byteLength" : 732740,
            "uri" : "data:application/octet-stream;base64,"
        }
    ]
}
