{
    "asset" : {
        "generator" : "Khronos glTF Blender I/O v1.7.33",
        "version" : "2.0"
    },
    "scene" : 0,
    "scenes" : [
        {
            "name" : "Scene",
            "nodes" : [
                0
            ]
        }
    ],
    "nodes" : [
        {
            "mesh" : 0,
            "name" : "cube40",
            "rotation" : [
                0,
                0,
                0,
                -1
            ],
            "translation" : [
                -11.749418258666992,
                0.7024567127227783,
                34.02907180786133
            ]
        }
    ],
    "materials" : [
        {
            "name" : "Scene_Material58",
            "pbrMetallicRoughness" : {
                "baseColorTexture" : {
                    "index" : 0
                },
                "metallicFactor" : 0
            }
        },
        {
            "name" : "Scene_Material59",
            "pbrMetallicRoughness" : {
                "baseColorTexture" : {
                    "index" : 1
                },
                "metallicFactor" : 0
            }
        },
        {
            "name" : "Material54",
            "pbrMetallicRoughness" : {
                "baseColorTexture" : {
                    "index" : 2
                },
                "metallicFactor" : 0
            }
        },
        {
            "name" : "Material56",
            "pbrMetallicRoughness" : {
                "baseColorTexture" : {
                    "index" : 3
                },
                "metallicFactor" : 0
            }
        },
        {
            "name" : "Material55",
            "pbrMetallicRoughness" : {
                "baseColorTexture" : {
                    "index" : 4
                },
                "metallicFactor" : 0
            }
        }
    ],
    "meshes" : [
        {
            "name" : "cube40",
            "primitives" : [
                {
                    "attributes" : {
                        "POSITION" : 0,
                        "NORMAL" : 1,
                        "TEXCOORD_0" : 2
                    },
                    "indices" : 3,
                    "material" : 0
                },
                {
                    "attributes" : {
                        "POSITION" : 4,
                        "NORMAL" : 5,
                        "TEXCOORD_0" : 6
                    },
                    "indices" : 3,
                    "material" : 1
                },
                {
                    "attributes" : {
                        "POSITION" : 7,
                        "NORMAL" : 8,
                        "TEXCOORD_0" : 9
                    },
                    "indices" : 10,
                    "material" : 2
                },
                {
                    "attributes" : {
                        "POSITION" : 11,
                        "NORMAL" : 12,
                        "TEXCOORD_0" : 13
                    },
                    "indices" : 14,
                    "material" : 3
                },
                {
                    "attributes" : {
                        "POSITION" : 15,
                        "NORMAL" : 16,
                        "TEXCOORD_0" : 17
                    },
                    "indices" : 3,
                    "material" : 4
                }
            ]
        }
    ],
    "textures" : [
        {
            "sampler" : 0,
            "source" : 0
        },
        {
            "sampler" : 0,
            "source" : 1
        },
        {
            "sampler" : 0,
            "source" : 2
        },
        {
            "sampler" : 0,
            "source" : 3
        },
        {
            "sampler" : 0,
            "source" : 4
        }
    ],
    "images" : [
        {
            "bufferView" : 4,
            "mimeType" : "image/png",
            "name" : "white.tga"
        },
        {
            "bufferView" : 8,
            "mimeType" : "image/png",
            "name" : "spa1_bldg_stardestroyer_command_01.tga"
        },
        {
            "bufferView" : 13,
            "mimeType" : "image/png",
            "name" : "spa1_bldg_stardestroyer_hanger_01"
        },
        {
            "bufferView" : 18,
            "mimeType" : "image/png",
            "name" : "spa1_bldg_stardestroyer_detail_01.tga"
        },
        {
            "bufferView" : 22,
            "mimeType" : "image/png",
            "name" : "spa1_bldg_stardestroyer_hanger_01.tga"
        }
    ],
    "accessors" : [
        {
            "bufferView" : 0,
            "componentType" : 5126,
            "count" : 4,
            "max" : [
                12.850717544555664,
                -1.2187303304672241,
                -30.20013999938965
            ],
            "min" : [
                10.690409660339355,
                -1.2187303304672241,
                -38.20014190673828
            ],
            "type" : "VEC3"
        },
        {
            "bufferView" : 1,
            "componentType" : 5126,
            "count" : 4,
            "type" : "VEC3"
        },
        {
            "bufferView" : 2,
            "componentType" : 5126,
            "count" : 4,
            "type" : "VEC2"
        },
        {
            "bufferView" : 3,
            "componentType" : 5123,
            "count" : 6,
            "type" : "SCALAR"
        },
        {
            "bufferView" : 5,
            "componentType" : 5126,
            "count" : 4,
            "max" : [
                12.437045097351074,
                0.9540395736694336,
                -30.20013999938965
            ],
            "min" : [
                10.690409660339355,
                -0.05609166622161865,
                -38.20014190673828
            ],
            "type" : "VEC3"
        },
        {
            "bufferView" : 6,
            "componentType" : 5126,
            "count" : 4,
            "type" : "VEC3"
        },
        {
            "bufferView" : 7,
            "componentType" : 5126,
            "count" : 4,
            "type" : "VEC2"
        },
        {
            "bufferView" : 9,
            "componentType" : 5126,
            "count" : 8,
            "max" : [
                12.852863311767578,
                0.9540395736694336,
                -30.20013999938965
            ],
            "min" : [
                12.437045097351074,
                -1.2187303304672241,
                -38.20014190673828
            ],
            "type" : "VEC3"
        },
        {
            "bufferView" : 10,
            "componentType" : 5126,
            "count" : 8,
            "type" : "VEC3"
        },
        {
            "bufferView" : 11,
            "componentType" : 5126,
            "count" : 8,
            "type" : "VEC2"
        },
        {
            "bufferView" : 12,
            "componentType" : 5123,
            "count" : 12,
            "type" : "SCALAR"
        },
        {
            "bufferView" : 14,
            "componentType" : 5126,
            "count" : 10,
            "max" : [
                12.852863311767578,
                0.9540395736694336,
                -30.20013999938965
            ],
            "min" : [
                10.690409660339355,
                -1.2187303304672241,
                -38.20014190673828
            ],
            "type" : "VEC3"
        },
        {
            "bufferView" : 15,
            "componentType" : 5126,
            "count" : 10,
            "type" : "VEC3"
        },
        {
            "bufferView" : 16,
            "componentType" : 5126,
            "count" : 10,
            "type" : "VEC2"
        },
        {
            "bufferView" : 17,
            "componentType" : 5123,
            "count" : 18,
            "type" : "SCALAR"
        },
        {
            "bufferView" : 19,
            "componentType" : 5126,
            "count" : 4,
            "max" : [
                10.690409660339355,
                -0.05609166622161865,
                -30.20013999938965
            ],
            "min" : [
                10.690409660339355,
                -1.2187303304672241,
                -38.20014190673828
            ],
            "type" : "VEC3"
        },
        {
            "bufferView" : 20,
            "componentType" : 5126,
            "count" : 4,
            "type" : "VEC3"
        },
        {
            "bufferView" : 21,
            "componentType" : 5126,
            "count" : 4,
            "type" : "VEC2"
        }
    ],
    "bufferViews" : [
        {
            "buffer" : 0,
            "byteLength" : 48,
            "byteOffset" : 0
        },
        {
            "buffer" : 0,
            "byteLength" : 48,
            "byteOffset" : 48
        },
        {
            "buffer" : 0,
            "byteLength" : 32,
            "byteOffset" : 96
        },
        {
            "buffer" : 0,
            "byteLength" : 12,
            "byteOffset" : 128
        },
        {
            "buffer" : 0,
            "byteLength" : 336886,
            "byteOffset" : 140
        },
        {
            "buffer" : 0,
            "byteLength" : 48,
            "byteOffset" : 337028
        },
        {
            "buffer" : 0,
            "byteLength" : 48,
            "byteOffset" : 337076
        },
        {
            "buffer" : 0,
            "byteLength" : 32,
            "byteOffset" : 337124
        },
        {
            "buffer" : 0,
            "byteLength" : 50415,
            "byteOffset" : 337156
        },
        {
            "buffer" : 0,
            "byteLength" : 96,
            "byteOffset" : 387572
        },
        {
            "buffer" : 0,
            "byteLength" : 96,
            "byteOffset" : 387668
        },
        {
            "buffer" : 0,
            "byteLength" : 64,
            "byteOffset" : 387764
        },
        {
            "buffer" : 0,
            "byteLength" : 24,
            "byteOffset" : 387828
        },
        {
            "buffer" : 0,
            "byteLength" : 453536,
            "byteOffset" : 387852
        },
        {
            "buffer" : 0,
            "byteLength" : 120,
            "byteOffset" : 841388
        },
        {
            "buffer" : 0,
            "byteLength" : 120,
            "byteOffset" : 841508
        },
        {
            "buffer" : 0,
            "byteLength" : 80,
            "byteOffset" : 841628
        },
        {
            "buffer" : 0,
            "byteLength" : 36,
            "byteOffset" : 841708
        },
        {
            "buffer" : 0,
            "byteLength" : 12962,
            "byteOffset" : 841744
        },
        {
            "buffer" : 0,
            "byteLength" : 48,
            "byteOffset" : 854708
        },
        {
            "buffer" : 0,
            "byteLength" : 48,
            "byteOffset" : 854756
        },
        {
            "buffer" : 0,
            "byteLength" : 32,
            "byteOffset" : 854804
        },
        {
            "buffer" : 0,
            "byteLength" : 453536,
            "byteOffset" : 854836
        }
    ],
    "samplers" : [
        {
            "magFilter" : 9729,
            "minFilter" : 9987
        }
    ],
    "buffers" : [
        {
            "byteLength" : 1308372,
            "uri" : "data:application/octet-stream;base64,"
        }
    ]
}
