{
    "asset" : {
        "generator" : "Khronos glTF Blender I/O v1.7.33",
        "version" : "2.0"
    },
    "scene" : 0,
    "scenes" : [
        {
            "name" : "Scene",
            "nodes" : [
                5
            ]
        }
    ],
    "nodes" : [
        {
            "mesh" : 0,
            "name" : "chair_office",
            "rotation" : [
                0,
                0,
                0,
                -1
            ],
            "translation" : [
                1.3049092292785645,
                1.8152494430541992,
                52.97988510131836
            ]
        },
        {
            "mesh" : 1,
            "name" : "chair_office1",
            "rotation" : [
                0,
                0,
                0,
                -1
            ],
            "translation" : [
                1.2919795513153076,
                1.8152494430541992,
                50.806251525878906
            ]
        },
        {
            "mesh" : 2,
            "name" : "chair_office2",
            "rotation" : [
                0,
                -1,
                0,
                -6.123234262925839e-17
            ],
            "translation" : [
                -1.4170904159545898,
                1.8152494430541992,
                -50.55691146850586
            ]
        },
        {
            "mesh" : 3,
            "name" : "chair_office3",
            "rotation" : [
                0,
                -1,
                0,
                -6.123234262925839e-17
            ],
            "translation" : [
                -1.4300200939178467,
                1.8152494430541992,
                -52.73054885864258
            ]
        },
        {
            "mesh" : 4,
            "name" : "table_office",
            "rotation" : [
                0,
                0,
                0,
                -1
            ],
            "translation" : [
                1.3049092292785645,
                1.8152494430541992,
                52.97988510131836
            ]
        },
        {
            "children" : [
                0,
                1,
                2,
                3,
                4
            ],
            "name" : "dummyroot-table-chair-office",
            "rotation" : [
                0,
                0,
                0,
                -1
            ]
        }
    ],
    "materials" : [
        {
            "name" : "Material179_copy_copy_copy_copy2",
            "pbrMetallicRoughness" : {
                "baseColorTexture" : {
                    "index" : 0
                },
                "metallicFactor" : 0
            }
        },
        {
            "name" : "Scene_Material304.004",
            "pbrMetallicRoughness" : {
                "baseColorTexture" : {
                    "index" : 1
                },
                "metallicFactor" : 0
            }
        },
        {
            "name" : "white_walk_grate1",
            "pbrMetallicRoughness" : {
                "baseColorTexture" : {
                    "index" : 2
                },
                "metallicFactor" : 0
            }
        }
    ],
    "meshes" : [
        {
            "name" : "chair_office",
            "primitives" : [
                {
                    "attributes" : {
                        "POSITION" : 0,
                        "NORMAL" : 1,
                        "TEXCOORD_0" : 2
                    },
                    "indices" : 3,
                    "material" : 0
                },
                {
                    "attributes" : {
                        "POSITION" : 4,
                        "NORMAL" : 5,
                        "TEXCOORD_0" : 6
                    },
                    "indices" : 7,
                    "material" : 1
                }
            ]
        },
        {
            "name" : "chair_office1",
            "primitives" : [
                {
                    "attributes" : {
                        "POSITION" : 8,
                        "NORMAL" : 9,
                        "TEXCOORD_0" : 10
                    },
                    "indices" : 3,
                    "material" : 0
                },
                {
                    "attributes" : {
                        "POSITION" : 11,
                        "NORMAL" : 12,
                        "TEXCOORD_0" : 13
                    },
                    "indices" : 7,
                    "material" : 1
                }
            ]
        },
        {
            "name" : "chair_office2",
            "primitives" : [
                {
                    "attributes" : {
                        "POSITION" : 14,
                        "NORMAL" : 15,
                        "TEXCOORD_0" : 16
                    },
                    "indices" : 3,
                    "material" : 0
                },
                {
                    "attributes" : {
                        "POSITION" : 17,
                        "NORMAL" : 18,
                        "TEXCOORD_0" : 19
                    },
                    "indices" : 7,
                    "material" : 1
                }
            ]
        },
        {
            "name" : "chair_office3",
            "primitives" : [
                {
                    "attributes" : {
                        "POSITION" : 20,
                        "NORMAL" : 21,
                        "TEXCOORD_0" : 22
                    },
                    "indices" : 3,
                    "material" : 0
                },
                {
                    "attributes" : {
                        "POSITION" : 23,
                        "NORMAL" : 24,
                        "TEXCOORD_0" : 25
                    },
                    "indices" : 7,
                    "material" : 1
                }
            ]
        },
        {
            "name" : "table_office",
            "primitives" : [
                {
                    "attributes" : {
                        "POSITION" : 26,
                        "NORMAL" : 27,
                        "TEXCOORD_0" : 28
                    },
                    "indices" : 29,
                    "material" : 2
                }
            ]
        }
    ],
    "textures" : [
        {
            "sampler" : 0,
            "source" : 0
        },
        {
            "sampler" : 0,
            "source" : 1
        },
        {
            "sampler" : 0,
            "source" : 2
        }
    ],
    "images" : [
        {
            "bufferView" : 4,
            "mimeType" : "image/png",
            "name" : "dea1_bldg_over_bridge_comp"
        },
        {
            "bufferView" : 9,
            "mimeType" : "image/png",
            "name" : "spa1_bldg_stardestroyer_command_04"
        },
        {
            "bufferView" : 32,
            "mimeType" : "image/png",
            "name" : "dea1_bldg_platform_grate01.tga"
        }
    ],
    "accessors" : [
        {
            "bufferView" : 0,
            "componentType" : 5126,
            "count" : 245,
            "max" : [
                -2.8119797706604004,
                -0.49167943000793457,
                -51.321781158447266
            ],
            "min" : [
                -3.7347660064697266,
                -1.9786173105239868,
                -52.16017150878906
            ],
            "type" : "VEC3"
        },
        {
            "bufferView" : 1,
            "componentType" : 5126,
            "count" : 245,
            "type" : "VEC3"
        },
        {
            "bufferView" : 2,
            "componentType" : 5126,
            "count" : 245,
            "type" : "VEC2"
        },
        {
            "bufferView" : 3,
            "componentType" : 5123,
            "count" : 594,
            "type" : "SCALAR"
        },
        {
            "bufferView" : 5,
            "componentType" : 5126,
            "count" : 240,
            "max" : [
                -2.8482258319854736,
                -1.8719241619110107,
                -51.27309799194336
            ],
            "min" : [
                -3.7837092876434326,
                -2.0001752376556396,
                -52.20387649536133
            ],
            "type" : "VEC3"
        },
        {
            "bufferView" : 6,
            "componentType" : 5126,
            "count" : 240,
            "type" : "VEC3"
        },
        {
            "bufferView" : 7,
            "componentType" : 5126,
            "count" : 240,
            "type" : "VEC2"
        },
        {
            "bufferView" : 8,
            "componentType" : 5123,
            "count" : 552,
            "type" : "SCALAR"
        },
        {
            "bufferView" : 10,
            "componentType" : 5126,
            "count" : 245,
            "max" : [
                -2.8119797706604004,
                -0.49167943000793457,
                -51.321781158447266
            ],
            "min" : [
                -3.7347660064697266,
                -1.9786173105239868,
                -52.16017150878906
            ],
            "type" : "VEC3"
        },
        {
            "bufferView" : 11,
            "componentType" : 5126,
            "count" : 245,
            "type" : "VEC3"
        },
        {
            "bufferView" : 12,
            "componentType" : 5126,
            "count" : 245,
            "type" : "VEC2"
        },
        {
            "bufferView" : 13,
            "componentType" : 5126,
            "count" : 240,
            "max" : [
                -2.8482258319854736,
                -1.8719241619110107,
                -51.27309799194336
            ],
            "min" : [
                -3.7837092876434326,
                -2.0001752376556396,
                -52.20387649536133
            ],
            "type" : "VEC3"
        },
        {
            "bufferView" : 14,
            "componentType" : 5126,
            "count" : 240,
            "type" : "VEC3"
        },
        {
            "bufferView" : 15,
            "componentType" : 5126,
            "count" : 240,
            "type" : "VEC2"
        },
        {
            "bufferView" : 16,
            "componentType" : 5126,
            "count" : 245,
            "max" : [
                -2.8119797706604004,
                -0.49167943000793457,
                -51.321781158447266
            ],
            "min" : [
                -3.7347660064697266,
                -1.9786173105239868,
                -52.16017150878906
            ],
            "type" : "VEC3"
        },
        {
            "bufferView" : 17,
            "componentType" : 5126,
            "count" : 245,
            "type" : "VEC3"
        },
        {
            "bufferView" : 18,
            "componentType" : 5126,
            "count" : 245,
            "type" : "VEC2"
        },
        {
            "bufferView" : 19,
            "componentType" : 5126,
            "count" : 240,
            "max" : [
                -2.8482258319854736,
                -1.8719241619110107,
                -51.27309799194336
            ],
            "min" : [
                -3.7837092876434326,
                -2.0001752376556396,
                -52.20387649536133
            ],
            "type" : "VEC3"
        },
        {
            "bufferView" : 20,
            "componentType" : 5126,
            "count" : 240,
            "type" : "VEC3"
        },
        {
            "bufferView" : 21,
            "componentType" : 5126,
            "count" : 240,
            "type" : "VEC2"
        },
        {
            "bufferView" : 22,
            "componentType" : 5126,
            "count" : 245,
            "max" : [
                -2.8119797706604004,
                -0.49167943000793457,
                -51.321781158447266
            ],
            "min" : [
                -3.7347660064697266,
                -1.9786173105239868,
                -52.16017150878906
            ],
            "type" : "VEC3"
        },
        {
            "bufferView" : 23,
            "componentType" : 5126,
            "count" : 245,
            "type" : "VEC3"
        },
        {
            "bufferView" : 24,
            "componentType" : 5126,
            "count" : 245,
            "type" : "VEC2"
        },
        {
            "bufferView" : 25,
            "componentType" : 5126,
            "count" : 240,
            "max" : [
                -2.8482258319854736,
                -1.8719241619110107,
                -51.27309799194336
            ],
            "min" : [
                -3.7837092876434326,
                -2.0001752376556396,
                -52.20387649536133
            ],
            "type" : "VEC3"
        },
        {
            "bufferView" : 26,
            "componentType" : 5126,
            "count" : 240,
            "type" : "VEC3"
        },
        {
            "bufferView" : 27,
            "componentType" : 5126,
            "count" : 240,
            "type" : "VEC2"
        },
        {
            "bufferView" : 28,
            "componentType" : 5126,
            "count" : 451,
            "max" : [
                0.1984078586101532,
                -0.9893902540206909,
                -49.72285842895508
            ],
            "min" : [
                -2.8244340419769287,
                -2.0527987480163574,
                -56.0987663269043
            ],
            "type" : "VEC3"
        },
        {
            "bufferView" : 29,
            "componentType" : 5126,
            "count" : 451,
            "type" : "VEC3"
        },
        {
            "bufferView" : 30,
            "componentType" : 5126,
            "count" : 451,
            "type" : "VEC2"
        },
        {
            "bufferView" : 31,
            "componentType" : 5123,
            "count" : 1338,
            "type" : "SCALAR"
        }
    ],
    "bufferViews" : [
        {
            "buffer" : 0,
            "byteLength" : 2940,
            "byteOffset" : 0
        },
        {
            "buffer" : 0,
            "byteLength" : 2940,
            "byteOffset" : 2940
        },
        {
            "buffer" : 0,
            "byteLength" : 1960,
            "byteOffset" : 5880
        },
        {
            "buffer" : 0,
            "byteLength" : 1188,
            "byteOffset" : 7840
        },
        {
            "buffer" : 0,
            "byteLength" : 331616,
            "byteOffset" : 9028
        },
        {
            "buffer" : 0,
            "byteLength" : 2880,
            "byteOffset" : 340644
        },
        {
            "buffer" : 0,
            "byteLength" : 2880,
            "byteOffset" : 343524
        },
        {
            "buffer" : 0,
            "byteLength" : 1920,
            "byteOffset" : 346404
        },
        {
            "buffer" : 0,
            "byteLength" : 1104,
            "byteOffset" : 348324
        },
        {
            "buffer" : 0,
            "byteLength" : 109641,
            "byteOffset" : 349428
        },
        {
            "buffer" : 0,
            "byteLength" : 2940,
            "byteOffset" : 459072
        },
        {
            "buffer" : 0,
            "byteLength" : 2940,
            "byteOffset" : 462012
        },
        {
            "buffer" : 0,
            "byteLength" : 1960,
            "byteOffset" : 464952
        },
        {
            "buffer" : 0,
            "byteLength" : 2880,
            "byteOffset" : 466912
        },
        {
            "buffer" : 0,
            "byteLength" : 2880,
            "byteOffset" : 469792
        },
        {
            "buffer" : 0,
            "byteLength" : 1920,
            "byteOffset" : 472672
        },
        {
            "buffer" : 0,
            "byteLength" : 2940,
            "byteOffset" : 474592
        },
        {
            "buffer" : 0,
            "byteLength" : 2940,
            "byteOffset" : 477532
        },
        {
            "buffer" : 0,
            "byteLength" : 1960,
            "byteOffset" : 480472
        },
        {
            "buffer" : 0,
            "byteLength" : 2880,
            "byteOffset" : 482432
        },
        {
            "buffer" : 0,
            "byteLength" : 2880,
            "byteOffset" : 485312
        },
        {
            "buffer" : 0,
            "byteLength" : 1920,
            "byteOffset" : 488192
        },
        {
            "buffer" : 0,
            "byteLength" : 2940,
            "byteOffset" : 490112
        },
        {
            "buffer" : 0,
            "byteLength" : 2940,
            "byteOffset" : 493052
        },
        {
            "buffer" : 0,
            "byteLength" : 1960,
            "byteOffset" : 495992
        },
        {
            "buffer" : 0,
            "byteLength" : 2880,
            "byteOffset" : 497952
        },
        {
            "buffer" : 0,
            "byteLength" : 2880,
            "byteOffset" : 500832
        },
        {
            "buffer" : 0,
            "byteLength" : 1920,
            "byteOffset" : 503712
        },
        {
            "buffer" : 0,
            "byteLength" : 5412,
            "byteOffset" : 505632
        },
        {
            "buffer" : 0,
            "byteLength" : 5412,
            "byteOffset" : 511044
        },
        {
            "buffer" : 0,
            "byteLength" : 3608,
            "byteOffset" : 516456
        },
        {
            "buffer" : 0,
            "byteLength" : 2676,
            "byteOffset" : 520064
        },
        {
            "buffer" : 0,
            "byteLength" : 80653,
            "byteOffset" : 522740
        }
    ],
    "samplers" : [
        {
            "magFilter" : 9729,
            "minFilter" : 9987
        }
    ],
    "buffers" : [
        {
            "byteLength" : 603396,
            "uri" : "data:application/octet-stream;base64,"
        }
    ]
}
