{
    "asset" : {
        "generator" : "Khronos glTF Blender I/O v1.7.33",
        "version" : "2.0"
    },
    "scene" : 0,
    "scenes" : [
        {
            "name" : "Scene",
            "nodes" : [
                0
            ]
        }
    ],
    "nodes" : [
        {
            "mesh" : 0,
            "name" : "green_tubes",
            "rotation" : [
                0,
                0,
                0,
                -1
            ],
            "translation" : [
                -107.29939270019531,
                0,
                30.80848503112793
            ]
        }
    ],
    "materials" : [
        {
            "doubleSided" : true,
            "emissiveFactor" : [
                1,
                1,
                1
            ],
            "emissiveTexture" : {
                "index" : 0
            },
            "name" : "Material3088",
            "pbrMetallicRoughness" : {
                "baseColorTexture" : {
                    "index" : 1
                },
                "metallicFactor" : 0
            }
        },
        {
            "name" : "wii_metalrusty_col.001",
            "pbrMetallicRoughness" : {
                "baseColorTexture" : {
                    "index" : 2
                },
                "metallicFactor" : 0
            }
        },
        {
            "doubleSided" : true,
            "emissiveFactor" : [
                1,
                1,
                1
            ],
            "emissiveTexture" : {
                "index" : 3
            },
            "name" : "greentubenumber1",
            "pbrMetallicRoughness" : {
                "baseColorTexture" : {
                    "index" : 4
                },
                "metallicFactor" : 0
            }
        }
    ],
    "meshes" : [
        {
            "name" : "green_tubes",
            "primitives" : [
                {
                    "attributes" : {
                        "POSITION" : 0,
                        "NORMAL" : 1,
                        "TEXCOORD_0" : 2
                    },
                    "indices" : 3,
                    "material" : 0
                },
                {
                    "attributes" : {
                        "POSITION" : 4,
                        "NORMAL" : 5,
                        "TEXCOORD_0" : 6
                    },
                    "indices" : 7,
                    "material" : 1
                },
                {
                    "attributes" : {
                        "POSITION" : 8,
                        "NORMAL" : 9,
                        "TEXCOORD_0" : 10
                    },
                    "indices" : 11,
                    "material" : 1
                },
                {
                    "attributes" : {
                        "POSITION" : 12,
                        "NORMAL" : 13,
                        "TEXCOORD_0" : 14
                    },
                    "indices" : 15,
                    "material" : 2
                }
            ]
        }
    ],
    "textures" : [
        {
            "sampler" : 0,
            "source" : 0
        },
        {
            "sampler" : 0,
            "source" : 0
        },
        {
            "sampler" : 0,
            "source" : 1
        },
        {
            "sampler" : 0,
            "source" : 2
        },
        {
            "sampler" : 0,
            "source" : 2
        }
    ],
    "images" : [
        {
            "bufferView" : 4,
            "mimeType" : "image/png",
            "name" : "spa_fx2_with_metal"
        },
        {
            "bufferView" : 9,
            "mimeType" : "image/png",
            "name" : "spa1_prop_pipes1.tga"
        },
        {
            "bufferView" : 18,
            "mimeType" : "image/png",
            "name" : "spa_fx2"
        }
    ],
    "accessors" : [
        {
            "bufferView" : 0,
            "componentType" : 5126,
            "count" : 384,
            "max" : [
                115.54928588867188,
                20.761228561401367,
                -23.73477554321289
            ],
            "min" : [
                98.37235260009766,
                -2.4357080459594727,
                -38.26773452758789
            ],
            "type" : "VEC3"
        },
        {
            "bufferView" : 1,
            "componentType" : 5126,
            "count" : 384,
            "type" : "VEC3"
        },
        {
            "bufferView" : 2,
            "componentType" : 5126,
            "count" : 384,
            "type" : "VEC2"
        },
        {
            "bufferView" : 3,
            "componentType" : 5123,
            "count" : 1152,
            "type" : "SCALAR"
        },
        {
            "bufferView" : 5,
            "componentType" : 5126,
            "count" : 576,
            "max" : [
                115.54928588867188,
                20.761228561401367,
                -23.73477554321289
            ],
            "min" : [
                98.37235260009766,
                -2.4357080459594727,
                -38.26773452758789
            ],
            "type" : "VEC3"
        },
        {
            "bufferView" : 6,
            "componentType" : 5126,
            "count" : 576,
            "type" : "VEC3"
        },
        {
            "bufferView" : 7,
            "componentType" : 5126,
            "count" : 576,
            "type" : "VEC2"
        },
        {
            "bufferView" : 8,
            "componentType" : 5123,
            "count" : 1728,
            "type" : "SCALAR"
        },
        {
            "bufferView" : 10,
            "componentType" : 5126,
            "count" : 768,
            "max" : [
                115.54928588867188,
                18.492393493652344,
                -23.73477554321289
            ],
            "min" : [
                98.37235260009766,
                -1.266937017440796,
                -38.26773452758789
            ],
            "type" : "VEC3"
        },
        {
            "bufferView" : 11,
            "componentType" : 5126,
            "count" : 768,
            "type" : "VEC3"
        },
        {
            "bufferView" : 12,
            "componentType" : 5126,
            "count" : 768,
            "type" : "VEC2"
        },
        {
            "bufferView" : 13,
            "componentType" : 5123,
            "count" : 2304,
            "type" : "SCALAR"
        },
        {
            "bufferView" : 14,
            "componentType" : 5126,
            "count" : 384,
            "max" : [
                115.38036346435547,
                18.492393493652344,
                -23.90369987487793
            ],
            "min" : [
                98.54127502441406,
                -1.266937017440796,
                -38.09880828857422
            ],
            "type" : "VEC3"
        },
        {
            "bufferView" : 15,
            "componentType" : 5126,
            "count" : 384,
            "type" : "VEC3"
        },
        {
            "bufferView" : 16,
            "componentType" : 5126,
            "count" : 384,
            "type" : "VEC2"
        },
        {
            "bufferView" : 17,
            "componentType" : 5123,
            "count" : 1152,
            "type" : "SCALAR"
        }
    ],
    "bufferViews" : [
        {
            "buffer" : 0,
            "byteLength" : 4608,
            "byteOffset" : 0
        },
        {
            "buffer" : 0,
            "byteLength" : 4608,
            "byteOffset" : 4608
        },
        {
            "buffer" : 0,
            "byteLength" : 3072,
            "byteOffset" : 9216
        },
        {
            "buffer" : 0,
            "byteLength" : 2304,
            "byteOffset" : 12288
        },
        {
            "buffer" : 0,
            "byteLength" : 43310,
            "byteOffset" : 14592
        },
        {
            "buffer" : 0,
            "byteLength" : 6912,
            "byteOffset" : 57904
        },
        {
            "buffer" : 0,
            "byteLength" : 6912,
            "byteOffset" : 64816
        },
        {
            "buffer" : 0,
            "byteLength" : 4608,
            "byteOffset" : 71728
        },
        {
            "buffer" : 0,
            "byteLength" : 3456,
            "byteOffset" : 76336
        },
        {
            "buffer" : 0,
            "byteLength" : 107374,
            "byteOffset" : 79792
        },
        {
            "buffer" : 0,
            "byteLength" : 9216,
            "byteOffset" : 187168
        },
        {
            "buffer" : 0,
            "byteLength" : 9216,
            "byteOffset" : 196384
        },
        {
            "buffer" : 0,
            "byteLength" : 6144,
            "byteOffset" : 205600
        },
        {
            "buffer" : 0,
            "byteLength" : 4608,
            "byteOffset" : 211744
        },
        {
            "buffer" : 0,
            "byteLength" : 4608,
            "byteOffset" : 216352
        },
        {
            "buffer" : 0,
            "byteLength" : 4608,
            "byteOffset" : 220960
        },
        {
            "buffer" : 0,
            "byteLength" : 3072,
            "byteOffset" : 225568
        },
        {
            "buffer" : 0,
            "byteLength" : 2304,
            "byteOffset" : 228640
        },
        {
            "buffer" : 0,
            "byteLength" : 47289,
            "byteOffset" : 230944
        }
    ],
    "samplers" : [
        {
            "magFilter" : 9729,
            "minFilter" : 9987
        }
    ],
    "buffers" : [
        {
            "byteLength" : 278236,
            "uri" : "data:application/octet-stream;base64,"
        }
    ]
}
