{
    "asset" : {
        "generator" : "Khronos glTF Blender I/O v1.7.33",
        "version" : "2.0"
    },
    "scene" : 0,
    "scenes" : [
        {
            "name" : "Scene",
            "nodes" : [
                0
            ]
        }
    ],
    "nodes" : [
        {
            "mesh" : 0,
            "name" : "spinner",
            "rotation" : [
                0,
                0,
                0,
                -1
            ]
        }
    ],
    "materials" : [
        {
            "name" : "wii_doorset2_col22.004",
            "pbrMetallicRoughness" : {
                "baseColorTexture" : {
                    "index" : 0
                },
                "metallicFactor" : 0
            }
        },
        {
            "name" : "Material0",
            "pbrMetallicRoughness" : {
                "baseColorTexture" : {
                    "index" : 1
                },
                "metallicFactor" : 0
            }
        },
        {
            "doubleSided" : true,
            "emissiveFactor" : [
                1,
                1,
                1
            ],
            "emissiveTexture" : {
                "index" : 2
            },
            "name" : "Material561",
            "pbrMetallicRoughness" : {
                "baseColorTexture" : {
                    "index" : 3
                },
                "metallicFactor" : 0
            }
        }
    ],
    "meshes" : [
        {
            "name" : "spinner",
            "primitives" : [
                {
                    "attributes" : {
                        "POSITION" : 0,
                        "NORMAL" : 1,
                        "TEXCOORD_0" : 2
                    },
                    "indices" : 3,
                    "material" : 0
                },
                {
                    "attributes" : {
                        "POSITION" : 4,
                        "NORMAL" : 5,
                        "TEXCOORD_0" : 6
                    },
                    "indices" : 7,
                    "material" : 1
                },
                {
                    "attributes" : {
                        "POSITION" : 8,
                        "NORMAL" : 9,
                        "TEXCOORD_0" : 10
                    },
                    "indices" : 11,
                    "material" : 2
                }
            ]
        }
    ],
    "textures" : [
        {
            "sampler" : 0,
            "source" : 0
        },
        {
            "sampler" : 0,
            "source" : 1
        },
        {
            "sampler" : 0,
            "source" : 2
        },
        {
            "sampler" : 0,
            "source" : 2
        }
    ],
    "images" : [
        {
            "bufferView" : 4,
            "mimeType" : "image/png",
            "name" : "spa1_prop_imp_controlunit"
        },
        {
            "bufferView" : 9,
            "mimeType" : "image/png",
            "name" : "spa2_prop_pipeage.tga"
        },
        {
            "bufferView" : 14,
            "mimeType" : "image/png",
            "name" : "spa_fx2.tga"
        }
    ],
    "accessors" : [
        {
            "bufferView" : 0,
            "componentType" : 5126,
            "count" : 90,
            "max" : [
                0.6000000238418579,
                20,
                3
            ],
            "min" : [
                -0.6000000238418579,
                18.144811630249023,
                -3
            ],
            "type" : "VEC3"
        },
        {
            "bufferView" : 1,
            "componentType" : 5126,
            "count" : 90,
            "type" : "VEC3"
        },
        {
            "bufferView" : 2,
            "componentType" : 5126,
            "count" : 90,
            "type" : "VEC2"
        },
        {
            "bufferView" : 3,
            "componentType" : 5123,
            "count" : 168,
            "type" : "SCALAR"
        },
        {
            "bufferView" : 5,
            "componentType" : 5126,
            "count" : 48,
            "max" : [
                0.6000000238418579,
                18.2559871673584,
                2.2242374420166016
            ],
            "min" : [
                -0.6000000238418579,
                -20,
                -2.2242374420166016
            ],
            "type" : "VEC3"
        },
        {
            "bufferView" : 6,
            "componentType" : 5126,
            "count" : 48,
            "type" : "VEC3"
        },
        {
            "bufferView" : 7,
            "componentType" : 5126,
            "count" : 48,
            "type" : "VEC2"
        },
        {
            "bufferView" : 8,
            "componentType" : 5123,
            "count" : 108,
            "type" : "SCALAR"
        },
        {
            "bufferView" : 10,
            "componentType" : 5126,
            "count" : 16,
            "max" : [
                0.4213809669017792,
                18.2559871673584,
                2.2242374420166016
            ],
            "min" : [
                -0.42020243406295776,
                -20,
                -2.2242374420166016
            ],
            "type" : "VEC3"
        },
        {
            "bufferView" : 11,
            "componentType" : 5126,
            "count" : 16,
            "type" : "VEC3"
        },
        {
            "bufferView" : 12,
            "componentType" : 5126,
            "count" : 16,
            "type" : "VEC2"
        },
        {
            "bufferView" : 13,
            "componentType" : 5123,
            "count" : 24,
            "type" : "SCALAR"
        }
    ],
    "bufferViews" : [
        {
            "buffer" : 0,
            "byteLength" : 1080,
            "byteOffset" : 0
        },
        {
            "buffer" : 0,
            "byteLength" : 1080,
            "byteOffset" : 1080
        },
        {
            "buffer" : 0,
            "byteLength" : 720,
            "byteOffset" : 2160
        },
        {
            "buffer" : 0,
            "byteLength" : 336,
            "byteOffset" : 2880
        },
        {
            "buffer" : 0,
            "byteLength" : 64970,
            "byteOffset" : 3216
        },
        {
            "buffer" : 0,
            "byteLength" : 576,
            "byteOffset" : 68188
        },
        {
            "buffer" : 0,
            "byteLength" : 576,
            "byteOffset" : 68764
        },
        {
            "buffer" : 0,
            "byteLength" : 384,
            "byteOffset" : 69340
        },
        {
            "buffer" : 0,
            "byteLength" : 216,
            "byteOffset" : 69724
        },
        {
            "buffer" : 0,
            "byteLength" : 117504,
            "byteOffset" : 69940
        },
        {
            "buffer" : 0,
            "byteLength" : 192,
            "byteOffset" : 187444
        },
        {
            "buffer" : 0,
            "byteLength" : 192,
            "byteOffset" : 187636
        },
        {
            "buffer" : 0,
            "byteLength" : 128,
            "byteOffset" : 187828
        },
        {
            "buffer" : 0,
            "byteLength" : 48,
            "byteOffset" : 187956
        },
        {
            "buffer" : 0,
            "byteLength" : 47289,
            "byteOffset" : 188004
        }
    ],
    "samplers" : [
        {
            "magFilter" : 9729,
            "minFilter" : 9987
        }
    ],
    "buffers" : [
        {
            "byteLength" : 235296,
            "uri" : "data:application/octet-stream;base64,"
        }
    ]
}
