{
    "asset" : {
        "generator" : "Khronos glTF Blender I/O v1.7.33",
        "version" : "2.0"
    },
    "scene" : 0,
    "scenes" : [
        {
            "name" : "Scene",
            "nodes" : [
                2
            ]
        }
    ],
    "nodes" : [
        {
            "mesh" : 0,
            "name" : "a_glowing_cylinder",
            "rotation" : [
                0,
                0,
                0,
                -1
            ],
            "translation" : [
                -7.841432094573975,
                3.141383171081543,
                0.6759786605834961
            ]
        },
        {
            "mesh" : 1,
            "name" : "a_glowing_cylinder1",
            "rotation" : [
                0,
                0,
                0,
                -1
            ],
            "translation" : [
                6.843389987945557,
                3.141383171081543,
                0.6759786605834961
            ]
        },
        {
            "children" : [
                0,
                1
            ],
            "name" : "a_glowing_cyl_dummyroot",
            "rotation" : [
                0,
                0,
                0,
                -1
            ]
        }
    ],
    "materials" : [
        {
            "name" : "wii_metalrusty_col",
            "pbrMetallicRoughness" : {
                "baseColorTexture" : {
                    "index" : 0
                },
                "metallicFactor" : 0
            }
        },
        {
            "doubleSided" : true,
            "emissiveFactor" : [
                1,
                1,
                1
            ],
            "emissiveTexture" : {
                "index" : 1
            },
            "name" : "a_red_fx",
            "pbrMetallicRoughness" : {
                "baseColorTexture" : {
                    "index" : 2
                },
                "metallicFactor" : 0
            }
        },
        {
            "name" : "Material9",
            "pbrMetallicRoughness" : {
                "baseColorTexture" : {
                    "index" : 3
                },
                "metallicFactor" : 0
            }
        },
        {
            "emissiveFactor" : [
                1,
                1,
                1
            ],
            "emissiveTexture" : {
                "index" : 4
            },
            "name" : "roygbiv.001",
            "pbrMetallicRoughness" : {
                "baseColorTexture" : {
                    "index" : 5
                },
                "metallicFactor" : 0
            }
        }
    ],
    "meshes" : [
        {
            "name" : "a_glowing_cylinder",
            "primitives" : [
                {
                    "attributes" : {
                        "POSITION" : 0,
                        "NORMAL" : 1,
                        "TEXCOORD_0" : 2
                    },
                    "indices" : 3,
                    "material" : 0
                },
                {
                    "attributes" : {
                        "POSITION" : 4,
                        "NORMAL" : 5,
                        "TEXCOORD_0" : 6
                    },
                    "indices" : 7,
                    "material" : 1
                },
                {
                    "attributes" : {
                        "POSITION" : 8,
                        "NORMAL" : 9,
                        "TEXCOORD_0" : 10
                    },
                    "indices" : 11,
                    "material" : 2
                },
                {
                    "attributes" : {
                        "POSITION" : 12,
                        "NORMAL" : 13,
                        "TEXCOORD_0" : 14
                    },
                    "indices" : 15,
                    "material" : 3
                }
            ]
        },
        {
            "name" : "a_glowing_cylinder1",
            "primitives" : [
                {
                    "attributes" : {
                        "POSITION" : 16,
                        "NORMAL" : 17,
                        "TEXCOORD_0" : 18
                    },
                    "indices" : 3,
                    "material" : 0
                },
                {
                    "attributes" : {
                        "POSITION" : 19,
                        "NORMAL" : 20,
                        "TEXCOORD_0" : 21
                    },
                    "indices" : 7,
                    "material" : 1
                },
                {
                    "attributes" : {
                        "POSITION" : 22,
                        "NORMAL" : 23,
                        "TEXCOORD_0" : 24
                    },
                    "indices" : 11,
                    "material" : 2
                },
                {
                    "attributes" : {
                        "POSITION" : 25,
                        "NORMAL" : 26,
                        "TEXCOORD_0" : 27
                    },
                    "indices" : 15,
                    "material" : 3
                }
            ]
        }
    ],
    "textures" : [
        {
            "sampler" : 0,
            "source" : 0
        },
        {
            "sampler" : 0,
            "source" : 1
        },
        {
            "sampler" : 0,
            "source" : 1
        },
        {
            "sampler" : 0,
            "source" : 2
        },
        {
            "sampler" : 0,
            "source" : 3
        },
        {
            "sampler" : 0,
            "source" : 3
        }
    ],
    "images" : [
        {
            "bufferView" : 4,
            "mimeType" : "image/png",
            "name" : "spa1_prop_pipes1.tga"
        },
        {
            "bufferView" : 9,
            "mimeType" : "image/png",
            "name" : "spa_fx1"
        },
        {
            "bufferView" : 14,
            "mimeType" : "image/png",
            "name" : "tat1_bldg_moist_tank.tga"
        },
        {
            "bufferView" : 19,
            "mimeType" : "image/png",
            "name" : "imp_prop_console_fx"
        }
    ],
    "accessors" : [
        {
            "bufferView" : 0,
            "componentType" : 5126,
            "count" : 54,
            "max" : [
                2.5,
                8.498116493225098,
                2.5
            ],
            "min" : [
                -2.5,
                -9.174686431884766,
                -2.5
            ],
            "type" : "VEC3"
        },
        {
            "bufferView" : 1,
            "componentType" : 5126,
            "count" : 54,
            "type" : "VEC3"
        },
        {
            "bufferView" : 2,
            "componentType" : 5126,
            "count" : 54,
            "type" : "VEC2"
        },
        {
            "bufferView" : 3,
            "componentType" : 5123,
            "count" : 120,
            "type" : "SCALAR"
        },
        {
            "bufferView" : 5,
            "componentType" : 5126,
            "count" : 16,
            "max" : [
                2.1667141914367676,
                7.608116149902344,
                2.1667141914367676
            ],
            "min" : [
                -2.1667141914367676,
                -8.284686088562012,
                -2.1667141914367676
            ],
            "type" : "VEC3"
        },
        {
            "bufferView" : 6,
            "componentType" : 5126,
            "count" : 16,
            "type" : "VEC3"
        },
        {
            "bufferView" : 7,
            "componentType" : 5126,
            "count" : 16,
            "type" : "VEC2"
        },
        {
            "bufferView" : 8,
            "componentType" : 5123,
            "count" : 24,
            "type" : "SCALAR"
        },
        {
            "bufferView" : 10,
            "componentType" : 5126,
            "count" : 32,
            "max" : [
                2.218477964401245,
                7.8081159591674805,
                2.218477964401245
            ],
            "min" : [
                -2.218477964401245,
                -8.484685897827148,
                -2.218477964401245
            ],
            "type" : "VEC3"
        },
        {
            "bufferView" : 11,
            "componentType" : 5126,
            "count" : 32,
            "type" : "VEC3"
        },
        {
            "bufferView" : 12,
            "componentType" : 5126,
            "count" : 32,
            "type" : "VEC2"
        },
        {
            "bufferView" : 13,
            "componentType" : 5123,
            "count" : 96,
            "type" : "SCALAR"
        },
        {
            "bufferView" : 15,
            "componentType" : 5126,
            "count" : 64,
            "max" : [
                2.5,
                8.498116493225098,
                2.5
            ],
            "min" : [
                -2.5,
                -9.174686431884766,
                -2.5
            ],
            "type" : "VEC3"
        },
        {
            "bufferView" : 16,
            "componentType" : 5126,
            "count" : 64,
            "type" : "VEC3"
        },
        {
            "bufferView" : 17,
            "componentType" : 5126,
            "count" : 64,
            "type" : "VEC2"
        },
        {
            "bufferView" : 18,
            "componentType" : 5123,
            "count" : 96,
            "type" : "SCALAR"
        },
        {
            "bufferView" : 20,
            "componentType" : 5126,
            "count" : 54,
            "max" : [
                2.5,
                8.498116493225098,
                2.5
            ],
            "min" : [
                -2.5,
                -9.174686431884766,
                -2.5
            ],
            "type" : "VEC3"
        },
        {
            "bufferView" : 21,
            "componentType" : 5126,
            "count" : 54,
            "type" : "VEC3"
        },
        {
            "bufferView" : 22,
            "componentType" : 5126,
            "count" : 54,
            "type" : "VEC2"
        },
        {
            "bufferView" : 23,
            "componentType" : 5126,
            "count" : 16,
            "max" : [
                2.1667141914367676,
                7.608116149902344,
                2.1667141914367676
            ],
            "min" : [
                -2.1667141914367676,
                -8.284686088562012,
                -2.1667141914367676
            ],
            "type" : "VEC3"
        },
        {
            "bufferView" : 24,
            "componentType" : 5126,
            "count" : 16,
            "type" : "VEC3"
        },
        {
            "bufferView" : 25,
            "componentType" : 5126,
            "count" : 16,
            "type" : "VEC2"
        },
        {
            "bufferView" : 26,
            "componentType" : 5126,
            "count" : 32,
            "max" : [
                2.218477964401245,
                7.8081159591674805,
                2.218477964401245
            ],
            "min" : [
                -2.218477964401245,
                -8.484685897827148,
                -2.218477964401245
            ],
            "type" : "VEC3"
        },
        {
            "bufferView" : 27,
            "componentType" : 5126,
            "count" : 32,
            "type" : "VEC3"
        },
        {
            "bufferView" : 28,
            "componentType" : 5126,
            "count" : 32,
            "type" : "VEC2"
        },
        {
            "bufferView" : 29,
            "componentType" : 5126,
            "count" : 64,
            "max" : [
                2.5,
                8.498116493225098,
                2.5
            ],
            "min" : [
                -2.5,
                -9.174686431884766,
                -2.5
            ],
            "type" : "VEC3"
        },
        {
            "bufferView" : 30,
            "componentType" : 5126,
            "count" : 64,
            "type" : "VEC3"
        },
        {
            "bufferView" : 31,
            "componentType" : 5126,
            "count" : 64,
            "type" : "VEC2"
        }
    ],
    "bufferViews" : [
        {
            "buffer" : 0,
            "byteLength" : 648,
            "byteOffset" : 0
        },
        {
            "buffer" : 0,
            "byteLength" : 648,
            "byteOffset" : 648
        },
        {
            "buffer" : 0,
            "byteLength" : 432,
            "byteOffset" : 1296
        },
        {
            "buffer" : 0,
            "byteLength" : 240,
            "byteOffset" : 1728
        },
        {
            "buffer" : 0,
            "byteLength" : 107374,
            "byteOffset" : 1968
        },
        {
            "buffer" : 0,
            "byteLength" : 192,
            "byteOffset" : 109344
        },
        {
            "buffer" : 0,
            "byteLength" : 192,
            "byteOffset" : 109536
        },
        {
            "buffer" : 0,
            "byteLength" : 128,
            "byteOffset" : 109728
        },
        {
            "buffer" : 0,
            "byteLength" : 48,
            "byteOffset" : 109856
        },
        {
            "buffer" : 0,
            "byteLength" : 46469,
            "byteOffset" : 109904
        },
        {
            "buffer" : 0,
            "byteLength" : 384,
            "byteOffset" : 156376
        },
        {
            "buffer" : 0,
            "byteLength" : 384,
            "byteOffset" : 156760
        },
        {
            "buffer" : 0,
            "byteLength" : 256,
            "byteOffset" : 157144
        },
        {
            "buffer" : 0,
            "byteLength" : 192,
            "byteOffset" : 157400
        },
        {
            "buffer" : 0,
            "byteLength" : 628895,
            "byteOffset" : 157592
        },
        {
            "buffer" : 0,
            "byteLength" : 768,
            "byteOffset" : 786488
        },
        {
            "buffer" : 0,
            "byteLength" : 768,
            "byteOffset" : 787256
        },
        {
            "buffer" : 0,
            "byteLength" : 512,
            "byteOffset" : 788024
        },
        {
            "buffer" : 0,
            "byteLength" : 192,
            "byteOffset" : 788536
        },
        {
            "buffer" : 0,
            "byteLength" : 2452,
            "byteOffset" : 788728
        },
        {
            "buffer" : 0,
            "byteLength" : 648,
            "byteOffset" : 791180
        },
        {
            "buffer" : 0,
            "byteLength" : 648,
            "byteOffset" : 791828
        },
        {
            "buffer" : 0,
            "byteLength" : 432,
            "byteOffset" : 792476
        },
        {
            "buffer" : 0,
            "byteLength" : 192,
            "byteOffset" : 792908
        },
        {
            "buffer" : 0,
            "byteLength" : 192,
            "byteOffset" : 793100
        },
        {
            "buffer" : 0,
            "byteLength" : 128,
            "byteOffset" : 793292
        },
        {
            "buffer" : 0,
            "byteLength" : 384,
            "byteOffset" : 793420
        },
        {
            "buffer" : 0,
            "byteLength" : 384,
            "byteOffset" : 793804
        },
        {
            "buffer" : 0,
            "byteLength" : 256,
            "byteOffset" : 794188
        },
        {
            "buffer" : 0,
            "byteLength" : 768,
            "byteOffset" : 794444
        },
        {
            "buffer" : 0,
            "byteLength" : 768,
            "byteOffset" : 795212
        },
        {
            "buffer" : 0,
            "byteLength" : 512,
            "byteOffset" : 795980
        }
    ],
    "samplers" : [
        {
            "magFilter" : 9729,
            "minFilter" : 9987
        }
    ],
    "buffers" : [
        {
            "byteLength" : 796492,
            "uri" : "data:application/octet-stream;base64,"
        }
    ]
}
