{
    "asset" : {
        "generator" : "Khronos glTF Blender I/O v1.7.33",
        "version" : "2.0"
    },
    "scene" : 0,
    "scenes" : [
        {
            "name" : "Scene",
            "nodes" : [
                6
            ]
        }
    ],
    "nodes" : [
        {
            "mesh" : 0,
            "name" : "cube39",
            "rotation" : [
                0.19637088477611542,
                0.3623407483100891,
                0.07838442176580429,
                -0.907746434211731
            ],
            "translation" : [
                -10.983664512634277,
                7.092530250549316,
                11.096025466918945
            ]
        },
        {
            "mesh" : 1,
            "name" : "cube41",
            "rotation" : [
                0.028700411319732666,
                0.9683454036712646,
                0.2094801515340805,
                -0.13267086446285248
            ],
            "translation" : [
                -3.853231906890869,
                7.092530250549316,
                -15.132681846618652
            ]
        },
        {
            "mesh" : 2,
            "name" : "cube42",
            "rotation" : [
                -0.16808873414993286,
                0.5929177403450012,
                0.1282646507024765,
                0.7770089507102966
            ],
            "translation" : [
                15.149374961853027,
                7.092530250549316,
                4.009738922119141
            ]
        },
        {
            "mesh" : 3,
            "name" : "cube43",
            "rotation" : [
                0.07755003869533539,
                -0.90927654504776,
                -0.19670189917087555,
                -0.3584837019443512
            ],
            "translation" : [
                6.838801860809326,
                3.7986533641815186,
                -6.913610458374023
            ]
        },
        {
            "mesh" : 4,
            "name" : "cube44",
            "rotation" : [
                0.20947426557540894,
                -0.13286899030208588,
                -0.02874327264726162,
                -0.9683182239532471
            ],
            "translation" : [
                2.2396926879882812,
                3.780120611190796,
                9.193941116333008
            ]
        },
        {
            "mesh" : 5,
            "name" : "cube45",
            "rotation" : [
                -0.12839293479919434,
                -0.776556134223938,
                -0.1679907739162445,
                0.5935106873512268
            ],
            "translation" : [
                -9.573731422424316,
                4.062781810760498,
                -2.5234344005584717
            ]
        },
        {
            "children" : [
                0,
                1,
                2,
                3,
                4,
                5
            ],
            "name" : "dummyroot_windows_jail",
            "rotation" : [
                0,
                0,
                0,
                -1
            ]
        }
    ],
    "materials" : [
        {
            "name" : "Material3086",
            "pbrMetallicRoughness" : {
                "baseColorTexture" : {
                    "index" : 0
                },
                "metallicFactor" : 0
            }
        }
    ],
    "meshes" : [
        {
            "name" : "cube39",
            "primitives" : [
                {
                    "attributes" : {
                        "POSITION" : 0,
                        "NORMAL" : 1,
                        "TEXCOORD_0" : 2
                    },
                    "indices" : 3,
                    "material" : 0
                }
            ]
        },
        {
            "name" : "cube41",
            "primitives" : [
                {
                    "attributes" : {
                        "POSITION" : 4,
                        "NORMAL" : 5,
                        "TEXCOORD_0" : 6
                    },
                    "indices" : 3,
                    "material" : 0
                }
            ]
        },
        {
            "name" : "cube42",
            "primitives" : [
                {
                    "attributes" : {
                        "POSITION" : 7,
                        "NORMAL" : 8,
                        "TEXCOORD_0" : 9
                    },
                    "indices" : 3,
                    "material" : 0
                }
            ]
        },
        {
            "name" : "cube43",
            "primitives" : [
                {
                    "attributes" : {
                        "POSITION" : 10,
                        "NORMAL" : 11,
                        "TEXCOORD_0" : 12
                    },
                    "indices" : 3,
                    "material" : 0
                }
            ]
        },
        {
            "name" : "cube44",
            "primitives" : [
                {
                    "attributes" : {
                        "POSITION" : 13,
                        "NORMAL" : 14,
                        "TEXCOORD_0" : 15
                    },
                    "indices" : 3,
                    "material" : 0
                }
            ]
        },
        {
            "name" : "cube45",
            "primitives" : [
                {
                    "attributes" : {
                        "POSITION" : 16,
                        "NORMAL" : 17,
                        "TEXCOORD_0" : 18
                    },
                    "indices" : 3,
                    "material" : 0
                }
            ]
        }
    ],
    "textures" : [
        {
            "sampler" : 0,
            "source" : 0
        }
    ],
    "images" : [
        {
            "bufferView" : 4,
            "mimeType" : "image/png",
            "name" : "bridge.tga"
        }
    ],
    "accessors" : [
        {
            "bufferView" : 0,
            "componentType" : 5126,
            "count" : 24,
            "max" : [
                3.183433771133423,
                2.2801859378814697,
                0.16930513083934784
            ],
            "min" : [
                -3.183433771133423,
                -2.2801859378814697,
                -0.16930513083934784
            ],
            "type" : "VEC3"
        },
        {
            "bufferView" : 1,
            "componentType" : 5126,
            "count" : 24,
            "type" : "VEC3"
        },
        {
            "bufferView" : 2,
            "componentType" : 5126,
            "count" : 24,
            "type" : "VEC2"
        },
        {
            "bufferView" : 3,
            "componentType" : 5123,
            "count" : 36,
            "type" : "SCALAR"
        },
        {
            "bufferView" : 5,
            "componentType" : 5126,
            "count" : 24,
            "max" : [
                3.183433771133423,
                2.2801859378814697,
                0.16930513083934784
            ],
            "min" : [
                -3.183433771133423,
                -2.2801859378814697,
                -0.16930513083934784
            ],
            "type" : "VEC3"
        },
        {
            "bufferView" : 6,
            "componentType" : 5126,
            "count" : 24,
            "type" : "VEC3"
        },
        {
            "bufferView" : 7,
            "componentType" : 5126,
            "count" : 24,
            "type" : "VEC2"
        },
        {
            "bufferView" : 8,
            "componentType" : 5126,
            "count" : 24,
            "max" : [
                3.183433771133423,
                2.2801859378814697,
                0.16930513083934784
            ],
            "min" : [
                -3.183433771133423,
                -2.2801859378814697,
                -0.16930513083934784
            ],
            "type" : "VEC3"
        },
        {
            "bufferView" : 9,
            "componentType" : 5126,
            "count" : 24,
            "type" : "VEC3"
        },
        {
            "bufferView" : 10,
            "componentType" : 5126,
            "count" : 24,
            "type" : "VEC2"
        },
        {
            "bufferView" : 11,
            "componentType" : 5126,
            "count" : 24,
            "max" : [
                1.9610008001327515,
                1.4045984745025635,
                0.10429225862026215
            ],
            "min" : [
                -1.9610008001327515,
                -1.4045984745025635,
                -0.10429225862026215
            ],
            "type" : "VEC3"
        },
        {
            "bufferView" : 12,
            "componentType" : 5126,
            "count" : 24,
            "type" : "VEC3"
        },
        {
            "bufferView" : 13,
            "componentType" : 5126,
            "count" : 24,
            "type" : "VEC2"
        },
        {
            "bufferView" : 14,
            "componentType" : 5126,
            "count" : 24,
            "max" : [
                1.9610008001327515,
                1.4045984745025635,
                0.10429225862026215
            ],
            "min" : [
                -1.9610008001327515,
                -1.4045984745025635,
                -0.10429225862026215
            ],
            "type" : "VEC3"
        },
        {
            "bufferView" : 15,
            "componentType" : 5126,
            "count" : 24,
            "type" : "VEC3"
        },
        {
            "bufferView" : 16,
            "componentType" : 5126,
            "count" : 24,
            "type" : "VEC2"
        },
        {
            "bufferView" : 17,
            "componentType" : 5126,
            "count" : 24,
            "max" : [
                1.9610008001327515,
                1.4045984745025635,
                0.10429225862026215
            ],
            "min" : [
                -1.9610008001327515,
                -1.4045984745025635,
                -0.10429225862026215
            ],
            "type" : "VEC3"
        },
        {
            "bufferView" : 18,
            "componentType" : 5126,
            "count" : 24,
            "type" : "VEC3"
        },
        {
            "bufferView" : 19,
            "componentType" : 5126,
            "count" : 24,
            "type" : "VEC2"
        }
    ],
    "bufferViews" : [
        {
            "buffer" : 0,
            "byteLength" : 288,
            "byteOffset" : 0
        },
        {
            "buffer" : 0,
            "byteLength" : 288,
            "byteOffset" : 288
        },
        {
            "buffer" : 0,
            "byteLength" : 192,
            "byteOffset" : 576
        },
        {
            "buffer" : 0,
            "byteLength" : 72,
            "byteOffset" : 768
        },
        {
            "buffer" : 0,
            "byteLength" : 108201,
            "byteOffset" : 840
        },
        {
            "buffer" : 0,
            "byteLength" : 288,
            "byteOffset" : 109044
        },
        {
            "buffer" : 0,
            "byteLength" : 288,
            "byteOffset" : 109332
        },
        {
            "buffer" : 0,
            "byteLength" : 192,
            "byteOffset" : 109620
        },
        {
            "buffer" : 0,
            "byteLength" : 288,
            "byteOffset" : 109812
        },
        {
            "buffer" : 0,
            "byteLength" : 288,
            "byteOffset" : 110100
        },
        {
            "buffer" : 0,
            "byteLength" : 192,
            "byteOffset" : 110388
        },
        {
            "buffer" : 0,
            "byteLength" : 288,
            "byteOffset" : 110580
        },
        {
            "buffer" : 0,
            "byteLength" : 288,
            "byteOffset" : 110868
        },
        {
            "buffer" : 0,
            "byteLength" : 192,
            "byteOffset" : 111156
        },
        {
            "buffer" : 0,
            "byteLength" : 288,
            "byteOffset" : 111348
        },
        {
            "buffer" : 0,
            "byteLength" : 288,
            "byteOffset" : 111636
        },
        {
            "buffer" : 0,
            "byteLength" : 192,
            "byteOffset" : 111924
        },
        {
            "buffer" : 0,
            "byteLength" : 288,
            "byteOffset" : 112116
        },
        {
            "buffer" : 0,
            "byteLength" : 288,
            "byteOffset" : 112404
        },
        {
            "buffer" : 0,
            "byteLength" : 192,
            "byteOffset" : 112692
        }
    ],
    "samplers" : [
        {
            "magFilter" : 9729,
            "minFilter" : 9987
        }
    ],
    "buffers" : [
        {
            "byteLength" : 112884,
            "uri" : "data:application/octet-stream;base64,"
        }
    ]
}
