{
    "asset" : {
        "generator" : "Khronos glTF Blender I/O v1.7.33",
        "version" : "2.0"
    },
    "scene" : 0,
    "scenes" : [
        {
            "name" : "Scene",
            "nodes" : [
                2
            ]
        }
    ],
    "nodes" : [
        {
            "mesh" : 0,
            "name" : "cube5",
            "rotation" : [
                0,
                -0.6123059391975403,
                0,
                -0.7906209230422974
            ],
            "translation" : [
                -0.05062150955200195,
                6.070503234863281,
                -1.5974997282028198
            ]
        },
        {
            "mesh" : 1,
            "name" : "polymsh8",
            "rotation" : [
                0,
                0,
                0,
                -1
            ],
            "translation" : [
                -0.1473393440246582,
                -18.809703826904297,
                0.20760288834571838
            ]
        },
        {
            "children" : [
                0,
                1
            ],
            "name" : "dummyroot_prop_tightrope",
            "rotation" : [
                0,
                0,
                0,
                -1
            ]
        }
    ],
    "materials" : [
        {
            "name" : "screentime2.002",
            "pbrMetallicRoughness" : {
                "baseColorTexture" : {
                    "index" : 0
                },
                "metallicFactor" : 0
            }
        },
        {
            "name" : "Scene_Material330",
            "pbrMetallicRoughness" : {
                "baseColorTexture" : {
                    "index" : 1
                },
                "metallicFactor" : 0
            }
        },
        {
            "name" : "Material9.003",
            "pbrMetallicRoughness" : {
                "baseColorTexture" : {
                    "index" : 2
                },
                "metallicFactor" : 0
            }
        },
        {
            "name" : "a_lab_floor7.002",
            "pbrMetallicRoughness" : {
                "baseColorTexture" : {
                    "index" : 3
                },
                "metallicFactor" : 0
            }
        },
        {
            "name" : "Material3.011",
            "pbrMetallicRoughness" : {
                "baseColorTexture" : {
                    "index" : 4
                },
                "metallicFactor" : 0
            }
        },
        {
            "name" : "Material2.002",
            "pbrMetallicRoughness" : {
                "baseColorTexture" : {
                    "index" : 5
                },
                "metallicFactor" : 0
            }
        },
        {
            "emissiveFactor" : [
                1,
                1,
                1
            ],
            "emissiveTexture" : {
                "index" : 6
            },
            "name" : "CYAN",
            "pbrMetallicRoughness" : {
                "baseColorTexture" : {
                    "index" : 7
                },
                "metallicFactor" : 0
            }
        }
    ],
    "meshes" : [
        {
            "name" : "cube5.001",
            "primitives" : [
                {
                    "attributes" : {
                        "POSITION" : 0,
                        "NORMAL" : 1,
                        "TEXCOORD_0" : 2
                    },
                    "indices" : 3,
                    "material" : 0
                },
                {
                    "attributes" : {
                        "POSITION" : 4,
                        "NORMAL" : 5,
                        "TEXCOORD_0" : 6
                    },
                    "indices" : 7,
                    "material" : 0
                }
            ]
        },
        {
            "name" : "polymsh8",
            "primitives" : [
                {
                    "attributes" : {
                        "POSITION" : 8,
                        "NORMAL" : 9,
                        "TEXCOORD_0" : 10
                    },
                    "indices" : 11,
                    "material" : 1
                },
                {
                    "attributes" : {
                        "POSITION" : 12,
                        "NORMAL" : 13,
                        "TEXCOORD_0" : 14
                    },
                    "indices" : 15,
                    "material" : 2
                },
                {
                    "attributes" : {
                        "POSITION" : 16,
                        "NORMAL" : 17,
                        "TEXCOORD_0" : 18
                    },
                    "indices" : 19,
                    "material" : 3
                },
                {
                    "attributes" : {
                        "POSITION" : 20,
                        "NORMAL" : 21,
                        "TEXCOORD_0" : 22
                    },
                    "indices" : 23,
                    "material" : 4
                },
                {
                    "attributes" : {
                        "POSITION" : 24,
                        "NORMAL" : 25,
                        "TEXCOORD_0" : 26
                    },
                    "indices" : 27,
                    "material" : 5
                },
                {
                    "attributes" : {
                        "POSITION" : 28,
                        "NORMAL" : 29,
                        "TEXCOORD_0" : 30
                    },
                    "indices" : 31,
                    "material" : 2
                },
                {
                    "attributes" : {
                        "POSITION" : 32,
                        "NORMAL" : 33,
                        "TEXCOORD_0" : 34
                    },
                    "indices" : 35,
                    "material" : 6
                }
            ]
        }
    ],
    "textures" : [
        {
            "sampler" : 0,
            "source" : 0
        },
        {
            "sampler" : 0,
            "source" : 1
        },
        {
            "sampler" : 0,
            "source" : 2
        },
        {
            "sampler" : 0,
            "source" : 3
        },
        {
            "sampler" : 0,
            "source" : 4
        },
        {
            "sampler" : 0,
            "source" : 5
        },
        {
            "sampler" : 0,
            "source" : 6
        },
        {
            "sampler" : 0,
            "source" : 6
        }
    ],
    "images" : [
        {
            "bufferView" : 4,
            "mimeType" : "image/png",
            "name" : "spa1_prop_pipes1.tga"
        },
        {
            "bufferView" : 13,
            "mimeType" : "image/png",
            "name" : "white.tga"
        },
        {
            "bufferView" : 18,
            "mimeType" : "image/png",
            "name" : "bes1_bldg_platform_02.tga"
        },
        {
            "bufferView" : 23,
            "mimeType" : "image/png",
            "name" : "cis_fly_fedcruiser_03.tga"
        },
        {
            "bufferView" : 28,
            "mimeType" : "image/png",
            "name" : "bes2_bldg_corridor.tga"
        },
        {
            "bufferView" : 33,
            "mimeType" : "image/png",
            "name" : "shaft.tga"
        },
        {
            "bufferView" : 42,
            "mimeType" : "image/png",
            "name" : "cyan.tga"
        }
    ],
    "accessors" : [
        {
            "bufferView" : 0,
            "componentType" : 5126,
            "count" : 26,
            "max" : [
                5.744980812072754,
                0.4524421691894531,
                0.9886300563812256
            ],
            "min" : [
                -9.947591781616211,
                -0.4524421691894531,
                -0.22761553525924683
            ],
            "type" : "VEC3"
        },
        {
            "bufferView" : 1,
            "componentType" : 5126,
            "count" : 26,
            "type" : "VEC3"
        },
        {
            "bufferView" : 2,
            "componentType" : 5126,
            "count" : 26,
            "type" : "VEC2"
        },
        {
            "bufferView" : 3,
            "componentType" : 5123,
            "count" : 72,
            "type" : "SCALAR"
        },
        {
            "bufferView" : 5,
            "componentType" : 5126,
            "count" : 178,
            "max" : [
                6.563971996307373,
                0.77691650390625,
                1.3252640962600708
            ],
            "min" : [
                -9.947591781616211,
                -0.7769722938537598,
                -0.37183740735054016
            ],
            "type" : "VEC3"
        },
        {
            "bufferView" : 6,
            "componentType" : 5126,
            "count" : 178,
            "type" : "VEC3"
        },
        {
            "bufferView" : 7,
            "componentType" : 5126,
            "count" : 178,
            "type" : "VEC2"
        },
        {
            "bufferView" : 8,
            "componentType" : 5123,
            "count" : 504,
            "type" : "SCALAR"
        },
        {
            "bufferView" : 9,
            "componentType" : 5126,
            "count" : 15,
            "max" : [
                3.1587421894073486,
                21.71938133239746,
                7.22514009475708
            ],
            "min" : [
                -2.1169145107269287,
                -14.1077299118042,
                -8.902766227722168
            ],
            "type" : "VEC3"
        },
        {
            "bufferView" : 10,
            "componentType" : 5126,
            "count" : 15,
            "type" : "VEC3"
        },
        {
            "bufferView" : 11,
            "componentType" : 5126,
            "count" : 15,
            "type" : "VEC2"
        },
        {
            "bufferView" : 12,
            "componentType" : 5123,
            "count" : 15,
            "type" : "SCALAR"
        },
        {
            "bufferView" : 14,
            "componentType" : 5126,
            "count" : 16,
            "max" : [
                2.2223572731018066,
                21.2023868560791,
                5.1304497718811035
            ],
            "min" : [
                -1.8748470544815063,
                20.65599250793457,
                -5.493756294250488
            ],
            "type" : "VEC3"
        },
        {
            "bufferView" : 15,
            "componentType" : 5126,
            "count" : 16,
            "type" : "VEC3"
        },
        {
            "bufferView" : 16,
            "componentType" : 5126,
            "count" : 16,
            "type" : "VEC2"
        },
        {
            "bufferView" : 17,
            "componentType" : 5123,
            "count" : 24,
            "type" : "SCALAR"
        },
        {
            "bufferView" : 19,
            "componentType" : 5126,
            "count" : 36,
            "max" : [
                3.033290386199951,
                21.71938133239746,
                8.629717826843262
            ],
            "min" : [
                -3.0532994270324707,
                -14.1077299118042,
                -9.028217315673828
            ],
            "type" : "VEC3"
        },
        {
            "bufferView" : 20,
            "componentType" : 5126,
            "count" : 36,
            "type" : "VEC3"
        },
        {
            "bufferView" : 21,
            "componentType" : 5126,
            "count" : 36,
            "type" : "VEC2"
        },
        {
            "bufferView" : 22,
            "componentType" : 5123,
            "count" : 36,
            "type" : "SCALAR"
        },
        {
            "bufferView" : 24,
            "componentType" : 5126,
            "count" : 316,
            "max" : [
                3.4416637420654297,
                29.187822341918945,
                8.790366172790527
            ],
            "min" : [
                -3.2139480113983154,
                -14.1077299118042,
                -9.311139106750488
            ],
            "type" : "VEC3"
        },
        {
            "bufferView" : 25,
            "componentType" : 5126,
            "count" : 316,
            "type" : "VEC3"
        },
        {
            "bufferView" : 26,
            "componentType" : 5126,
            "count" : 316,
            "type" : "VEC2"
        },
        {
            "bufferView" : 27,
            "componentType" : 5123,
            "count" : 813,
            "type" : "SCALAR"
        },
        {
            "bufferView" : 29,
            "componentType" : 5126,
            "count" : 279,
            "max" : [
                5.222357273101807,
                21.2023868560791,
                10.69333267211914
            ],
            "min" : [
                -5.116914749145508,
                -23.493492126464844,
                -11.091833114624023
            ],
            "type" : "VEC3"
        },
        {
            "bufferView" : 30,
            "componentType" : 5126,
            "count" : 279,
            "type" : "VEC3"
        },
        {
            "bufferView" : 31,
            "componentType" : 5126,
            "count" : 279,
            "type" : "VEC2"
        },
        {
            "bufferView" : 32,
            "componentType" : 5123,
            "count" : 783,
            "type" : "SCALAR"
        },
        {
            "bufferView" : 34,
            "componentType" : 5126,
            "count" : 79,
            "max" : [
                5.222357273101807,
                21.71938133239746,
                10.69333267211914
            ],
            "min" : [
                -5.116914749145508,
                20.65599250793457,
                -11.091833114624023
            ],
            "type" : "VEC3"
        },
        {
            "bufferView" : 35,
            "componentType" : 5126,
            "count" : 79,
            "type" : "VEC3"
        },
        {
            "bufferView" : 36,
            "componentType" : 5126,
            "count" : 79,
            "type" : "VEC2"
        },
        {
            "bufferView" : 37,
            "componentType" : 5123,
            "count" : 225,
            "type" : "SCALAR"
        },
        {
            "bufferView" : 38,
            "componentType" : 5126,
            "count" : 52,
            "max" : [
                2.9516868591308594,
                23.18406867980957,
                8.422661781311035
            ],
            "min" : [
                -2.8462443351745605,
                21.593935012817383,
                -8.821162223815918
            ],
            "type" : "VEC3"
        },
        {
            "bufferView" : 39,
            "componentType" : 5126,
            "count" : 52,
            "type" : "VEC3"
        },
        {
            "bufferView" : 40,
            "componentType" : 5126,
            "count" : 52,
            "type" : "VEC2"
        },
        {
            "bufferView" : 41,
            "componentType" : 5123,
            "count" : 144,
            "type" : "SCALAR"
        }
    ],
    "bufferViews" : [
        {
            "buffer" : 0,
            "byteLength" : 312,
            "byteOffset" : 0
        },
        {
            "buffer" : 0,
            "byteLength" : 312,
            "byteOffset" : 312
        },
        {
            "buffer" : 0,
            "byteLength" : 208,
            "byteOffset" : 624
        },
        {
            "buffer" : 0,
            "byteLength" : 144,
            "byteOffset" : 832
        },
        {
            "buffer" : 0,
            "byteLength" : 107374,
            "byteOffset" : 976
        },
        {
            "buffer" : 0,
            "byteLength" : 2136,
            "byteOffset" : 108352
        },
        {
            "buffer" : 0,
            "byteLength" : 2136,
            "byteOffset" : 110488
        },
        {
            "buffer" : 0,
            "byteLength" : 1424,
            "byteOffset" : 112624
        },
        {
            "buffer" : 0,
            "byteLength" : 1008,
            "byteOffset" : 114048
        },
        {
            "buffer" : 0,
            "byteLength" : 180,
            "byteOffset" : 115056
        },
        {
            "buffer" : 0,
            "byteLength" : 180,
            "byteOffset" : 115236
        },
        {
            "buffer" : 0,
            "byteLength" : 120,
            "byteOffset" : 115416
        },
        {
            "buffer" : 0,
            "byteLength" : 30,
            "byteOffset" : 115536
        },
        {
            "buffer" : 0,
            "byteLength" : 336886,
            "byteOffset" : 115568
        },
        {
            "buffer" : 0,
            "byteLength" : 192,
            "byteOffset" : 452456
        },
        {
            "buffer" : 0,
            "byteLength" : 192,
            "byteOffset" : 452648
        },
        {
            "buffer" : 0,
            "byteLength" : 128,
            "byteOffset" : 452840
        },
        {
            "buffer" : 0,
            "byteLength" : 48,
            "byteOffset" : 452968
        },
        {
            "buffer" : 0,
            "byteLength" : 107811,
            "byteOffset" : 453016
        },
        {
            "buffer" : 0,
            "byteLength" : 432,
            "byteOffset" : 560828
        },
        {
            "buffer" : 0,
            "byteLength" : 432,
            "byteOffset" : 561260
        },
        {
            "buffer" : 0,
            "byteLength" : 288,
            "byteOffset" : 561692
        },
        {
            "buffer" : 0,
            "byteLength" : 72,
            "byteOffset" : 561980
        },
        {
            "buffer" : 0,
            "byteLength" : 486993,
            "byteOffset" : 562052
        },
        {
            "buffer" : 0,
            "byteLength" : 3792,
            "byteOffset" : 1049048
        },
        {
            "buffer" : 0,
            "byteLength" : 3792,
            "byteOffset" : 1052840
        },
        {
            "buffer" : 0,
            "byteLength" : 2528,
            "byteOffset" : 1056632
        },
        {
            "buffer" : 0,
            "byteLength" : 1626,
            "byteOffset" : 1059160
        },
        {
            "buffer" : 0,
            "byteLength" : 35990,
            "byteOffset" : 1060788
        },
        {
            "buffer" : 0,
            "byteLength" : 3348,
            "byteOffset" : 1096780
        },
        {
            "buffer" : 0,
            "byteLength" : 3348,
            "byteOffset" : 1100128
        },
        {
            "buffer" : 0,
            "byteLength" : 2232,
            "byteOffset" : 1103476
        },
        {
            "buffer" : 0,
            "byteLength" : 1566,
            "byteOffset" : 1105708
        },
        {
            "buffer" : 0,
            "byteLength" : 159790,
            "byteOffset" : 1107276
        },
        {
            "buffer" : 0,
            "byteLength" : 948,
            "byteOffset" : 1267068
        },
        {
            "buffer" : 0,
            "byteLength" : 948,
            "byteOffset" : 1268016
        },
        {
            "buffer" : 0,
            "byteLength" : 632,
            "byteOffset" : 1268964
        },
        {
            "buffer" : 0,
            "byteLength" : 450,
            "byteOffset" : 1269596
        },
        {
            "buffer" : 0,
            "byteLength" : 624,
            "byteOffset" : 1270048
        },
        {
            "buffer" : 0,
            "byteLength" : 624,
            "byteOffset" : 1270672
        },
        {
            "buffer" : 0,
            "byteLength" : 416,
            "byteOffset" : 1271296
        },
        {
            "buffer" : 0,
            "byteLength" : 288,
            "byteOffset" : 1271712
        },
        {
            "buffer" : 0,
            "byteLength" : 66719,
            "byteOffset" : 1272000
        }
    ],
    "samplers" : [
        {
            "magFilter" : 9729,
            "minFilter" : 9987
        }
    ],
    "buffers" : [
        {
            "byteLength" : 1338720,
            "uri" : "data:application/octet-stream;base64,"
        }
    ]
}
