{
    "asset" : {
        "generator" : "Khronos glTF Blender I/O v1.7.33",
        "version" : "2.0"
    },
    "scene" : 0,
    "scenes" : [
        {
            "name" : "Scene",
            "nodes" : [
                1
            ]
        }
    ],
    "nodes" : [
        {
            "mesh" : 0,
            "name" : "cylinder46",
            "rotation" : [
                0,
                0,
                0,
                -1
            ],
            "translation" : [
                0.02138678729534149,
                0.4286031723022461,
                0.07951730489730835
            ]
        },
        {
            "children" : [
                0
            ],
            "name" : "dummyroot_bar_stool",
            "rotation" : [
                0,
                0,
                0,
                -1
            ]
        }
    ],
    "materials" : [
        {
            "name" : "Scene_Material334.001",
            "pbrMetallicRoughness" : {
                "baseColorTexture" : {
                    "index" : 0
                },
                "metallicFactor" : 0
            }
        },
        {
            "emissiveFactor" : [
                1,
                1,
                1
            ],
            "emissiveTexture" : {
                "index" : 1
            },
            "name" : "whitewhite8",
            "pbrMetallicRoughness" : {
                "baseColorTexture" : {
                    "index" : 2
                },
                "metallicFactor" : 0
            }
        },
        {
            "name" : "Material3059.002",
            "pbrMetallicRoughness" : {
                "baseColorTexture" : {
                    "index" : 3
                },
                "metallicFactor" : 0
            }
        }
    ],
    "meshes" : [
        {
            "name" : "cylinder46",
            "primitives" : [
                {
                    "attributes" : {
                        "POSITION" : 0,
                        "NORMAL" : 1,
                        "TEXCOORD_0" : 2
                    },
                    "indices" : 3,
                    "material" : 0
                },
                {
                    "attributes" : {
                        "POSITION" : 4,
                        "NORMAL" : 5,
                        "TEXCOORD_0" : 6
                    },
                    "indices" : 3,
                    "material" : 1
                },
                {
                    "attributes" : {
                        "POSITION" : 7,
                        "NORMAL" : 8,
                        "TEXCOORD_0" : 9
                    },
                    "indices" : 10,
                    "material" : 1
                },
                {
                    "attributes" : {
                        "POSITION" : 11,
                        "NORMAL" : 12,
                        "TEXCOORD_0" : 13
                    },
                    "indices" : 14,
                    "material" : 2
                }
            ]
        }
    ],
    "textures" : [
        {
            "sampler" : 0,
            "source" : 0
        },
        {
            "sampler" : 0,
            "source" : 0
        },
        {
            "sampler" : 0,
            "source" : 0
        },
        {
            "sampler" : 0,
            "source" : 1
        }
    ],
    "images" : [
        {
            "bufferView" : 4,
            "mimeType" : "image/png",
            "name" : "white.tga"
        },
        {
            "bufferView" : 16,
            "mimeType" : "image/png",
            "name" : "Tan4_prop_console.tga"
        }
    ],
    "accessors" : [
        {
            "bufferView" : 0,
            "componentType" : 5126,
            "count" : 16,
            "max" : [
                0.30000001192092896,
                5.191013810095036e-19,
                0.30000001192092896
            ],
            "min" : [
                -0.30000001192092896,
                -5.191013810095036e-19,
                -0.30000001192092896
            ],
            "type" : "VEC3"
        },
        {
            "bufferView" : 1,
            "componentType" : 5126,
            "count" : 16,
            "type" : "VEC3"
        },
        {
            "bufferView" : 2,
            "componentType" : 5126,
            "count" : 16,
            "type" : "VEC2"
        },
        {
            "bufferView" : 3,
            "componentType" : 5123,
            "count" : 48,
            "type" : "SCALAR"
        },
        {
            "bufferView" : 5,
            "componentType" : 5126,
            "count" : 16,
            "max" : [
                0.30000001192092896,
                0.5,
                0.30000001192092896
            ],
            "min" : [
                -0.30000001192092896,
                0.5,
                -0.30000001192092896
            ],
            "type" : "VEC3"
        },
        {
            "bufferView" : 6,
            "componentType" : 5126,
            "count" : 16,
            "type" : "VEC3"
        },
        {
            "bufferView" : 7,
            "componentType" : 5126,
            "count" : 16,
            "type" : "VEC2"
        },
        {
            "bufferView" : 8,
            "componentType" : 5126,
            "count" : 41,
            "max" : [
                0.23497609794139862,
                5.191013810095036e-19,
                0.23497609794139862
            ],
            "min" : [
                -0.23497609794139862,
                -0.5,
                -0.23497609794139862
            ],
            "type" : "VEC3"
        },
        {
            "bufferView" : 9,
            "componentType" : 5126,
            "count" : 41,
            "type" : "VEC3"
        },
        {
            "bufferView" : 10,
            "componentType" : 5126,
            "count" : 41,
            "type" : "VEC2"
        },
        {
            "bufferView" : 11,
            "componentType" : 5123,
            "count" : 120,
            "type" : "SCALAR"
        },
        {
            "bufferView" : 12,
            "componentType" : 5126,
            "count" : 33,
            "max" : [
                0.30000001192092896,
                0.5,
                0.30000001192092896
            ],
            "min" : [
                -0.30000001192092896,
                0,
                -0.30000001192092896
            ],
            "type" : "VEC3"
        },
        {
            "bufferView" : 13,
            "componentType" : 5126,
            "count" : 33,
            "type" : "VEC3"
        },
        {
            "bufferView" : 14,
            "componentType" : 5126,
            "count" : 33,
            "type" : "VEC2"
        },
        {
            "bufferView" : 15,
            "componentType" : 5123,
            "count" : 72,
            "type" : "SCALAR"
        }
    ],
    "bufferViews" : [
        {
            "buffer" : 0,
            "byteLength" : 192,
            "byteOffset" : 0
        },
        {
            "buffer" : 0,
            "byteLength" : 192,
            "byteOffset" : 192
        },
        {
            "buffer" : 0,
            "byteLength" : 128,
            "byteOffset" : 384
        },
        {
            "buffer" : 0,
            "byteLength" : 96,
            "byteOffset" : 512
        },
        {
            "buffer" : 0,
            "byteLength" : 336886,
            "byteOffset" : 608
        },
        {
            "buffer" : 0,
            "byteLength" : 192,
            "byteOffset" : 337496
        },
        {
            "buffer" : 0,
            "byteLength" : 192,
            "byteOffset" : 337688
        },
        {
            "buffer" : 0,
            "byteLength" : 128,
            "byteOffset" : 337880
        },
        {
            "buffer" : 0,
            "byteLength" : 492,
            "byteOffset" : 338008
        },
        {
            "buffer" : 0,
            "byteLength" : 492,
            "byteOffset" : 338500
        },
        {
            "buffer" : 0,
            "byteLength" : 328,
            "byteOffset" : 338992
        },
        {
            "buffer" : 0,
            "byteLength" : 240,
            "byteOffset" : 339320
        },
        {
            "buffer" : 0,
            "byteLength" : 396,
            "byteOffset" : 339560
        },
        {
            "buffer" : 0,
            "byteLength" : 396,
            "byteOffset" : 339956
        },
        {
            "buffer" : 0,
            "byteLength" : 264,
            "byteOffset" : 340352
        },
        {
            "buffer" : 0,
            "byteLength" : 144,
            "byteOffset" : 340616
        },
        {
            "buffer" : 0,
            "byteLength" : 322503,
            "byteOffset" : 340760
        }
    ],
    "samplers" : [
        {
            "magFilter" : 9729,
            "minFilter" : 9987
        }
    ],
    "buffers" : [
        {
            "byteLength" : 663264,
            "uri" : "data:application/octet-stream;base64,"
        }
    ]
}
