{
    "asset" : {
        "generator" : "Khronos glTF Blender I/O v1.7.33",
        "version" : "2.0"
    },
    "scene" : 0,
    "scenes" : [
        {
            "name" : "Scene",
            "nodes" : [
                1
            ]
        }
    ],
    "nodes" : [
        {
            "mesh" : 0,
            "name" : "cube11",
            "rotation" : [
                0,
                -0.13917312026023865,
                0,
                -0.9902681708335876
            ],
            "translation" : [
                0.2683168947696686,
                0.7088291049003601,
                -0.05695115774869919
            ]
        },
        {
            "children" : [
                0
            ],
            "name" : "dummyroot_seat",
            "rotation" : [
                0,
                0,
                0,
                -1
            ]
        }
    ],
    "materials" : [
        {
            "name" : "Material59",
            "pbrMetallicRoughness" : {
                "baseColorTexture" : {
                    "index" : 0
                },
                "metallicFactor" : 0
            }
        }
    ],
    "meshes" : [
        {
            "name" : "cube11.001",
            "primitives" : [
                {
                    "attributes" : {
                        "POSITION" : 0,
                        "NORMAL" : 1,
                        "TEXCOORD_0" : 2
                    },
                    "indices" : 3,
                    "material" : 0
                }
            ]
        }
    ],
    "textures" : [
        {
            "sampler" : 0,
            "source" : 0
        }
    ],
    "images" : [
        {
            "bufferView" : 4,
            "mimeType" : "image/png",
            "name" : "Cor1_bldg_carpet.tga"
        }
    ],
    "accessors" : [
        {
            "bufferView" : 0,
            "componentType" : 5126,
            "count" : 80,
            "max" : [
                0.4595721662044525,
                0.90468430519104,
                0.8112761974334717
            ],
            "min" : [
                -0.90468430519104,
                -1.8410730361938477,
                -0.8077101111412048
            ],
            "type" : "VEC3"
        },
        {
            "bufferView" : 1,
            "componentType" : 5126,
            "count" : 80,
            "type" : "VEC3"
        },
        {
            "bufferView" : 2,
            "componentType" : 5126,
            "count" : 80,
            "type" : "VEC2"
        },
        {
            "bufferView" : 3,
            "componentType" : 5123,
            "count" : 150,
            "type" : "SCALAR"
        }
    ],
    "bufferViews" : [
        {
            "buffer" : 0,
            "byteLength" : 960,
            "byteOffset" : 0
        },
        {
            "buffer" : 0,
            "byteLength" : 960,
            "byteOffset" : 960
        },
        {
            "buffer" : 0,
            "byteLength" : 640,
            "byteOffset" : 1920
        },
        {
            "buffer" : 0,
            "byteLength" : 300,
            "byteOffset" : 2560
        },
        {
            "buffer" : 0,
            "byteLength" : 62533,
            "byteOffset" : 2860
        }
    ],
    "samplers" : [
        {
            "magFilter" : 9729,
            "minFilter" : 9987
        }
    ],
    "buffers" : [
        {
            "byteLength" : 65396,
            "uri" : "data:application/octet-stream;base64,"
        }
    ]
}
