{
    "asset" : {
        "generator" : "Khronos glTF Blender I/O v1.7.33",
        "version" : "2.0"
    },
    "scene" : 0,
    "scenes" : [
        {
            "name" : "Scene",
            "nodes" : [
                1
            ]
        }
    ],
    "nodes" : [
        {
            "mesh" : 0,
            "name" : "polymsh1247",
            "rotation" : [
                0,
                0.06572740525007248,
                0,
                -0.9978377223014832
            ],
            "translation" : [
                -0.6257971525192261,
                0.9986438751220703,
                0.7586619853973389
            ]
        },
        {
            "children" : [
                0
            ],
            "name" : "dummyroot_gas_can",
            "rotation" : [
                0,
                0,
                0,
                -1
            ]
        }
    ],
    "materials" : [
        {
            "name" : "screentime2",
            "pbrMetallicRoughness" : {
                "baseColorTexture" : {
                    "index" : 0
                },
                "metallicFactor" : 0
            }
        },
        {
            "name" : "Material3086.001",
            "pbrMetallicRoughness" : {
                "baseColorTexture" : {
                    "index" : 1
                },
                "metallicFactor" : 0
            }
        }
    ],
    "meshes" : [
        {
            "name" : "polymsh1247",
            "primitives" : [
                {
                    "attributes" : {
                        "POSITION" : 0,
                        "NORMAL" : 1,
                        "TEXCOORD_0" : 2
                    },
                    "indices" : 3,
                    "material" : 0
                },
                {
                    "attributes" : {
                        "POSITION" : 4,
                        "NORMAL" : 5,
                        "TEXCOORD_0" : 6
                    },
                    "indices" : 7,
                    "material" : 1
                }
            ]
        }
    ],
    "textures" : [
        {
            "sampler" : 0,
            "source" : 0
        },
        {
            "sampler" : 0,
            "source" : 1
        }
    ],
    "images" : [
        {
            "bufferView" : 4,
            "mimeType" : "image/png",
            "name" : "spa1_prop_pipes1.tga"
        },
        {
            "bufferView" : 9,
            "mimeType" : "image/png",
            "name" : "bridge.tga"
        }
    ],
    "accessors" : [
        {
            "bufferView" : 0,
            "componentType" : 5126,
            "count" : 137,
            "max" : [
                2.44744873046875,
                2.0930233001708984,
                2.0931355953216553
            ],
            "min" : [
                -2.8614156246185303,
                -1.9069766998291016,
                -1.7858116626739502
            ],
            "type" : "VEC3"
        },
        {
            "bufferView" : 1,
            "componentType" : 5126,
            "count" : 137,
            "type" : "VEC3"
        },
        {
            "bufferView" : 2,
            "componentType" : 5126,
            "count" : 137,
            "type" : "VEC2"
        },
        {
            "bufferView" : 3,
            "componentType" : 5123,
            "count" : 447,
            "type" : "SCALAR"
        },
        {
            "bufferView" : 5,
            "componentType" : 5126,
            "count" : 153,
            "max" : [
                2.893486738204956,
                2.6991794109344482,
                1.8198165893554688
            ],
            "min" : [
                -2.951558828353882,
                -1.9069766998291016,
                -3.0134570598602295
            ],
            "type" : "VEC3"
        },
        {
            "bufferView" : 6,
            "componentType" : 5126,
            "count" : 153,
            "type" : "VEC3"
        },
        {
            "bufferView" : 7,
            "componentType" : 5126,
            "count" : 153,
            "type" : "VEC2"
        },
        {
            "bufferView" : 8,
            "componentType" : 5123,
            "count" : 384,
            "type" : "SCALAR"
        }
    ],
    "bufferViews" : [
        {
            "buffer" : 0,
            "byteLength" : 1644,
            "byteOffset" : 0
        },
        {
            "buffer" : 0,
            "byteLength" : 1644,
            "byteOffset" : 1644
        },
        {
            "buffer" : 0,
            "byteLength" : 1096,
            "byteOffset" : 3288
        },
        {
            "buffer" : 0,
            "byteLength" : 894,
            "byteOffset" : 4384
        },
        {
            "buffer" : 0,
            "byteLength" : 107374,
            "byteOffset" : 5280
        },
        {
            "buffer" : 0,
            "byteLength" : 1836,
            "byteOffset" : 112656
        },
        {
            "buffer" : 0,
            "byteLength" : 1836,
            "byteOffset" : 114492
        },
        {
            "buffer" : 0,
            "byteLength" : 1224,
            "byteOffset" : 116328
        },
        {
            "buffer" : 0,
            "byteLength" : 768,
            "byteOffset" : 117552
        },
        {
            "buffer" : 0,
            "byteLength" : 108201,
            "byteOffset" : 118320
        }
    ],
    "samplers" : [
        {
            "magFilter" : 9729,
            "minFilter" : 9987
        }
    ],
    "buffers" : [
        {
            "byteLength" : 226524,
            "uri" : "data:application/octet-stream;base64,"
        }
    ]
}
