{
    "asset" : {
        "generator" : "Khronos glTF Blender I/O v1.7.33",
        "version" : "2.0"
    },
    "scene" : 0,
    "scenes" : [
        {
            "name" : "Scene",
            "nodes" : [
                1
            ]
        }
    ],
    "nodes" : [
        {
            "mesh" : 0,
            "name" : "cube6",
            "rotation" : [
                0,
                0.38268348574638367,
                0,
                -0.9238796234130859
            ],
            "translation" : [
                5.867855548858643,
                5.097219467163086,
                4.635643005371094
            ]
        },
        {
            "children" : [
                0
            ],
            "name" : "dummyroot_pipe",
            "rotation" : [
                0,
                0,
                0,
                -1
            ]
        }
    ],
    "materials" : [
        {
            "name" : "screentime2.001",
            "pbrMetallicRoughness" : {
                "baseColorTexture" : {
                    "index" : 0
                },
                "metallicFactor" : 0
            }
        }
    ],
    "meshes" : [
        {
            "name" : "cube6.001",
            "primitives" : [
                {
                    "attributes" : {
                        "POSITION" : 0,
                        "NORMAL" : 1,
                        "TEXCOORD_0" : 2
                    },
                    "indices" : 3,
                    "material" : 0
                },
                {
                    "attributes" : {
                        "POSITION" : 4,
                        "NORMAL" : 5,
                        "TEXCOORD_0" : 6
                    },
                    "indices" : 7,
                    "material" : 0
                }
            ]
        }
    ],
    "textures" : [
        {
            "sampler" : 0,
            "source" : 0
        }
    ],
    "images" : [
        {
            "bufferView" : 4,
            "mimeType" : "image/png",
            "name" : "spa1_prop_pipes1.tga"
        }
    ],
    "accessors" : [
        {
            "bufferView" : 0,
            "componentType" : 5126,
            "count" : 26,
            "max" : [
                5.401550769805908,
                -0.6497594714164734,
                0.9689303040504456
            ],
            "min" : [
                -20.285480499267578,
                -1.5546438694000244,
                -0.5392634868621826
            ],
            "type" : "VEC3"
        },
        {
            "bufferView" : 1,
            "componentType" : 5126,
            "count" : 26,
            "type" : "VEC3"
        },
        {
            "bufferView" : 2,
            "componentType" : 5126,
            "count" : 26,
            "type" : "VEC2"
        },
        {
            "bufferView" : 3,
            "componentType" : 5123,
            "count" : 72,
            "type" : "SCALAR"
        },
        {
            "bufferView" : 5,
            "componentType" : 5126,
            "count" : 178,
            "max" : [
                5.9469804763793945,
                -0.26597264409065247,
                1.2109977006912231
            ],
            "min" : [
                -20.772794723510742,
                -1.9384965896606445,
                -0.921337902545929
            ],
            "type" : "VEC3"
        },
        {
            "bufferView" : 6,
            "componentType" : 5126,
            "count" : 178,
            "type" : "VEC3"
        },
        {
            "bufferView" : 7,
            "componentType" : 5126,
            "count" : 178,
            "type" : "VEC2"
        },
        {
            "bufferView" : 8,
            "componentType" : 5123,
            "count" : 504,
            "type" : "SCALAR"
        }
    ],
    "bufferViews" : [
        {
            "buffer" : 0,
            "byteLength" : 312,
            "byteOffset" : 0
        },
        {
            "buffer" : 0,
            "byteLength" : 312,
            "byteOffset" : 312
        },
        {
            "buffer" : 0,
            "byteLength" : 208,
            "byteOffset" : 624
        },
        {
            "buffer" : 0,
            "byteLength" : 144,
            "byteOffset" : 832
        },
        {
            "buffer" : 0,
            "byteLength" : 107374,
            "byteOffset" : 976
        },
        {
            "buffer" : 0,
            "byteLength" : 2136,
            "byteOffset" : 108352
        },
        {
            "buffer" : 0,
            "byteLength" : 2136,
            "byteOffset" : 110488
        },
        {
            "buffer" : 0,
            "byteLength" : 1424,
            "byteOffset" : 112624
        },
        {
            "buffer" : 0,
            "byteLength" : 1008,
            "byteOffset" : 114048
        }
    ],
    "samplers" : [
        {
            "magFilter" : 9729,
            "minFilter" : 9987
        }
    ],
    "buffers" : [
        {
            "byteLength" : 115056,
            "uri" : "data:application/octet-stream;base64,"
        }
    ]
}
