{
    "asset" : {
        "generator" : "Khronos glTF Blender I/O v1.7.33",
        "version" : "2.0"
    },
    "scene" : 0,
    "scenes" : [
        {
            "name" : "Scene",
            "nodes" : [
                2
            ]
        }
    ],
    "nodes" : [
        {
            "mesh" : 0,
            "name" : "cylinder16",
            "rotation" : [
                0,
                0,
                0,
                -1
            ],
            "translation" : [
                0.6553459167480469,
                -7.081963539123535,
                -0.0863943099975586
            ]
        },
        {
            "mesh" : 1,
            "name" : "polymsh_extracted4",
            "rotation" : [
                0,
                0,
                0,
                -1
            ],
            "translation" : [
                0.6603126525878906,
                12.962087631225586,
                -0.09169292449951172
            ]
        },
        {
            "children" : [
                0,
                1
            ],
            "name" : "dummyroot_prop_tower",
            "rotation" : [
                0,
                0,
                0,
                -1
            ]
        }
    ],
    "materials" : [
        {
            "name" : "Material3.012",
            "pbrMetallicRoughness" : {
                "baseColorTexture" : {
                    "index" : 0
                },
                "metallicFactor" : 0
            }
        },
        {
            "name" : "Material3060",
            "pbrMetallicRoughness" : {
                "baseColorTexture" : {
                    "index" : 1
                },
                "metallicFactor" : 0
            }
        },
        {
            "emissiveFactor" : [
                1,
                1,
                1
            ],
            "emissiveTexture" : {
                "index" : 2
            },
            "name" : "ORANGE",
            "pbrMetallicRoughness" : {
                "baseColorTexture" : {
                    "index" : 3
                },
                "metallicFactor" : 0
            }
        }
    ],
    "meshes" : [
        {
            "name" : "cylinder16.001",
            "primitives" : [
                {
                    "attributes" : {
                        "POSITION" : 0,
                        "NORMAL" : 1,
                        "TEXCOORD_0" : 2
                    },
                    "indices" : 3,
                    "material" : 0
                }
            ]
        },
        {
            "name" : "polymsh_extracted4",
            "primitives" : [
                {
                    "attributes" : {
                        "POSITION" : 4,
                        "NORMAL" : 5,
                        "TEXCOORD_0" : 6
                    },
                    "indices" : 7,
                    "material" : 1
                },
                {
                    "attributes" : {
                        "POSITION" : 8,
                        "NORMAL" : 9,
                        "TEXCOORD_0" : 10
                    },
                    "indices" : 11,
                    "material" : 2
                }
            ]
        }
    ],
    "textures" : [
        {
            "sampler" : 0,
            "source" : 0
        },
        {
            "sampler" : 0,
            "source" : 1
        },
        {
            "sampler" : 0,
            "source" : 2
        },
        {
            "sampler" : 0,
            "source" : 2
        }
    ],
    "images" : [
        {
            "bufferView" : 4,
            "mimeType" : "image/png",
            "name" : "bes2_bldg_corridor.tga"
        },
        {
            "bufferView" : 9,
            "mimeType" : "image/png",
            "name" : "spa1_bldg_stardestroyer_destruct_01.tga"
        },
        {
            "bufferView" : 14,
            "mimeType" : "image/png",
            "name" : "orange.tga"
        }
    ],
    "accessors" : [
        {
            "bufferView" : 0,
            "componentType" : 5126,
            "count" : 82,
            "max" : [
                3,
                16.5,
                3
            ],
            "min" : [
                -3,
                -23.66722297668457,
                -3
            ],
            "type" : "VEC3"
        },
        {
            "bufferView" : 1,
            "componentType" : 5126,
            "count" : 82,
            "type" : "VEC3"
        },
        {
            "bufferView" : 2,
            "componentType" : 5126,
            "count" : 82,
            "type" : "VEC2"
        },
        {
            "bufferView" : 3,
            "componentType" : 5123,
            "count" : 288,
            "type" : "SCALAR"
        },
        {
            "bufferView" : 5,
            "componentType" : 5126,
            "count" : 245,
            "max" : [
                3.000566005706787,
                2.2344696521759033,
                3.000566005706787
            ],
            "min" : [
                -3.000566005706787,
                -3.5386674404144287,
                -3.000566005706787
            ],
            "type" : "VEC3"
        },
        {
            "bufferView" : 6,
            "componentType" : 5126,
            "count" : 245,
            "type" : "VEC3"
        },
        {
            "bufferView" : 7,
            "componentType" : 5126,
            "count" : 245,
            "type" : "VEC2"
        },
        {
            "bufferView" : 8,
            "componentType" : 5123,
            "count" : 504,
            "type" : "SCALAR"
        },
        {
            "bufferView" : 10,
            "componentType" : 5126,
            "count" : 24,
            "max" : [
                2.7425131797790527,
                -0.33038023114204407,
                2.7425131797790527
            ],
            "min" : [
                -2.7425131797790527,
                -3.338667392730713,
                -2.7425131797790527
            ],
            "type" : "VEC3"
        },
        {
            "bufferView" : 11,
            "componentType" : 5126,
            "count" : 24,
            "type" : "VEC3"
        },
        {
            "bufferView" : 12,
            "componentType" : 5126,
            "count" : 24,
            "type" : "VEC2"
        },
        {
            "bufferView" : 13,
            "componentType" : 5123,
            "count" : 36,
            "type" : "SCALAR"
        }
    ],
    "bufferViews" : [
        {
            "buffer" : 0,
            "byteLength" : 984,
            "byteOffset" : 0
        },
        {
            "buffer" : 0,
            "byteLength" : 984,
            "byteOffset" : 984
        },
        {
            "buffer" : 0,
            "byteLength" : 656,
            "byteOffset" : 1968
        },
        {
            "buffer" : 0,
            "byteLength" : 576,
            "byteOffset" : 2624
        },
        {
            "buffer" : 0,
            "byteLength" : 35990,
            "byteOffset" : 3200
        },
        {
            "buffer" : 0,
            "byteLength" : 2940,
            "byteOffset" : 39192
        },
        {
            "buffer" : 0,
            "byteLength" : 2940,
            "byteOffset" : 42132
        },
        {
            "buffer" : 0,
            "byteLength" : 1960,
            "byteOffset" : 45072
        },
        {
            "buffer" : 0,
            "byteLength" : 1008,
            "byteOffset" : 47032
        },
        {
            "buffer" : 0,
            "byteLength" : 109780,
            "byteOffset" : 48040
        },
        {
            "buffer" : 0,
            "byteLength" : 288,
            "byteOffset" : 157820
        },
        {
            "buffer" : 0,
            "byteLength" : 288,
            "byteOffset" : 158108
        },
        {
            "buffer" : 0,
            "byteLength" : 192,
            "byteOffset" : 158396
        },
        {
            "buffer" : 0,
            "byteLength" : 72,
            "byteOffset" : 158588
        },
        {
            "buffer" : 0,
            "byteLength" : 353570,
            "byteOffset" : 158660
        }
    ],
    "samplers" : [
        {
            "magFilter" : 9729,
            "minFilter" : 9987
        }
    ],
    "buffers" : [
        {
            "byteLength" : 512232,
            "uri" : "data:application/octet-stream;base64,"
        }
    ]
}
